<svg width="504" height="506" fill="none" xmlns="http://www.w3.org/2000/svg">
    <path d="M473.972 360.013c10.278-83.76-39.489-195.098-91.096-241.06-93.144-83.006-170.527-66.954-230.709-37.223-60.18 29.732-68.796 128.968-110.345 173.874-41.55 44.906-65.21 105.301-2.144 165.436 63.067 60.134 113.918 29.566 179.843 25.766 65.924-3.801 153.325 26.205 200.604.096 33.045-18.22 49.313-49.859 53.847-86.889Z" fill="#007A5E"/>
    <path opacity=".7" d="M473.972 360.013c10.278-83.76-39.489-195.098-91.096-241.06-93.144-83.006-170.527-66.954-230.709-37.223-60.18 29.732-68.796 128.968-110.345 173.874-41.55 44.906-65.21 105.301-2.144 165.436 63.067 60.134 113.918 29.566 179.843 25.766 65.924-3.801 153.325 26.205 200.604.096 33.045-18.22 49.313-49.859 53.847-86.889Z" fill="#fff"/>
    <path d="M213.118 357.064V48.446M12.212 360.123h194.957l296.193 95.464" stroke="#263238" stroke-linecap="round" stroke-linejoin="round"/>
    <path d="M100.986 352.879H87.521V130.532h27.796l-11.995-43.231H67.323l-11.995 43.231h27.796v222.347H69.618a13.199 13.199 0 0 0-9.232 3.775 13.16 13.16 0 0 0-3.945 9.149v.206c.398 3.101 13.15 5.598 28.854 5.598 15.705 0 28.455-2.497 28.854-5.598a13.164 13.164 0 0 0-3.868-9.277 13.199 13.199 0 0 0-9.295-3.853Z" fill="#263238"/>
    <path d="M280.417 33.148v261.805l197.402 32.434V.714L280.417 33.148Zm192.277 74.966-100.302 5.68V22.831L472.694 6.888v101.226Zm-100.302 15.243 100.302-4.596v91.457l-100.302-4.678v-82.183Zm-8.134 81.799-80.53-3.746v-73.992l80.461-3.677.069 81.415Zm0-181.036v90.168l-80.53 4.514V36.907l80.53-12.787Zm-80.53 185.906 80.461 4.624v89.331l-80.461-12.787v-81.168Zm88.596 95.244v-90.154l100.302 5.763v100.334L372.324 305.27Z" fill="#68D391" stroke="#263238" stroke-linecap="round" stroke-linejoin="round"/>
    <path d="M212.335 487.403c87.229 0 157.941-21.997 157.941-49.131s-70.712-49.131-157.941-49.131-157.941 21.997-157.941 49.131 70.712 49.131 157.941 49.131Z" fill="#007A5E"/>
    <path opacity=".5" d="M212.335 487.403c87.229 0 157.941-21.997 157.941-49.131s-70.712-49.131-157.941-49.131-157.941 21.997-157.941 49.131 70.712 49.131 157.941 49.131Z" fill="#fff"/>
    <path d="M198.993 221.633s-35.792-4.239-59.343 14.104c-23.55 18.344-43.803 94.998-43.336 131.712.468 36.715 14.139 55.031 48.516 70.068 34.378 15.037 98.42 9.412 134.213-1.879 35.792-11.292 47.568-50.764 47.1-71.948-.467-21.184-24.017-45.619-32.028-50.764-8.01-5.145-30.612-15.984-41.907-32.928-11.294-16.944-27.796-53.659-53.215-58.365Z" fill="#007A5E"/>
    <path opacity=".13" d="M285.61 433.1c-13.534-1.825-29.582-5.488-41.728-12.856-25.653-15.545-32.055-44.823-41.22-55.799-9.165-10.976-25.653-10.057-32.976-21.952-7.323-11.896 4.575-99.69-16.488-105.178a47.985 47.985 0 0 0-13.149-1.879c-.124.109-.275.192-.399.301-23.55 18.344-43.803 94.998-43.336 131.712.468 36.715 14.139 55.031 48.516 70.068 34.378 15.038 98.42 9.412 134.213-1.879a56.653 56.653 0 0 0 6.567-2.538Z" fill="#000"/>
    <path d="M198.993 221.633s-35.792-4.239-59.343 14.104c-23.55 18.344-43.803 94.998-43.336 131.712.468 36.715 14.139 55.031 48.516 70.068 34.378 15.037 98.42 9.412 134.213-1.879 35.792-11.292 47.568-50.764 47.1-71.948-.467-21.184-24.017-45.619-32.028-50.764-8.01-5.145-30.612-15.984-41.907-32.928-11.294-16.944-27.796-53.659-53.215-58.365Z" stroke="#004231" stroke-linecap="round" stroke-linejoin="round"/>
    <path d="M184.896 238.207s-23.358 4.459-27.48 8.575-21.297 68.6-21.297 68.6a25.586 25.586 0 0 1 14.427.686c6.87 2.744 7.557 9.947 8.244 13.377a122.38 122.38 0 0 1 1.031 12.348s69.428-6.188 84.198-9.604c14.771-3.417 37.25-5.008 37.25-5.008s-37.978-85.531-43.817-88.618c-5.84-3.087-30.228-3.43-33.663-2.744-3.435.686-18.893 2.388-18.893 2.388Z" fill="#68D391" stroke="#263238" stroke-linecap="round" stroke-linejoin="round"/>
    <path d="m161.882 317.44 5.839-47.677m-1.374 12.691 7.901-10.29m15.801 16.464s22.327-7.203 37.098-7.203" stroke="#fff" stroke-linecap="round" stroke-linejoin="round"/>
    <path d="m211.126 268.967-1.498 11.429s3.779 0 4.122 1.715a4.56 4.56 0 0 1-1.374 3.43s10.649 5.831 12.023 12.691" stroke="#fff" stroke-linecap="round" stroke-linejoin="round"/>
    <path d="M197.716 225.42s-12.82 4.116-14.661 7.313c-1.841 3.196-.453 25.615-.453 28.359 0 2.744 1.607-1.605 2.981-4.802 1.374-3.197 6.183-8.013 7.777-7.546 1.594.466 2.528 2.277 2.528 5.255 0 2.977 3.655 7.093 6.87 9.37a199.516 199.516 0 0 1 6.183 4.583s6.637-9.604 8.244-12.129c1.608-2.524 1.374-7.765 1.594-9.604.22-1.838 4.356 5.036 5.276 3.211.921-1.825-2.061-3.43-5.276-8.465-3.215-5.036-2.281-10.29-7.09-13.954-4.809-3.663-10.305-2.524-13.973-1.591Z" fill="#fff"/>
    <path d="M183.055 232.719c-1.209 2.14-1.017 12.814-.742 20.58 2.927-3.759 8.959-10.866 12.449-9.522 4.451 1.715 6.155 14.351 6.155 14.351l-3.009-32.708h-.192s-12.82 4.116-14.661 7.299Z" fill="#0F4C81"/>
    <path opacity=".5" d="M183.055 232.719c-1.209 2.14-1.017 12.814-.742 20.58 2.927-3.759 8.959-10.866 12.449-9.522 4.451 1.715 6.155 14.351 6.155 14.351l-3.009-32.708h-.192s-12.82 4.116-14.661 7.299Z" fill="#fff"/>
    <path d="M197.716 225.42s-12.82 4.116-14.661 7.313c-1.841 3.196-.453 25.615-.453 28.359 0 2.744 1.607-1.605 2.981-4.802 1.374-3.197 6.183-8.013 7.777-7.546 1.594.466 2.528 2.277 2.528 5.255 0 2.977 3.655 7.093 6.87 9.37a199.516 199.516 0 0 1 6.183 4.583s6.637-9.604 8.244-12.129c1.608-2.524 1.374-7.765 1.594-9.604.22-1.838 4.356 5.036 5.276 3.211.921-1.825-2.061-3.43-5.276-8.465-3.215-5.036-2.281-10.29-7.09-13.954-4.809-3.663-10.305-2.524-13.973-1.591Z" stroke="#263238" stroke-linecap="round" stroke-linejoin="round"/>
    <path d="M167.378 318.126s-7.901-11.319-17.519-12.348c-9.618-1.029-21.297 6.86-21.64 9.604-.344 2.744-2.748 17.493-1.031 19.551 1.718 2.058 8.244 3.773 20.954-.343 12.709-4.116 17.862-9.261 19.236-16.464Z" fill="#fff"/>
    <path d="M135.24 334.576s-2.748-7.848-1.374-10.578c1.374-2.73 6.87-6.86 10.264-10.976 3.393-4.116-8.011 2.319-8.56 0-.426-1.866 6.031-5.598 8.573-6.983-7.996 1.536-15.649 7.093-15.924 9.302-.344 2.744-2.748 17.493-1.031 19.551.88 1.056 3.064 2.03 6.705 2.154.825-1.413 1.347-2.47 1.347-2.47Z" fill="#0F4C81"/>
    <path opacity=".5" d="M135.24 334.576s-2.748-7.848-1.374-10.578c1.374-2.73 6.87-6.86 10.264-10.976 3.393-4.116-8.011 2.319-8.56 0-.426-1.866 6.031-5.598 8.573-6.983-7.996 1.536-15.649 7.093-15.924 9.302-.344 2.744-2.748 17.493-1.031 19.551.88 1.056 3.064 2.03 6.705 2.154.825-1.413 1.347-2.47 1.347-2.47Z" fill="#fff"/>
    <path d="M167.378 318.126s-7.901-11.319-17.519-12.348c-9.618-1.029-21.297 6.86-21.64 9.604-.344 2.744-2.748 17.493-1.031 19.551 1.718 2.058 8.244 3.773 20.954-.343 12.709-4.116 17.862-9.261 19.236-16.464Z" stroke="#263238" stroke-linecap="round" stroke-linejoin="round"/>
    <path d="M140.585 321.213s-12.888 5.104-13.397 15.092c-.288 5.488 8.931 7.889 18.549 7.889s23.358-12.005 32.289-17.15c8.931-5.145 29.541-17.15 31.946-18.179 2.404-1.029 10.648 1.715 14.083 2.744 3.274.7 6.614 1.045 9.962 1.029 0 0 4.809 7.546 7.213 7.546 2.405 0-5.152-11.319-6.183-13.72-1.03-2.401-17.862-7.889-19.923-7.889s-50.151 12.005-57.364 14.749c-7.214 2.744-17.175 7.889-17.175 7.889Z" fill="#fff"/>
    <path d="M167.529 319.786c19.634-9.81 47.595-21.211 47.595-21.211-2.061 0-50.151 12.005-57.364 14.749-7.214 2.744-17.175 7.889-17.175 7.889s-12.888 5.104-13.397 15.092c-.288 5.488 8.931 7.889 18.549 7.889s23.358-12.005 32.289-17.15l5.414-3.128c-13.122 1.66-30.668 3.224-15.911-4.13Z" fill="#0F4C81"/>
    <path opacity=".5" d="M167.529 319.786c19.634-9.81 47.595-21.211 47.595-21.211-2.061 0-50.151 12.005-57.364 14.749-7.214 2.744-17.175 7.889-17.175 7.889s-12.888 5.104-13.397 15.092c-.288 5.488 8.931 7.889 18.549 7.889s23.358-12.005 32.289-17.15l5.414-3.128c-13.122 1.66-30.668 3.224-15.911-4.13Z" fill="#fff"/>
    <path d="M140.585 321.213s-12.888 5.104-13.397 15.092c-.288 5.488 8.931 7.889 18.549 7.889s23.358-12.005 32.289-17.15c8.931-5.145 29.541-17.15 31.946-18.179 2.404-1.029 10.648 1.715 14.083 2.744 3.274.7 6.614 1.045 9.962 1.029 0 0 4.809 7.546 7.213 7.546 2.405 0-5.152-11.319-6.183-13.72-1.03-2.401-17.862-7.889-19.923-7.889s-50.151 12.005-57.364 14.749c-7.214 2.744-17.175 7.889-17.175 7.889Z" stroke="#263238" stroke-linecap="round" stroke-linejoin="round"/>
    <path d="m241.052 244.93-10.47 58.79 75.57.343 11.239-55.758a3.472 3.472 0 0 0-3.298-4.116l-69.524-2.086a3.466 3.466 0 0 0-2.283.762 3.45 3.45 0 0 0-1.234 2.065Z" fill="#fff" stroke="#263238" stroke-linecap="round" stroke-linejoin="round"/>
    <path d="m230.582 303.72-36.796 25.985 84.157-2.401 28.209-23.241-75.57-.343Z" fill="#fff"/>
    <path d="m230.582 303.72-36.796 25.985 84.157-2.401 28.209-23.241-75.57-.343Z" fill="#0F4C81"/>
    <path opacity=".5" d="m230.582 303.72-36.796 25.985 84.157-2.401 28.209-23.241-75.57-.343Z" fill="#fff"/>
    <path d="m230.582 303.72-36.796 25.985 84.157-2.401 28.209-23.241-75.57-.343Z" stroke="#263238" stroke-linecap="round" stroke-linejoin="round"/>
    <path d="M258.405 329.445s30.228-26.411 60.113-35.329c29.884-8.918 36.067-7.546 35.38 5.831-.687 13.377-15.114 83.349-24.732 101.185-9.618 17.836-21.64 50.421-21.297 56.595.344 6.174 12.023 24.353 22.328 30.87 10.305 6.517 9.274 14.406 2.748 15.778-6.527 1.372-14.084 3.773-36.411-10.633-22.328-14.406-31.602-34.986-30.228-40.131 1.374-5.145 15.801-12.005 21.64-22.295 5.84-10.29 15.458-48.706 16.145-66.199a103.813 103.813 0 0 1 6.87-32.242s-37.785 6.86-48.777 13.72l-3.779-17.15Z" fill="#fff"/>
    <path d="M258.405 329.445s30.228-26.411 60.113-35.329c29.884-8.918 36.067-7.546 35.38 5.831-.687 13.377-15.114 83.349-24.732 101.185-9.618 17.836-21.64 50.421-21.297 56.595.344 6.174 12.023 24.353 22.328 30.87 10.305 6.517 9.274 14.406 2.748 15.778-6.527 1.372-14.084 3.773-36.411-10.633-22.328-14.406-31.602-34.986-30.228-40.131 1.374-5.145 15.801-12.005 21.64-22.295 5.84-10.29 15.458-48.706 16.145-66.199a103.813 103.813 0 0 1 6.87-32.242s-37.785 6.86-48.777 13.72l-3.779-17.15Z" fill="#0F4C81"/>
    <path opacity=".5" d="M258.405 329.445s30.228-26.411 60.113-35.329c29.884-8.918 36.067-7.546 35.38 5.831-.687 13.377-15.114 83.349-24.732 101.185-9.618 17.836-21.64 50.421-21.297 56.595.344 6.174 12.023 24.353 22.328 30.87 10.305 6.517 9.274 14.406 2.748 15.778-6.527 1.372-14.084 3.773-36.411-10.633-22.328-14.406-31.602-34.986-30.228-40.131 1.374-5.145 15.801-12.005 21.64-22.295 5.84-10.29 15.458-48.706 16.145-66.199a103.813 103.813 0 0 1 6.87-32.242s-37.785 6.86-48.777 13.72l-3.779-17.15Z" fill="#fff"/>
    <path d="M258.405 329.445s30.228-26.411 60.113-35.329c29.884-8.918 36.067-7.546 35.38 5.831-.687 13.377-15.114 83.349-24.732 101.185-9.618 17.836-21.64 50.421-21.297 56.595.344 6.174 12.023 24.353 22.328 30.87 10.305 6.517 9.274 14.406 2.748 15.778-6.527 1.372-14.084 3.773-36.411-10.633-22.328-14.406-31.602-34.986-30.228-40.131 1.374-5.145 15.801-12.005 21.64-22.295 5.84-10.29 15.458-48.706 16.145-66.199a103.813 103.813 0 0 1 6.87-32.242s-37.785 6.86-48.777 13.72l-3.779-17.15Z" stroke="#263238" stroke-linecap="round" stroke-linejoin="round"/>
    <path d="M287.946 431.316c-.44.768-.934 1.509-1.456 2.25a35.318 35.318 0 0 1 19.318 8.04 60.487 60.487 0 0 1 4.699 4.541 299.8 299.8 0 0 1 18.659-45.015c9.618-17.836 24.045-87.808 24.732-101.185.687-13.377-5.496-14.749-35.38-5.831-29.885 8.918-60.113 35.329-60.113 35.329l3.779 17.15c10.992-6.86 48.777-13.72 48.777-13.72a103.813 103.813 0 0 0-6.87 32.242c-.687 17.493-10.305 55.909-16.145 66.199Z" fill="#fff" stroke="#263238" stroke-linecap="round" stroke-linejoin="round"/>
    <path d="M287.946 431.316c-.44.768-.934 1.509-1.456 2.25a35.318 35.318 0 0 1 19.318 8.04 60.487 60.487 0 0 1 4.699 4.541c6.582-8.836 13.988-36.701 22.341-48.171 21.586-29.621 20.363-84.652 21.05-98.029.687-13.377-5.496-14.749-35.38-5.831-29.885 8.918-60.113 35.329-60.113 35.329l3.779 17.15c10.992-6.86 48.777-13.72 48.777-13.72a103.813 103.813 0 0 0-6.87 32.242c-.687 17.493-10.305 55.909-16.145 66.199Z" fill="#68D391"/>
    <path opacity=".53" d="M287.946 431.316c-.44.768-.934 1.509-1.456 2.25a35.318 35.318 0 0 1 19.318 8.04 60.487 60.487 0 0 1 4.699 4.541c6.582-8.836 13.988-36.701 22.341-48.171 21.586-29.621 20.363-84.652 21.05-98.029.687-13.377-5.496-14.749-35.38-5.831-29.885 8.918-60.113 35.329-60.113 35.329l3.779 17.15c10.992-6.86 48.777-13.72 48.777-13.72a103.813 103.813 0 0 0-6.87 32.242c-.687 17.493-10.305 55.909-16.145 66.199Z" fill="#fff"/>
    <path opacity=".14" d="M339.375 298.136c-.536-4.871-53.668 17.589-76.078 27.275-3.106 2.47-4.892 4.034-4.892 4.034l3.779 17.15c10.992-6.86 48.777-13.72 48.777-13.72a103.813 103.813 0 0 0-6.87 32.242c-.687 17.493-10.305 55.909-16.145 66.199-.44.768-.934 1.509-1.456 2.25a38.977 38.977 0 0 1 10.992 2.84c8.23-17.534 17.092-37.936 21.283-53.892 7.557-28.812 21.297-78.204 20.61-84.378Z" fill="#000"/>
    <path d="M310.961 332.875s10.305-20.923 19.236-29.498" stroke="#263238" stroke-linecap="round" stroke-linejoin="round"/>
    <path d="M287.946 431.316c-.44.768-.934 1.509-1.456 2.25a35.318 35.318 0 0 1 19.318 8.04 60.487 60.487 0 0 1 4.699 4.541c6.582-8.836 13.988-36.701 22.341-48.171 21.586-29.621 20.363-84.652 21.05-98.029.687-13.377-5.496-14.749-35.38-5.831-29.885 8.918-60.113 35.329-60.113 35.329l3.779 17.15c10.992-6.86 48.777-13.72 48.777-13.72a103.813 103.813 0 0 0-6.87 32.242c-.687 17.493-10.305 55.909-16.145 66.199Z" stroke="#263238" stroke-linecap="round" stroke-linejoin="round"/>
    <path d="M213.118 357.132a118.331 118.331 0 0 0 32.495-6.106c15.54-5.653-12.723-15.997-23.55-10.345a16.053 16.053 0 0 0-8.945 16.451Z" fill="#68D391" stroke="#263238" stroke-linecap="round" stroke-linejoin="round"/>
    <path d="M168.408 334.933s-10.992 6.174-14.77 13.034c-3.779 6.86 12.476 18.289 29.651 17.603 17.175-.686 48.667-19.318 48.667-19.318s.343 30.184 6.183 41.16c5.839 10.976 32.632 37.73 43.281 44.59 10.648 6.86 46.372 32.585 51.868 36.701 5.496 4.116 15.801 11.662 18.206 12.005 2.404.343 27.48-30.184 33.319-40.474 5.84-10.29 10.992-31.899 8.931-36.701-2.061-4.802-6.183-.686-10.305 2.744s-41.907 28.469-45.342 30.184a37.761 37.761 0 0 1-5.839 2.401s-30.915-29.498-47.403-52.136-17.862-51.793-24.045-62.769c-6.183-10.976-15.114-15.778-28.511-14.406-13.396 1.372-41.22 8.575-63.891 25.382Z" fill="#fff"/>
    <path d="M313.75 454.544c9.178 6.558 17.161 12.348 19.538 14.131 5.496 4.116 15.801 11.662 18.206 12.005.852.124 4.561-3.649 9.247-9.014l-39.338-25.272-7.653 8.15Z" fill="#0F4C81"/>
    <path opacity=".5" d="M313.75 454.544c9.178 6.558 17.161 12.348 19.538 14.131 5.496 4.116 15.801 11.662 18.206 12.005.852.124 4.561-3.649 9.247-9.014l-39.338-25.272-7.653 8.15Z" fill="#fff"/>
    <path d="M168.408 334.933s-10.992 6.174-14.77 13.034c-3.779 6.86 12.476 18.289 29.651 17.603 17.175-.686 48.667-19.318 48.667-19.318s.343 30.184 6.183 41.16c5.839 10.976 32.632 37.73 43.281 44.59 10.648 6.86 46.372 32.585 51.868 36.701 5.496 4.116 15.801 11.662 18.206 12.005 2.404.343 27.48-30.184 33.319-40.474 5.84-10.29 10.992-31.899 8.931-36.701-2.061-4.802-6.183-.686-10.305 2.744s-41.907 28.469-45.342 30.184a37.761 37.761 0 0 1-5.839 2.401s-30.915-29.498-47.403-52.136-17.862-51.793-24.045-62.769c-6.183-10.976-15.114-15.778-28.511-14.406-13.396 1.372-41.22 8.575-63.891 25.382Z" stroke="#263238" stroke-linecap="round" stroke-linejoin="round"/>
    <path d="M330.128 436.804c-7.269-7.08-34.515-43.589-45.273-64.58-15.76-30.76-17.464-41.242-23.647-52.218-6.183-10.976-15.512-11.827-28.854-10.455-13.341 1.372-37.373 3.855-66.776 20.511 0 0-12.366 6.696-16.131 13.556-3.765 6.86 9.989 24.133 33.897 21.952 17.12-1.564 48.667-19.318 48.667-19.318s.343 30.184 6.183 41.16c5.839 10.976 32.632 37.73 43.281 44.59 6.746 4.349 23.577 16.286 36.397 25.478 3.16-11.484 8.835-17.767 12.256-20.676Z" fill="#68D391"/>
    <path opacity=".53" d="M330.128 436.804c-7.269-7.08-34.515-43.589-45.273-64.58-15.76-30.76-17.464-41.242-23.647-52.218-6.183-10.976-15.512-11.827-28.854-10.455-13.341 1.372-37.373 3.855-66.776 20.511 0 0-12.366 6.696-16.131 13.556-3.765 6.86 9.989 24.133 33.897 21.952 17.12-1.564 48.667-19.318 48.667-19.318s.343 30.184 6.183 41.16c5.839 10.976 32.632 37.73 43.281 44.59 6.746 4.349 23.577 16.286 36.397 25.478 3.16-11.484 8.835-17.767 12.256-20.676Z" fill="#fff"/>
    <path opacity=".14" d="M261.057 388.002c-10.305-26.068-4.122-78.204-32.976-71.344-21.022 4.994-59.563 22.747-78.923 32.008 2.295 7.876 14.936 18.66 34.131 16.903 17.12-1.564 48.667-19.317 48.667-19.317s.343 30.184 6.183 41.16c5.839 10.976 32.632 37.73 43.281 44.59 6.746 4.349 23.578 16.285 36.397 25.478a49.018 49.018 0 0 1 4.795-11.484c-25.584-18.892-55.798-43.437-61.555-57.994Z" fill="#000"/>
    <path d="m231.956 346.252-1.031-17.836m99.203 108.388c-7.269-7.08-34.515-43.589-45.273-64.58-15.76-30.76-17.464-41.242-23.647-52.218-6.183-10.976-15.512-11.827-28.854-10.455-13.341 1.372-37.373 3.855-66.776 20.511 0 0-12.366 6.696-16.131 13.556-3.765 6.86 9.989 24.133 33.897 21.952 17.12-1.564 48.667-19.318 48.667-19.318s.343 30.184 6.183 41.16c5.839 10.976 32.632 37.73 43.281 44.59 6.746 4.349 23.577 16.286 36.397 25.478 3.16-11.484 8.835-17.767 12.256-20.676Z" stroke="#263238" stroke-linecap="round" stroke-linejoin="round"/>
    <path d="M333.288 468.703c5.496 4.116 15.801 11.662 18.206 12.005 2.404.343 27.48-30.184 33.319-40.474 5.84-10.29 10.992-31.899 8.931-36.701-2.061-4.802-6.183-.686-10.305 2.744s-41.907 28.469-45.342 30.184c-.907.453-1.731.823-2.459 1.139-.99 1.879-2.199 4.788-1.374 6.75 1.374 3.087 7.213 7.203 7.213 7.203l-10.401 15.558 2.212 1.592Z" fill="#68D391" stroke="#263238" stroke-linecap="round" stroke-linejoin="round"/>
    <path d="M384.813 440.234c5.84-10.29 10.992-31.899 8.931-36.701-1.195-2.744-3.078-2.566-5.262-1.221 1.442 6.407 0 18.769-7.104 32.091-6.334 11.881-25.9 32.928-35.724 43.108a23.04 23.04 0 0 0 5.867 3.197c2.377.343 27.453-30.184 33.292-40.474Z" fill="#fff"/>
    <path d="m351.837 480.612.303-.151.082-.069c.166-.094.322-.204.467-.329l.165-.137.398-.33.22-.205.536-.494.33-.316.453-.439.385-.384.385-.384.975-1.029.165-.165.605-.658.247-.261a182.64 182.64 0 0 0 2.281-2.538v-.069l.852-.96-6.005-3.856a566.564 566.564 0 0 1-9.109 9.673l.92.604.138.082.852.535 1.374.782.384.22.385.205.44.22.288.137c.138.069.28.128.426.179l.206.082c.159.066.325.112.495.137a.524.524 0 0 0 .261 0l.096-.082Z" fill="#0F4C81"/>
    <path opacity=".5" d="m351.837 480.612.303-.151.082-.069c.166-.094.322-.204.467-.329l.165-.137.398-.33.22-.205.536-.494.33-.316.453-.439.385-.384.385-.384.975-1.029.165-.165.605-.658.247-.261a182.64 182.64 0 0 0 2.281-2.538v-.069l.852-.96-6.005-3.856a566.564 566.564 0 0 1-9.109 9.673l.92.604.138.082.852.535 1.374.782.384.22.385.205.44.22.288.137c.138.069.28.128.426.179l.206.082c.159.066.325.112.495.137a.524.524 0 0 0 .261 0l.096-.082Z" fill="#fff"/>
    <path d="M384.813 440.234c5.84-10.29 10.992-31.899 8.931-36.701-1.195-2.744-3.078-2.566-5.262-1.221 1.442 6.407 0 18.769-7.104 32.091-6.334 11.881-25.9 32.928-35.724 43.108a23.04 23.04 0 0 0 5.867 3.197c2.377.343 27.453-30.184 33.292-40.474Z" stroke="#263238" stroke-linecap="round" stroke-linejoin="round"/>
    <path d="M330.197 488.597c-10.305-6.517-21.984-24.696-22.328-30.87a9.748 9.748 0 0 1 .165-2.017 9.834 9.834 0 0 0-5.661 2.017 131.385 131.385 0 0 0-13.396-10.633 28.09 28.09 0 0 0-12.366-3.691c-4.988 4.116-9.618 7.409-10.347 10.208-1.374 5.145 7.901 25.725 30.228 40.131 22.328 14.406 29.885 12.005 36.411 10.633 6.527-1.372 7.599-9.261-2.706-15.778Z" fill="#68D391" stroke="#263238" stroke-linecap="round" stroke-linejoin="round"/>
    <path d="M330.197 488.597a44.847 44.847 0 0 1-9.151-8.232c-7.09-3.018-16.557-6.86-24.856-12.019-8.931-5.488-6.87-8.918-12.022-14.063-3.957-3.951-11.734-4.459-15.114-4.486a9.484 9.484 0 0 0-2.748 3.8c-1.374 5.145 7.9 25.725 30.228 40.131 22.327 14.406 29.884 12.005 36.411 10.633 6.526-1.372 7.557-9.247-2.748-15.764Z" fill="#fff"/>
    <path d="M330.197 488.597a44.847 44.847 0 0 1-9.151-8.232c-7.09-3.018-16.557-6.86-24.856-12.019-8.931-5.488-6.87-8.918-12.022-14.063-3.957-3.951-11.734-4.459-15.114-4.486a9.484 9.484 0 0 0-2.748 3.8c-1.374 5.145 7.9 25.725 30.228 40.131 22.327 14.406 29.884 12.005 36.411 10.633 6.526-1.372 7.557-9.247-2.748-15.764Z" fill="#0F4C81"/>
    <path opacity=".5" d="M330.197 488.597a44.847 44.847 0 0 1-9.151-8.232c-7.09-3.018-16.557-6.86-24.856-12.019-8.931-5.488-6.87-8.918-12.022-14.063-3.957-3.951-11.734-4.459-15.114-4.486a9.484 9.484 0 0 0-2.748 3.8c-1.374 5.145 7.9 25.725 30.228 40.131 22.327 14.406 29.884 12.005 36.411 10.633 6.526-1.372 7.557-9.247-2.748-15.764Z" fill="#fff"/>
    <path d="M330.197 488.597a44.847 44.847 0 0 1-9.151-8.232c-7.09-3.018-16.557-6.86-24.856-12.019-8.931-5.488-6.87-8.918-12.022-14.063-3.957-3.951-11.734-4.459-15.114-4.486a9.484 9.484 0 0 0-2.748 3.8c-1.374 5.145 7.9 25.725 30.228 40.131 22.327 14.406 29.884 12.005 36.411 10.633 6.526-1.372 7.557-9.247-2.748-15.764Z" stroke="#263238" stroke-linecap="round" stroke-linejoin="round"/>
    <path d="M331.914 490.998c-8.931-5.145-27.136-8.575-38.815-16.464-11.679-7.889-8.588-14.749-17.175-20.237a8.73 8.73 0 0 0-9.618-.549c-1.196 5.351 8.106 25.698 30.228 39.994 22.121 14.296 29.884 12.005 36.411 10.633 4.341-.919 6.224-4.706 3.984-9.055a18.714 18.714 0 0 0-5.015-4.322Z" fill="#68D391"/>
    <path opacity=".53" d="M331.914 490.998c-8.931-5.145-27.136-8.575-38.815-16.464-11.679-7.889-8.588-14.749-17.175-20.237a8.73 8.73 0 0 0-9.618-.549c-1.196 5.351 8.106 25.698 30.228 39.994 22.121 14.296 29.884 12.005 36.411 10.633 4.341-.919 6.224-4.706 3.984-9.055a18.714 18.714 0 0 0-5.015-4.322Z" fill="#fff"/>
    <path d="M331.914 490.998c-8.931-5.145-27.136-8.575-38.815-16.464-11.679-7.889-8.588-14.749-17.175-20.237a8.73 8.73 0 0 0-9.618-.549c-1.196 5.351 8.106 25.698 30.228 39.994 22.121 14.296 29.884 12.005 36.411 10.633 4.341-.919 6.224-4.706 3.984-9.055a18.714 18.714 0 0 0-5.015-4.322v0Z" stroke="#263238" stroke-linecap="round" stroke-linejoin="round"/>
    <path d="M160.741 425.389s6.596-7.999 7.53-1.88c.934 6.12-.467 17.397-5.18 21.623-4.713 4.226-7.063-2.346-7.063-2.346l2.831-3.759s2.349 4.706 4.232-2.827c1.882-7.532-3.765-6.585-3.765-6.585l1.415-4.226Z" fill="#fff" stroke="#263238" stroke-linecap="round" stroke-linejoin="round"/>
    <path d="M155.699 455.491c-3.902 2.881-16.626 2.881-20.514 0-8.244-6.106-6.87-35.604-6.87-35.604h34.157s1.484 29.498-6.773 35.604Z" fill="#fff" stroke="#263238" stroke-linecap="round" stroke-linejoin="round"/>
    <path d="M132.052 414.097c0-3.704 3.449-3.704 3.449-7.422 0-3.718-3.449-3.718-3.449-7.423 0-3.704 3.449-3.718 3.449-7.436s-3.449-3.718-3.449-7.436c0-3.719 3.449-3.719 3.449-7.437m8.354 37.154c0-2.744 3.448-2.744 3.448-5.638 0-2.895-3.448-2.813-3.448-5.639 0-2.827 3.448-2.813 3.448-5.639 0-2.827-3.448-2.827-3.448-5.653 0-2.826 3.448-2.813 3.448-5.639m9.536 28.208c0-3.704 3.435-3.704 3.435-7.422 0-3.718-3.435-3.718-3.435-7.423 0-3.704 3.435-3.718 3.435-7.436s-3.435-3.718-3.435-7.436c0-3.719 3.435-3.719 3.435-7.437" stroke="#263238" stroke-linecap="round" stroke-linejoin="round"/>
    <path d="M162.5 419.887c0 .865-7.639 1.551-17.079 1.551-9.439 0-17.079-.686-17.079-1.551 0-.864 7.64-1.55 17.079-1.55 9.44 0 17.079.686 17.079 1.55Z" fill="#fff" stroke="#263238" stroke-linecap="round" stroke-linejoin="round"/>
    <path d="M194.033 207.584s1.608 17.328 2.281 22.803c.673 5.474 2.198 21.197 3.779 26.397 1.58 5.2 10.195 14.241 10.992 12.156.796-2.086 5.083-16.231 3.38-24.696-1.704-8.465-2.226-15.696-1.168-17.836 1.058-2.141 4.864-4.542 4.864-4.542a138.073 138.073 0 0 1-12.902-7.504c-6.073-4.034-10.374-8.603-11.226-6.778Z" fill="#fff"/>
    <path d="m216.086 222.799-1.374-2.661c-2.528-1.372-6.046-3.403-9.384-5.639-6.115-4.116-10.415-8.74-11.267-6.86 0 0 1.607 17.328 2.281 22.802.673 5.475 2.198 21.198 3.778 26.397a17.723 17.723 0 0 0 2.212 4.281c-1.662-10.345.138-29.031.138-29.031l13.616-9.289Z" fill="#0F4C81"/>
    <path opacity=".5" d="m216.086 222.799-1.374-2.661c-2.528-1.372-6.046-3.403-9.384-5.639-6.115-4.116-10.415-8.74-11.267-6.86 0 0 1.607 17.328 2.281 22.802.673 5.475 2.198 21.198 3.778 26.397a17.723 17.723 0 0 0 2.212 4.281c-1.662-10.345.138-29.031.138-29.031l13.616-9.289Z" fill="#fff"/>
    <path d="M194.033 207.584s1.608 17.328 2.281 22.803c.673 5.474 2.198 21.197 3.779 26.397 1.58 5.2 10.195 14.241 10.992 12.156.796-2.086 5.083-16.231 3.38-24.696-1.704-8.465-2.226-15.696-1.168-17.836 1.058-2.141 4.864-4.542 4.864-4.542a138.073 138.073 0 0 1-12.902-7.504c-6.073-4.034-10.374-8.603-11.226-6.778Z" stroke="#263238" stroke-linecap="round" stroke-linejoin="round"/>
    <path d="M193.401 210.095s9.893 8.232 17.477 11.25c7.585 3.019 19.236 2.826 20.899-1.111 1.663-3.938-2.885-35.123-6.801-43.328-3.916-8.204-8.093-8.342-15.004-8.973-6.912-.631-20.734 4.994-23.166 11.662-2.432 6.668.344 16.107 2.35 21.705a41.113 41.113 0 0 0 4.245 8.795Z" fill="#fff"/>
    <path d="M211.167 209.724c-3.504-10.372-4.383-26.699-4.383-31.048 0-3.362 8.766-7.053 12.764-8.562-2.624-1.619-5.674-1.825-9.618-2.181-6.87-.618-20.733 4.994-23.165 11.662-2.432 6.668.343 16.107 2.349 21.705a41.132 41.132 0 0 0 4.246 8.794s9.893 8.232 17.477 11.251a31.528 31.528 0 0 0 16.488 1.578c-5.427-2.045-13.822-6.271-16.158-13.199Z" fill="#0F4C81"/>
    <path opacity=".5" d="M211.167 209.724c-3.504-10.372-4.383-26.699-4.383-31.048 0-3.362 8.766-7.053 12.764-8.562-2.624-1.619-5.674-1.825-9.618-2.181-6.87-.618-20.733 4.994-23.165 11.662-2.432 6.668.343 16.107 2.349 21.705a41.132 41.132 0 0 0 4.246 8.794s9.893 8.232 17.477 11.251a31.528 31.528 0 0 0 16.488 1.578c-5.427-2.045-13.822-6.271-16.158-13.199Z" fill="#fff"/>
    <path d="M193.401 210.095s9.893 8.232 17.477 11.25c7.585 3.019 19.236 2.826 20.899-1.111 1.663-3.938-2.885-35.123-6.801-43.328-3.916-8.204-8.093-8.342-15.004-8.973-6.912-.631-20.734 4.994-23.166 11.662-2.432 6.668.344 16.107 2.35 21.705a41.113 41.113 0 0 0 4.245 8.795v0Z" stroke="#263238" stroke-linecap="round" stroke-linejoin="round"/>
    <path d="M225.718 189.748c.165 3.951-2.322 7.258-5.496 7.381-3.174.124-5.95-2.963-6.101-6.86-.151-3.896 2.322-7.258 5.496-7.395 3.174-.137 5.95 2.881 6.101 6.874Zm7.777-1.537c.164 3.952-1.113 7.203-2.845 7.272-1.731.068-3.27-3.073-3.421-7.025-.151-3.951 1.127-7.216 2.858-7.285 1.731-.069 3.256 3.087 3.408 7.038Z" stroke="#263238" stroke-linecap="round" stroke-linejoin="round"/>
    <path d="M226.13 188.293s11.349 2.154 10.25 4.885c-1.099 2.73-8.766 5.68-8.766 5.68" fill="#fff"/>
    <path d="M226.13 188.293s11.349 2.154 10.25 4.885c-1.099 2.73-8.766 5.68-8.766 5.68m-2.185-11.854s.165-1.372 1.91-.508m-13.575 4.322-20.638 8.108" stroke="#263238" stroke-linecap="round" stroke-linejoin="round"/>
    <path d="M214.039 184.15a5.237 5.237 0 0 1 5.138-3.101m8.602.097-3.174 1.193" stroke="#263238" stroke-width="2" stroke-linecap="round" stroke-linejoin="round"/>
    <path d="M220.62 190.461c.193 1.372 0 2.552-.563 2.621-.563.068-1.058-.988-1.251-2.374-.192-1.386.069-2.538.578-2.607.508-.068 1.058.988 1.236 2.36Z" fill="#263238"/>
    <path d="M195.05 198.981s-1.374 2.744 2.501 2.882c3.874.137 6.513-1.743 4.63-4.116-1.882-2.374-4.671-4.597-1.8-7.697 2.872-3.101 8.45-5.708 5.318-9.165-3.133-3.458-14.661-.316-11.776-3.115 2.886-2.799 16.214-5.721 22.204-5.351 5.991.371 17.175-4.267 19.635-10.331 2.459-6.064-.976-17.273-9.027-16.67-8.052.604-14.056 7.725-17.629 8.232-3.572.508-10.896-3.457-17.037 0-6.142 3.458-6.348 13.391-6.87 14.612-.523 1.221-8.849 3.032-10.319 11.443a22.392 22.392 0 0 0 5.798 18.947c3.449 3.746 5.001 5.173 5.001 5.173l9.371-4.844Z" fill="#68D391" stroke="#263238" stroke-linecap="round" stroke-linejoin="round"/>
    <path d="M177.573 183.779a6.508 6.508 0 0 0 .879 3.65m34.144-25.368s-2.995-6.544 4.644-6.544c7.64 0 8.739 9.604.825 13.088-7.915 3.485-25.131 4.363-34.419 8.466a12.07 12.07 0 0 0-4.727 3.334m19.841 4.897c-2.748.988-6.307 2.36-9.92 4.034-7.654 3.553-6.019 7.093-6.019 7.093m21.036-12.814s-.673.192-1.813.562" stroke="#fff" stroke-width=".75" stroke-linecap="round" stroke-linejoin="round"/>
    <path d="M196.355 201.918s-4.438-6.394-9.109-3.828c-4.672 2.565-1.045 11.689 1.772 14.859 2.817 3.169 8.244-2.744 8.808-4.226" fill="#fff"/>
    <path d="M196.355 201.918s-4.438-6.394-9.109-3.828c-4.672 2.565-1.045 11.689 1.772 14.859 2.817 3.169 8.244-2.744 8.808-4.226" fill="#0F4C81"/>
    <path opacity=".5" d="M196.355 201.918s-4.438-6.394-9.109-3.828c-4.672 2.565-1.045 11.689 1.772 14.859 2.817 3.169 8.244-2.744 8.808-4.226" fill="#fff"/>
    <path d="M196.355 201.918s-4.438-6.394-9.109-3.828c-4.672 2.565-1.045 11.689 1.772 14.859 2.817 3.169 8.244-2.744 8.808-4.226" stroke="#263238" stroke-linecap="round" stroke-linejoin="round"/>
    <path d="M140.31 196.086H41.822c-3.886 0-7.035 3.145-7.035 7.025v71.893c0 3.88 3.15 7.025 7.035 7.025h98.488c3.885 0 7.035-3.145 7.035-7.025v-71.893c0-3.88-3.15-7.025-7.035-7.025Z" fill="#fff" stroke="#263238" stroke-linecap="round" stroke-linejoin="round"/>
    <path d="m145.201 257.909 65.952 17.15-65.952-32.242" fill="#fff"/>
    <path d="m145.201 257.909 65.952 17.15-65.952-32.242" stroke="#263238" stroke-linecap="round" stroke-linejoin="round"/>
    <path d="M70.36 204.346H43.882v69.423h26.476v-69.423Zm71.145 0h-3.311v69.423h3.311v-69.423Z" fill="#007A5E" stroke="#004231" stroke-linecap="round" stroke-linejoin="round"/>
    <path d="M141.505 236.08h-3.311v5.927h3.311v-5.927Z" fill="#68D391" stroke="#263238" stroke-linecap="round" stroke-linejoin="round"/>
    <path d="M78.645 205.992h52.143m-52.143 7.437h52.143m-52.143 7.449h52.143m-52.143 7.436h52.143m-52.143 18.18h52.143m-52.143 6.612h52.143m-52.143 6.614h52.143m-52.143 13.72h52.143m-86.905.315 26.49-69.409" stroke="#263238" stroke-linecap="round" stroke-linejoin="round"/>
    <path d="M442.933 465.876c12.696 0 22.987-4.607 22.987-10.29 0-5.683-10.291-10.29-22.987-10.29-12.695 0-22.987 4.607-22.987 10.29 0 5.683 10.292 10.29 22.987 10.29Z" fill="#0F4C81"/>
    <path opacity=".5" d="M442.933 465.876c12.696 0 22.987-4.607 22.987-10.29 0-5.683-10.291-10.29-22.987-10.29-12.695 0-22.987 4.607-22.987 10.29 0 5.683 10.292 10.29 22.987 10.29Z" fill="#fff"/>
    <path d="M416.044 303.322c2.46 1.07 8.478.933 8.478.933s-1.292-3.938-1.374-4.116c-1.374-2.744-5.496-7.313-8.89-6.86a4.13 4.13 0 0 0-2.736 1.83 4.107 4.107 0 0 0-.52 3.246c.508 2.305 2.94 4.048 5.042 4.967Z" fill="#263238"/>
    <path d="M494.857 282.866c-3.408-.357-7.461 4.294-8.711 7.093-.11.247-1.374 4.212-1.292 4.212h.069c-.646.727-1.374 1.523-2.048 2.401a75.353 75.353 0 0 0-4.314 5.625 70.59 70.59 0 0 0-4.465 7.107 52.696 52.696 0 0 0-3.82 8.589.25.25 0 0 0 0 .109v-4.033c-.399-3.019-2.94-8.658-6.32-9.275a4.122 4.122 0 0 0-4.672 3.814c-.192 2.401 1.553 4.816 3.256 6.339 1.924 1.715 7.255 3.375 7.681 3.498a74.146 74.146 0 0 0-2.253 9.303c-.33 1.838-.591 3.69-.852 5.556v-1.756c-.399-3.032-2.941-8.657-6.307-9.275a4.133 4.133 0 0 0-3.171.882 4.106 4.106 0 0 0-1.514 2.919c-.193 2.414 1.552 4.815 3.256 6.338 1.704 1.523 6.252 3.06 7.461 3.444-.083.714-.179 1.372-.275 2.14-.412 3.43-.797 6.86-1.291 10.222-.179 1.18-.385 2.332-.591 3.485v-1.51c-.399-3.032-2.941-8.657-6.321-9.288a4.124 4.124 0 0 0-4.671 3.814c-.193 2.415 1.552 4.816 3.256 6.339 1.704 1.523 5.812 2.909 7.241 3.361a85.763 85.763 0 0 1-.797 3.499c-.22.768-.385 1.523-.646 2.277-.261.755-.48 1.51-.728 2.25-.508 1.372-1.03 2.882-1.566 4.24-.371.96-.742 1.866-1.099 2.744.178-1.18.494-3.485.494-3.677a15.705 15.705 0 0 0-2.102-7.656 6.323 6.323 0 0 0 0-.892 4.106 4.106 0 0 0-1.732-2.792 4.14 4.14 0 0 0-1.548-.655 4.152 4.152 0 0 0-1.68.017c-3.311.879-5.414 6.682-5.579 9.728 0 .192.11 2.154.207 3.389l-.495-2.154a217.009 217.009 0 0 0-1.154-4.473c-.234-.755-.454-1.509-.687-2.264-.234-.754-.536-1.536-.797-2.319-.66-1.783-1.374-3.567-2.212-5.35 1.291-.302 5.825-1.455 7.653-2.854 1.827-1.399 3.737-3.663 3.71-6.078a4.036 4.036 0 0 0-4.37-4.116c-3.421.37-6.375 5.79-6.993 8.781 0 .192-.234 2.387-.33 3.594-.481-1.07-.962-2.126-1.484-3.196-1.525-3.06-3.16-6.106-4.781-9.165a107.32 107.32 0 0 1-1.471-2.813c.454-.096 5.881-1.372 7.915-2.922 1.813-1.372 3.737-3.664 3.723-6.078a4.102 4.102 0 0 0-1.298-3.007 4.129 4.129 0 0 0-3.085-1.109c-3.407.37-6.362 5.79-6.98 8.781 0 .219-.33 3.388-.371 4.198-1.072-2.072-2.116-4.116-3.078-6.215a71.716 71.716 0 0 1-3.338-8.616c.206 0 5.88-1.372 7.969-2.936 1.813-1.372 3.737-3.664 3.723-6.078a4.115 4.115 0 0 0-4.383-4.116c-3.407.37-6.361 5.789-6.98 8.78 0 .247-.357 3.65-.371 4.267 0-.178-.123-.343-.178-.521a51.784 51.784 0 0 1-1.732-9.11c-.192-1.688-.274-3.334-.329-4.926 1.085-.123 6.004-.782 8.051-2.016 2.048-1.235 4.122-3.225 4.37-5.639a4.127 4.127 0 0 0-.949-3.147 4.145 4.145 0 0 0-1.326-1.032 4.147 4.147 0 0 0-1.627-.418c-3.435 0-6.967 5.063-7.915 7.958 0 .165-.384 1.825-.618 3.046v-2.154c0-2.58.165-4.953.33-7.052.11-1.194.22-2.264.343-3.279.99-.673 4.947-3.472 6.17-5.488 1.222-2.017 2.17-4.761 1.277-6.998a4.032 4.032 0 0 0-2.275-2.394 4.042 4.042 0 0 0-3.303.103c-3.05 1.564-3.847 7.683-3.353 10.702 0 .26 1.196 4.253 1.251 4.226-.124.96-.261 2.003-.385 3.128-.206 2.099-.426 4.472-.481 7.079a73.05 73.05 0 0 0 .192 8.383 53.12 53.12 0 0 0 1.567 9.261.255.255 0 0 0 0 .11c-.536-.837-2.13-3.156-2.267-3.32-2.006-2.319-7.228-5.598-10.388-4.267a4.12 4.12 0 0 0-2.316 4.152 4.1 4.1 0 0 0 .516 1.596c1.168 2.127 3.957 3.17 6.225 3.499 2.541.37 7.914-1.18 8.34-1.303a72.785 72.785 0 0 0 3.256 8.986 122.38 122.38 0 0 0 2.363 5.104c-.494-.713-.934-1.372-1.003-1.372-2.006-2.305-7.241-5.598-10.387-4.267a4.118 4.118 0 0 0-1.8 5.763c1.168 2.112 3.957 3.169 6.21 3.498 2.254.329 6.87-.905 8.121-1.248.316.644.632 1.289.962 1.934 1.552 3.101 3.119 6.174 4.561 9.234a46.487 46.487 0 0 1 1.374 3.251 25.883 25.883 0 0 0-.865-1.248c-2.006-2.305-7.241-5.598-10.388-4.267a4.13 4.13 0 0 0-1.34 1.019 4.13 4.13 0 0 0-.982 3.144c.062.563.24 1.108.522 1.599 1.168 2.113 3.957 3.156 6.211 3.485 2.253.329 6.458-.782 7.9-1.18.44 1.125.893 2.25 1.264 3.362.248.754.536 1.468.729 2.25.192.782.425 1.523.645 2.277.344 1.468.715 2.977 1.031 4.404.22 1.002.412 1.949.604 2.909-.494-1.084-1.511-3.169-1.607-3.334-1.635-2.593-6.307-6.64-9.618-5.79a4.04 4.04 0 0 0-2.953 3.756c-.019.57.084 1.137.301 1.664.824 2.263 3.421 3.718 5.606 4.39 2.418.727 7.749 0 8.409 0 .316 1.592.618 3.142.865 4.61a196.89 196.89 0 0 1 1.8 12.348c0 .535.11 1.002.165 1.454h-10.319l3.312 64.621a9.239 9.239 0 0 0 2.872 6.226 9.26 9.26 0 0 0 12.745-.001 9.229 9.229 0 0 0 2.863-6.225l3.325-64.621h-9.618c.069-.151.138-.288.22-.439 1.374-2.744 3.146-6.695 5.125-11.511a192.88 192.88 0 0 0 1.896-4.857c.646.137 5.922 1.208 8.382.645 2.239-.494 4.932-1.756 5.935-3.951a4.107 4.107 0 0 0-.823-4.698 4.122 4.122 0 0 0-1.416-.914c-3.257-1.084-8.244 2.607-10.031 5.063-.11.137-1.085 1.852-1.69 2.936.248-.7.509-1.372.77-2.085.522-1.372.989-2.827 1.511-4.363.22-.741.454-1.496.673-2.264.22-.769.413-1.578.619-2.374a82.968 82.968 0 0 0 1.113-5.666c1.236.453 5.661 1.989 7.955 1.825 2.295-.165 5.139-1.002 6.458-3.019a4.114 4.114 0 0 0-1.374-5.872c-3.05-1.578-8.505 1.372-10.676 3.471-.137.137-1.525 1.866-2.267 2.827.192-1.167.371-2.319.522-3.485.426-3.403.742-6.86 1.072-10.29l.33-3.142c.439.164 5.66 2.099 8.244 1.921 2.28-.165 5.138-1.002 6.457-3.019a4.098 4.098 0 0 0 .595-3.235 4.103 4.103 0 0 0-1.969-2.637c-3.05-1.578-8.518 1.372-10.676 3.471-.165.165-2.157 2.648-2.624 3.307.234-2.319.508-4.624.866-6.86a72.317 72.317 0 0 1 1.964-9.042c.207.083 5.648 2.127 8.244 1.935 2.281-.151 5.139-.988 6.458-3.019a4.098 4.098 0 0 0 .595-3.235 4.126 4.126 0 0 0-1.969-2.637c-3.05-1.564-8.505 1.372-10.676 3.485-.165.165-2.308 2.84-2.652 3.348 0-.165.083-.357.138-.522a51.853 51.853 0 0 1 3.586-8.561c.769-1.523 1.608-2.936 2.446-4.28.975.48 5.496 2.647 7.831 2.744 2.336.096 5.208-.426 6.747-2.292a4.12 4.12 0 0 0 .96-3.15 4.115 4.115 0 0 0-1.661-2.845c-2.858-1.894-8.601.384-10.992 2.291-.124.11-1.374 1.372-2.198 2.195l1.154-1.825c1.443-2.154 2.885-4.033 4.122-5.693.742-.947 1.443-1.77 2.088-2.552 1.209 0 6.06-.165 8.176-1.153 2.116-.988 4.438-2.744 4.932-5.145a4.114 4.114 0 0 0-3.407-5.213Zm-37.744 91.43a209.148 209.148 0 0 1-5.317 11.277l-.742 1.468h-.234c-.069-.521-.137-1.097-.233-1.742a196.848 196.848 0 0 0-2.075-12.348c-.33-1.619-.701-3.348-1.099-5.104a48.442 48.442 0 0 0 4.699-2.195 29.02 29.02 0 0 0 6.87 4.39c-.66 1.441-1.264 2.895-1.869 4.254Z" fill="#263238"/>
    <path d="M476.899 304.639s1.085-3.993 1.126-4.253c.426-3.032-.549-9.124-3.627-10.62a4.134 4.134 0 0 0-4.637 1.008 4.103 4.103 0 0 0-.859 1.435c-.824 2.277.22 5.062 1.47 6.983 1.429 2.25 6.513 5.447 6.527 5.447Z" fill="#263238"/>
    <g clip-path="url(#a)">
        <path fill-rule="evenodd" clip-rule="evenodd" d="M87.258 232.351v7.387h2.72v1.274H85.81v-8.661h1.448Zm7.832 3.675v-.78h1.372v5.767H95.09v-.78a1.874 1.874 0 0 1-.787.68 2.33 2.33 0 0 1-1.026.248c-.446 0-.853-.08-1.222-.241a2.863 2.863 0 0 1-.95-.662 3.074 3.074 0 0 1-.838-2.129 3.084 3.084 0 0 1 .837-2.128 2.87 2.87 0 0 1 .951-.662c.37-.161.776-.241 1.222-.241.344 0 .686.082 1.026.247.34.166.602.392.787.681Zm-.126 2.809c.084-.226.127-.465.126-.705a1.99 1.99 0 0 0-.126-.706 1.71 1.71 0 0 0-.9-.978 1.688 1.688 0 0 0-.712-.148 1.647 1.647 0 0 0-1.247.545 1.695 1.695 0 0 0-.345.581 2.045 2.045 0 0 0-.12.705c0 .248.04.483.12.705a1.683 1.683 0 0 0 .887.978c.21.099.445.149.705.149a1.674 1.674 0 0 0 1.26-.545 1.78 1.78 0 0 0 .352-.581Zm2.581 2.177v-5.766h3.727v1.328h-2.355v4.439h-1.372v-.001Zm8.701-4.986v-.78h1.373v5.767h-1.373v-.78a1.87 1.87 0 0 1-.787.68c-.34.165-.682.248-1.026.248a3.02 3.02 0 0 1-1.221-.241 2.859 2.859 0 0 1-.951-.662 3.08 3.08 0 0 1-.837-2.129 3.084 3.084 0 0 1 .837-2.128c.267-.283.591-.508.951-.662a3.02 3.02 0 0 1 1.221-.241c.344 0 .686.082 1.026.247.34.166.603.392.787.681Zm-.126 2.809c.085-.226.127-.465.126-.705 0-.248-.042-.483-.126-.706a1.713 1.713 0 0 0-.9-.978 1.688 1.688 0 0 0-.711-.148 1.649 1.649 0 0 0-1.247.545 1.694 1.694 0 0 0-.346.581 2.069 2.069 0 0 0-.12.705c0 .248.04.483.12.705a1.677 1.677 0 0 0 1.593 1.127 1.673 1.673 0 0 0 1.259-.545c.154-.17.274-.367.352-.581Zm7.001-3.589h1.39l-2.252 5.767h-1.725l-2.253-5.767h1.39l1.725 4.416 1.725-4.416Zm4.384-.148c1.869 0 3.143 1.628 2.904 3.533h-4.553c0 .497.511 1.459 1.725 1.459 1.043 0 1.743-.903 1.743-.903l.928.705c-.829.869-1.508 1.269-2.571 1.269-1.9 0-3.187-1.181-3.187-3.031a3.01 3.01 0 0 1 3.011-3.032Zm-1.646 2.53h3.29c-.011-.111-.189-1.459-1.655-1.459s-1.624 1.348-1.635 1.459Zm5.444 3.384v-8.661h1.372v8.661h-1.372Z" fill="#FF2D20"/>
    </g>
    <defs>
        <clipPath id="a">
            <path fill="#fff" transform="translate(85.7 232.057)" d="M0 0h37.185v9.295H0z"/>
        </clipPath>
    </defs>
</svg>
