<svg version="1.1" id="Layer_1" xmlns="http://www.w3.org/2000/svg" x="0" y="0" viewBox="0 0 388 80" style="enable-background:new 0 0 388 80" xml:space="preserve"><style>.st0{fill:#eae4d3}.st14{fill:#fff}.st21{fill:#424242}</style><g id="notify"><ellipse id="Oval" class="st0" cx="66.2" cy="75.3" rx="6.2" ry="3.5"/><linearGradient id="Path_1_" gradientUnits="userSpaceOnUse" x1="61.92" y1="152.477" x2="61.92" y2="153.032" gradientTransform="matrix(13.2955 0 0 -4.4554 -756.716 753.97)"><stop offset="0" style="stop-color:#000"/><stop offset=".06" style="stop-color:#000"/><stop offset=".91" style="stop-color:#000"/></linearGradient><path id="Path" d="M63.1 75c1.7.3 3.5.5 5.2.6 1.4.1 2.7.1 4.1.2-.1-2.2-2.7-3.9-6-3.9-2.7 0-5 1.2-5.7 2.8.8.1 1.6.1 2.4.3z" style="opacity:.16;fill:url(#Path_1_);enable-background:new"/><linearGradient id="Shape_1_" gradientUnits="userSpaceOnUse" x1="64.09" y1="169.691" x2="64.481" y2="169.218" gradientTransform="matrix(69.1364 0 0 -82.8713 -4385.931 14081.99)"><stop offset=".02" style="stop-color:#ff718c"/><stop offset=".39" style="stop-color:#f76b86"/><stop offset=".95" style="stop-color:#e25a74"/><stop offset="1" style="stop-color:#e05872"/></linearGradient><path id="Shape" d="M96.6 65.9c-.3-.4-.7-.7-1.1-1.1-4.7-5.4-5.9-13.6-6.4-20.5-.5-7.3-.3-14.7-1.9-21.9C85.5 15 80.1 9.1 73 6.7c-.1-.7-.2-1.4-.4-2-.5-1.5-1.6-2.8-3-3.6-3-1.6-6.5-.5-8 2.5-.4.9-.7 1.8-.7 2.7-3.2.9-6.2 2.5-8.7 4.8-4.9 4.5-6.8 11.7-7.5 18.1-.6 5.5-.1 10.7-.3 16.2-.2 3.8-.7 7.9-1.8 11.6-.5 1.9-1.3 3.7-2.4 5.3-.9 1.4-2.3 2.4-3.2 3.8-.3.5-.6 1-.5 1.6.3 1.4 2.4 2.2 3.6 2.6 2.6.9 5.3 1.4 8 1.8 7.5 1.1 15.2 1.3 22.8 1.1 6.8-.1 13.9-.4 20.6-2.1 1.7-.4 4-1 5.2-2.3 1.1-1 .7-2-.1-2.9zm-33-60.1c.4-1.5 1.3-2.9 3-3 2.3-.2 3.1 1.4 3.4 3.2-2.1-.5-4.2-.5-6.4-.2z" style="fill:url(#Shape_1_)"/><linearGradient id="SVGID_1_" gradientUnits="userSpaceOnUse" x1="63.658" y1="169.499" x2="64.351" y2="168.899" gradientTransform="matrix(69.1364 0 0 -59.703 -4385.931 10143.376)"><stop offset="0" style="stop-color:#000"/><stop offset=".91" style="stop-color:#000"/></linearGradient><path d="M96.6 66c-.3-.4-.7-.7-1.1-1.1-3.1-3.4-4.2-7-5.2-11.6-.1-.5-.4-1.8-.4-2 0-.8-1.9-1-2.7-1.3-7.2-3.2-14.6-6-21.6-9.7-3.7-2-7.2-4.3-10.4-6.9-1.6-1.3-3.2-2.7-4.7-4.1-1.6-1.5-2.2-2.4-2.8-4.5-.2-.7-.4-1.3-.6-2-.1-.6-.2-1.5-.5-2-.5.2-.9 1.8-1 2.3-.3.9-.5 1.8-.6 2.7-.3 1.7-.5 3.5-.5 5.3-.3 4.2 0 5.5 0 7.5 0 2.5-.1 4.6-.2 7-.2 3.8-.7 7.9-1.8 11.6-.5 1.9-1.3 3.7-2.4 5.3-.9 1.4-2.3 2.4-3.2 3.8-.3.5-.6 1-.5 1.6.3 1.4 2.4 2.1 3.6 2.6 2.6.9 5.3 1.4 8.1 1.8 7.5 1.1 15.2 1.3 22.8 1.1 6.8-.1 13.9-.4 20.6-2.1 1.7-.4 4-1 5.2-2.3 1.1-1.2.7-2.2-.1-3z" style="opacity:.16;fill:url(#SVGID_1_);enable-background:new"/><path class="st0" d="M44.3 47s26.7 6 45.3.4c0 0-.2-1.5-.3-3.2 0 0-19 5.3-44.8-.7 0 0-.1 2.8-.1 3.1l-.1.4zM43.6 50.6s24.2 7.3 45.8.3c0 0 .4 2.6.9 4.5.6 1.9-25.5 9.4-47.6 0 0 0 .8-4.4.9-4.8z"/><g id="Group" style="opacity:.12"><g transform="translate(66.35 57.426)"><linearGradient id="SVGID_2_" gradientUnits="userSpaceOnUse" x1="-14.579" y1="100.517" x2="-13.698" y2="100.517" gradientTransform="matrix(3.4357 0 0 -6.5406 70.973 653.89)"><stop offset="0" style="stop-color:#000"/><stop offset=".91" style="stop-color:#000"/></linearGradient><path d="M23.9-2c-.6-1.8-.9-4.4-.9-4.4l-2.1.6L22-.7c1.3-.5 2-1 1.9-1.3z" style="fill:url(#SVGID_2_)"/></g><g transform="translate(59.21 59.01)"><linearGradient id="SVGID_3_" gradientUnits="userSpaceOnUse" x1="-3.567" y1="99.654" x2="-2.684" y2="99.654" gradientTransform="matrix(4.8417 0 0 -6.9208 39.026 686.124)"><stop offset="0" style="stop-color:#000"/><stop offset=".91" style="stop-color:#000"/></linearGradient><path d="M21.8-6 23-.5c1.1-.2 2.1-.5 3-.7l-1.2-5.4-3 .6z" style="fill:url(#SVGID_3_)"/></g><g transform="translate(52.272 60.198)"><linearGradient id="SVGID_4_" gradientUnits="userSpaceOnUse" x1="3.405" y1="98.442" x2="4.286" y2="98.442" gradientTransform="matrix(4.7662 0 0 -6.895 6.254 675.064)"><stop offset="0" style="stop-color:#000"/><stop offset=".91" style="stop-color:#000"/></linearGradient><path d="m22.5-6.4.7 5.8c1.2-.1 2.4-.3 3.5-.5l-1.2-5.6-3 .3z" style="fill:url(#SVGID_4_)"/></g><g transform="translate(36.97 60.594)"><linearGradient id="SVGID_5_" gradientUnits="userSpaceOnUse" x1="17.674" y1="98.26" x2="18.553" y2="98.26" gradientTransform="matrix(4.0806 0 0 -7.0178 -47.84 685.825)"><stop offset="0" style="stop-color:#000"/><stop offset=".91" style="stop-color:#000"/></linearGradient><path d="m25-6.8-.7 6c1.2.1 2.5.2 3.6.2v-6c-.9-.1-2-.2-2.9-.2z" style="fill:url(#SVGID_5_)"/></g><g transform="translate(15.955 57.03)"><linearGradient id="SVGID_6_" gradientUnits="userSpaceOnUse" x1="38.769" y1="100.638" x2="39.65" y2="100.638" gradientTransform="matrix(3.8603 0 0 -6.404 -122.827 640.964)"><stop offset="0" style="stop-color:#000"/><stop offset=".91" style="stop-color:#000"/></linearGradient><path d="M27.7-6.3c-.1.4-.9 4.7-.9 4.7.8.3 1.5.6 2.3.9l1.1-5c-1.6-.4-2.5-.6-2.5-.6z" style="fill:url(#SVGID_6_)"/></g><g transform="translate(29.217 59.802)"><linearGradient id="SVGID_7_" gradientUnits="userSpaceOnUse" x1="27.08" y1="99.235" x2="27.962" y2="99.235" gradientTransform="matrix(4.7927 0 0 -7.1366 -104.54 704.657)"><stop offset="0" style="stop-color:#000"/><stop offset=".91" style="stop-color:#000"/></linearGradient><path d="M26.5-6.7 25.2-1c1.2.2 2.4.4 3.5.5l.7-5.9c-1 0-1.9-.2-2.9-.3z" style="fill:url(#SVGID_7_)"/></g><g transform="translate(44.723 60.792)"><linearGradient id="SVGID_8_" gradientUnits="userSpaceOnUse" x1="10.912" y1="97.771" x2="11.793" y2="97.771" gradientTransform="matrix(4.6417 0 0 -6.8455 -27.3 665.459)"><stop offset="0" style="stop-color:#000"/><stop offset=".91" style="stop-color:#000"/></linearGradient><path d="M23.4-6.8v6c1.4 0 2.8-.1 4.1-.2l-.7-5.9c-1.2.1-2.4.1-3.4.1z" style="fill:url(#SVGID_8_)"/></g><g transform="translate(22.075 58.614)"><linearGradient id="SVGID_9_" gradientUnits="userSpaceOnUse" x1="34.478" y1="100.101" x2="35.36" y2="100.101" gradientTransform="matrix(4.8417 0 0 -6.9545 -140.793 692.648)"><stop offset="0" style="stop-color:#000"/><stop offset=".91" style="stop-color:#000"/></linearGradient><path d="m27.3-6.6-1.2 5.3c1 .3 2 .6 3 .8L30.4-6c-1.1-.2-2.2-.4-3.1-.6z" style="fill:url(#SVGID_9_)"/></g></g><linearGradient id="SVGID_10_" gradientUnits="userSpaceOnUse" x1="63.512" y1="167.619" x2="64.09" y2="167.34" gradientTransform="matrix(29.25 0 0 -29.4059 -1822.125 4939.416)"><stop offset="0" style="stop-color:#c7536a"/><stop offset="1" style="stop-color:#ca556c"/></linearGradient><ellipse cx="41.6" cy="13.3" rx="12.9" ry="13" style="fill:url(#SVGID_10_)"/><path class="st14" d="M40.4 21.2c0-1.1.7-2 1.6-2 1 0 1.6.8 1.6 2s-.6 2-1.6 2c-1-.1-1.6-.9-1.6-2zM43.5 3.6c-.1 0-.1-.1 0 0l-3-.1-.1.1v.1l.4 13.8c0 .1.1.1.1.1h2c.1 0 .1 0 .1-.1l.5-13.9z"/><linearGradient id="SVGID_11_" gradientUnits="userSpaceOnUse" x1="62.793" y1="166.648" x2="63.812" y2="166.417" gradientTransform="matrix(20.3864 0 0 -22.2772 -1250.42 3727.534)"><stop offset="0" style="stop-color:#000"/><stop offset=".91" style="stop-color:#000"/></linearGradient><path d="M44.7 23.7c-3.6-2.8-6.5-6.2-9.4-9.7-1.9-2.3-3.4-4.8-4.7-7.4-3 4.8-2.4 11 1.3 15.3s9.7 5.5 14.8 3.2c-.7-.5-1.4-1-2-1.4z" style="opacity:.16;fill:url(#SVGID_11_);enable-background:new"/><path class="st14" d="M71 76.5c-.4 0-.7-.2-.9-.5-.3-.7.6-1.5 1.3-.9.4.5.3 1.3-.4 1.4z"/><path d="M70.1 75.2c0-.1.1-.2.1-.2.1-.1.3-.1.4-.1.1 0 .1.1.2.2s0 .2 0 .3c-.1.1-.2.2-.3.2-.2 0-.3-.1-.4-.2v-.2z"/><path class="st14" d="M62.1 76.5c.4 0 .7-.2.9-.5.3-.7-.6-1.5-1.3-.9-.4.5-.3 1.3.4 1.4z"/><path d="M63 75.2c0-.1-.1-.2-.1-.2-.1-.1-.3-.1-.4-.1-.1 0-.1.1-.2.2v.3c.1.2.2.2.4.2s.3-.1.4-.2c-.1 0-.1-.1-.1-.2z"/><linearGradient id="SVGID_12_" gradientUnits="userSpaceOnUse" x1="42.045" y1="141.018" x2="42.909" y2="141.018" gradientTransform="matrix(1.7727 0 0 -2.6733 -16.16 455.455)"><stop offset="0" style="stop-color:#ec627c"/><stop offset=".51" style="stop-color:#c9546b"/><stop offset="1" style="stop-color:#c9546b"/></linearGradient><path d="M59.8 79.4c-.9-.5-1.4-1.2-1.3-2.1 0-.1-.1-.1-.1 0-.2.9.3 1.9 1.4 2.3.1.1.2-.1 0-.2z" style="fill:url(#SVGID_12_)"/><linearGradient id="SVGID_13_" gradientUnits="userSpaceOnUse" x1="19.93" y1="148.344" x2="20.791" y2="148.344" gradientTransform="matrix(.8864 0 0 -3.5644 38.352 606.05)"><stop offset="0" style="stop-color:#ef657f"/><stop offset=".497" style="stop-color:#ce586f"/><stop offset="1" style="stop-color:#a74558"/></linearGradient><path d="M56.8 78.7c-.5-.8-.7-1.8-.4-2.8 0-.2-.2-.3-.2-.1-.3 1.1-.1 2.3.5 3h.1v-.1z" style="fill:url(#SVGID_13_)"/><linearGradient id="SVGID_14_" gradientUnits="userSpaceOnUse" x1="18.038" y1="126.129" x2="17.177" y2="126.129" gradientTransform="matrix(.8864 0 0 -1.7822 58.739 301.298)"><stop offset="0" style="stop-color:#ee647f"/><stop offset=".49" style="stop-color:#bb495f"/><stop offset="1" style="stop-color:#a74558"/></linearGradient><path d="M74 77.1c.4-.3.7-.8.7-1.4h.1c.1.6-.2 1.3-.7 1.5-.1.1-.2 0-.1-.1z" style="fill:url(#SVGID_14_)"/><linearGradient id="SVGID_15_" gradientUnits="userSpaceOnUse" x1="17.919" y1="126.129" x2="17.058" y2="126.129" gradientTransform="matrix(.8864 0 0 -1.7822 59.625 301.298)"><stop offset="0" style="stop-color:#ee647f"/><stop offset=".49" style="stop-color:#bb495f"/><stop offset="1" style="stop-color:#a74558"/></linearGradient><path d="M74.8 77.2c.5-.4.7-.9.4-1.4 0-.1.2-.1.2-.1.3.6.1 1.2-.6 1.5 0 .1 0 .1 0 0-.1.1-.1.1 0 0z" style="fill:url(#SVGID_15_)"/></g><g style="enable-background:new"><path class="st21" d="M269.5 24.7v25.8h-3.4L252.6 30v20.5h-3.4V24.7h3.4l13.5 20.5V24.7h3.4zM285.2 50.9c-5.7 0-10.1-4.1-10.1-10.5S279.6 30 285.3 30c5.8 0 10.2 4 10.2 10.4.1 6.4-4.6 10.5-10.3 10.5zm0-3c3.5 0 7-2.4 7-7.5s-3.4-7.5-6.8-7.5c-3.6 0-6.8 2.4-6.8 7.5-.1 5.1 3.1 7.5 6.6 7.5zM301.9 33.1h-2.6v-2.8h2.6v-5.1h3.4v5.1h5.3v2.8h-5.3v12c0 2 .7 2.7 2.8 2.7h2.5v2.8h-3c-3.6 0-5.6-1.5-5.6-5.6V33.1zM315.1 24.7c0-1.3 1-2.3 2.3-2.3 1.2 0 2.2 1 2.2 2.3 0 1.3-1 2.3-2.2 2.3-1.3 0-2.3-1-2.3-2.3zm.6 5.6h3.4v20.3h-3.4V30.3zM326.5 33.1h-2.6v-2.8h2.6v-1.4c0-4.5 2.2-6.5 7.4-6.5v2.8c-3 0-4 1.1-4 3.7v1.4h4.3v2.8h-4.3v17.5h-3.4V33.1zM353.2 30.3h3.5l-12.2 29.8H341l4-9.8-8.2-20.1h3.7l6.4 16.4 6.3-16.3z"/></g><path d="M133.3 45.6h11.2v4.2H128V24.2h5.3v21.4zm24.9 4.2c-.3-.5-.4-1.1-.5-1.7-1.2 1.4-3 2.1-4.8 2-1.9 0-3.4-.5-4.6-1.6-1.2-1-1.9-2.5-1.8-4.1 0-2 .8-3.6 2.2-4.6 1.5-1.1 3.7-1.6 6.5-1.6h2.3v-1.1c0-.9-.2-1.6-.7-2.1-.4-.5-1.2-.8-2.1-.8-.8 0-1.5.2-2 .6-.5.4-.7 1-.7 1.7h-5.1c0-1.1.3-2.1 1-3.1s1.7-1.7 2.9-2.2c1.3-.6 2.8-.8 4.2-.8 2.3 0 4.2.6 5.6 1.8 1.4 1.2 2.1 2.8 2.1 5v8.2c0 1.8.3 3.2.8 4.1v.3h-5.3zm-4.2-3.5c.8 0 1.4-.2 2.1-.5.6-.3 1.1-.8 1.4-1.3v-3.3h-1.9c-2.5 0-3.9.9-4.1 2.6v.3c0 .6.2 1.2.7 1.6.5.4 1.2.7 1.8.6zm23.2-10.7c-.7-.1-1.3-.1-1.8-.1-1.9 0-3.2.7-3.8 2v12.4h-5.1v-19h4.8l.1 2.3c1-1.8 2.4-2.6 4.2-2.6.6 0 1.1.1 1.6.2v4.8zm12.9 14.2c-.3-.5-.4-1.1-.5-1.7-1.2 1.4-3 2.1-4.8 2-1.9 0-3.4-.5-4.6-1.6-1.2-1-1.9-2.5-1.8-4.1 0-2 .8-3.6 2.2-4.6 1.5-1.1 3.7-1.6 6.5-1.6h2.3v-1.1c0-.9-.2-1.6-.7-2.1-.4-.5-1.2-.8-2.1-.8-.9 0-1.5.2-2 .6-.5.4-.7 1-.7 1.7h-5.1c0-1.1.3-2.1 1-3.1s1.7-1.7 2.9-2.2c1.3-.5 2.7-.8 4.2-.8 2.4 0 4.2.6 5.6 1.8 1.4 1.2 2.1 2.8 2.1 5v8.2c0 1.8.3 3.2.8 4.1v.3h-5.3zm-4.2-3.5c.8 0 1.4-.2 2.1-.5.6-.3 1.1-.8 1.4-1.3v-3.3h-1.9c-2.5 0-3.9.9-4.1 2.6v.3c0 .6.2 1.2.7 1.6.5.4 1.2.7 1.8.6zm19.4-2.7 3.5-12.8h5.3l-6.4 19h-4.9l-6.4-19h5.3l3.6 12.8zm19.6 6.6c-2.8 0-5.1-.8-6.8-2.6-1.8-1.7-2.6-4-2.6-6.8v-.5c0-1.9.4-3.6 1.1-5.1.7-1.4 1.8-2.7 3.1-3.5 1.4-.8 3-1.2 4.6-1.2 2.6 0 4.6.8 6.1 2.5s2.2 4 2.2 7v2h-12.1c.1 1.1.6 2.2 1.5 3 .9.8 2 1.2 3.1 1.1 2 0 3.5-.7 4.6-2.1l2.5 2.8c-.8 1.1-1.9 2-3.1 2.5-1.2.6-2.6.9-4.2.9zm-.6-15.6c-1 0-1.8.3-2.5 1-.7.8-1.1 1.8-1.2 2.9h7.1v-.4c0-1.1-.3-2-.9-2.6-.6-.6-1.4-.9-2.5-.9zm16.6 15.2h-5.1v-27h5.1v27z" style="fill:#2e2e2e"/></svg>
