<svg width="200" height="26" viewBox="0 0 200 26" fill="none" xmlns="http://www.w3.org/2000/svg">
<mask id="path-1-inside-1_6594_3588" fill="white">
<path d="M10.8155 25.2174H0V0.739122H10.8155C12.4893 0.739122 14.0773 1.04348 15.5365 1.69565C16.9957 2.34782 18.2833 3.21739 19.3991 4.30434C20.515 5.3913 21.3734 6.69565 22.0172 8.21739C22.6609 9.69565 22.9614 11.3043 22.9614 12.9565C22.9614 14.6522 22.6609 16.2174 22.0172 17.7391C21.3734 19.2174 20.515 20.5217 19.3991 21.6522C18.2833 22.7391 16.9957 23.6087 15.5365 24.2609C14.0773 24.913 12.4893 25.2174 10.8155 25.2174ZM10.0429 6.73913H6.35193V19.3043H10.0429C10.9013 19.3043 11.7167 19.1304 12.4893 18.8261C13.2618 18.5217 13.9056 18.0435 14.4635 17.4782C15.0215 16.913 15.4506 16.2609 15.794 15.4783C16.0944 14.6957 16.2661 13.913 16.2661 13.0435C16.2661 12.1739 16.0944 11.3478 15.794 10.6087C15.4506 9.82608 15.0215 9.1739 14.4635 8.60869C13.9056 8.04347 13.2618 7.60869 12.4893 7.26086C11.7597 6.91303 10.9442 6.73913 10.0429 6.73913Z"/>
<path d="M37.0815 0.956513H31.3734L22.4464 25.1304H29.2704L34.2489 9.56521L39.1845 25.1304H46.0086L37.0815 0.956513Z"/>
<path d="M63.9056 25.2174L59.6996 17.6522H55.6223L55.6652 25.2174H49.0129V0.739122H61.1159C61.7167 0.739122 62.2747 0.869565 62.8755 1.08696C63.4764 1.30435 64.0773 1.6087 64.6352 1.95652C65.1931 2.30435 65.7082 2.73913 66.1803 3.21739C66.6524 3.69565 67.0815 4.1739 67.382 4.65216C67.8112 5.26086 68.1116 5.95652 68.3262 6.78261C68.5408 7.6087 68.6695 8.34782 68.6695 9.08695C68.6695 10.3043 68.3691 11.4348 67.8112 12.4782C67.2532 13.5217 66.4807 14.3913 65.4936 15.1304L71.1588 25.2174H63.9056ZM59.1845 6.21738H55.4077V11.4783H59.1845C59.5708 11.4783 59.9142 11.3913 60.2575 11.2609C60.6009 11.1304 60.9013 10.9565 61.1159 10.6957C61.3734 10.4348 61.5451 10.1739 61.7167 9.86955C61.8455 9.56521 61.9313 9.21738 61.9313 8.82608C61.9313 8.43477 61.8455 8.08695 61.7167 7.7826C61.588 7.47826 61.3734 7.17391 61.1159 6.95652C60.8584 6.69565 60.5579 6.52173 60.2575 6.39129C59.9142 6.30434 59.5708 6.21738 59.1845 6.21738Z"/>
<path d="M84.5923 12.3478L94.1631 25.2609H86.309L79.6996 17.0435V25.2609H73.0901V0.782603H79.6996V8.99999L86.309 0.782603H94.4635L84.5923 12.3478Z"/>
<path d="M116.18 26C114.378 26 112.747 25.6522 111.202 24.9565C109.657 24.2609 108.326 23.3478 107.167 22.1304C106.009 20.9565 105.107 19.5652 104.464 18C103.82 16.4348 103.476 14.7826 103.476 13C103.476 11.2174 103.82 9.56521 104.464 7.99999C105.107 6.43478 106.052 5.04347 107.167 3.86956C108.326 2.69565 109.657 1.73913 111.202 1.04348C112.747 0.347823 114.421 0 116.18 0C117.811 0 119.356 0.30435 120.858 0.913046C122.361 1.52174 123.734 2.39131 124.979 3.52174L120 7.99999C118.798 7.13043 117.511 6.69565 116.223 6.69565C115.365 6.69565 114.549 6.86957 113.777 7.21739C113.047 7.56522 112.403 7.99999 111.845 8.60869C111.288 9.21738 110.901 9.86956 110.558 10.6522C110.258 11.4348 110.086 12.2174 110.086 13.0435C110.086 13.913 110.258 14.7391 110.558 15.4783C110.858 16.2609 111.288 16.913 111.845 17.4782C112.403 18.0435 113.004 18.5217 113.777 18.8696C114.506 19.2174 115.322 19.3913 116.18 19.3913C117.167 19.3913 118.112 19.1739 118.97 18.6956C119.828 18.2174 120.601 17.5652 121.245 16.7391L126.395 20.9565C125.107 22.5652 123.605 23.7826 121.845 24.6522C120.043 25.5652 118.155 26 116.18 26Z"/>
<path d="M139.013 26C137.21 26 135.536 25.6522 133.991 25C132.446 24.3478 131.073 23.3913 129.914 22.2609C128.755 21.0869 127.854 19.7391 127.167 18.1304C126.481 16.5652 126.137 14.8696 126.137 13.087C126.137 11.3043 126.481 9.60869 127.167 8.04348C127.854 6.47826 128.755 5.08695 129.914 3.91304C131.073 2.73913 132.446 1.82609 133.991 1.13044C135.536 0.434785 137.21 0.0869485 139.013 0.0869485C140.773 0.0869485 142.446 0.434785 143.991 1.13044C145.579 1.82609 146.91 2.73913 148.069 3.91304C149.227 5.08695 150.129 6.43478 150.815 8.04348C151.502 9.60869 151.845 11.3043 151.845 13.087C151.845 14.8696 151.502 16.5652 150.815 18.1304C150.129 19.6956 149.227 21.0869 148.069 22.2609C146.91 23.4348 145.536 24.3478 143.991 25C142.446 25.6522 140.773 26 139.013 26ZM139.013 6.34783C138.112 6.34783 137.253 6.52173 136.481 6.91304C135.708 7.26086 135.021 7.7826 134.464 8.3913C133.906 8.99999 133.476 9.69564 133.133 10.5217C132.833 11.3478 132.661 12.1739 132.661 13.087C132.661 13.9565 132.833 14.8261 133.133 15.6522C133.433 16.4783 133.906 17.1739 134.464 17.7826C135.021 18.3913 135.708 18.8696 136.481 19.2609C137.253 19.6087 138.112 19.8261 139.013 19.8261C139.914 19.8261 140.773 19.6522 141.545 19.2609C142.318 18.913 143.004 18.3913 143.562 17.7826C144.12 17.1739 144.549 16.4783 144.893 15.6522C145.193 14.8261 145.365 14 145.365 13.087C145.365 12.1739 145.193 11.3478 144.893 10.5217C144.592 9.69564 144.12 8.99999 143.562 8.3913C143.004 7.7826 142.318 7.30434 141.545 6.91304C140.773 6.52173 139.957 6.34783 139.013 6.34783Z"/>
<path d="M165.794 25.2174H154.979V0.739122H165.794C167.468 0.739122 169.056 1.04348 170.515 1.69565C171.974 2.34782 173.262 3.21739 174.378 4.30434C175.494 5.3913 176.352 6.69565 176.996 8.21739C177.639 9.69565 177.94 11.3043 177.94 12.9565C177.94 14.6522 177.639 16.2174 176.996 17.7391C176.352 19.2174 175.494 20.5217 174.378 21.6522C173.262 22.7391 171.974 23.6087 170.515 24.2609C169.056 24.913 167.468 25.2174 165.794 25.2174ZM165.064 6.73913H161.373V19.3043H165.064C165.923 19.3043 166.738 19.1304 167.511 18.8261C168.283 18.5217 168.927 18.0435 169.485 17.4782C170.043 16.913 170.472 16.2609 170.815 15.4783C171.159 14.6957 171.288 13.913 171.288 13.0435C171.288 12.1739 171.116 11.3478 170.815 10.6087C170.515 9.82608 170.043 9.1739 169.485 8.60869C168.927 8.04347 168.283 7.60869 167.511 7.26086C166.738 6.91303 165.923 6.73913 165.064 6.73913Z"/>
<path d="M180.773 0.956513V6.65217H200V0.956513H180.773ZM180.773 10V16.0435H199.013V10H180.773ZM180.773 19.4348V25.1304H200V19.4348H180.773Z"/>
</mask>
<path d="M10.8155 25.2174H0V0.739122H10.8155C12.4893 0.739122 14.0773 1.04348 15.5365 1.69565C16.9957 2.34782 18.2833 3.21739 19.3991 4.30434C20.515 5.3913 21.3734 6.69565 22.0172 8.21739C22.6609 9.69565 22.9614 11.3043 22.9614 12.9565C22.9614 14.6522 22.6609 16.2174 22.0172 17.7391C21.3734 19.2174 20.515 20.5217 19.3991 21.6522C18.2833 22.7391 16.9957 23.6087 15.5365 24.2609C14.0773 24.913 12.4893 25.2174 10.8155 25.2174ZM10.0429 6.73913H6.35193V19.3043H10.0429C10.9013 19.3043 11.7167 19.1304 12.4893 18.8261C13.2618 18.5217 13.9056 18.0435 14.4635 17.4782C15.0215 16.913 15.4506 16.2609 15.794 15.4783C16.0944 14.6957 16.2661 13.913 16.2661 13.0435C16.2661 12.1739 16.0944 11.3478 15.794 10.6087C15.4506 9.82608 15.0215 9.1739 14.4635 8.60869C13.9056 8.04347 13.2618 7.60869 12.4893 7.26086C11.7597 6.91303 10.9442 6.73913 10.0429 6.73913Z" fill="black"/>
<path d="M37.0815 0.956513H31.3734L22.4464 25.1304H29.2704L34.2489 9.56521L39.1845 25.1304H46.0086L37.0815 0.956513Z" fill="black"/>
<path d="M63.9056 25.2174L59.6996 17.6522H55.6223L55.6652 25.2174H49.0129V0.739122H61.1159C61.7167 0.739122 62.2747 0.869565 62.8755 1.08696C63.4764 1.30435 64.0773 1.6087 64.6352 1.95652C65.1931 2.30435 65.7082 2.73913 66.1803 3.21739C66.6524 3.69565 67.0815 4.1739 67.382 4.65216C67.8112 5.26086 68.1116 5.95652 68.3262 6.78261C68.5408 7.6087 68.6695 8.34782 68.6695 9.08695C68.6695 10.3043 68.3691 11.4348 67.8112 12.4782C67.2532 13.5217 66.4807 14.3913 65.4936 15.1304L71.1588 25.2174H63.9056ZM59.1845 6.21738H55.4077V11.4783H59.1845C59.5708 11.4783 59.9142 11.3913 60.2575 11.2609C60.6009 11.1304 60.9013 10.9565 61.1159 10.6957C61.3734 10.4348 61.5451 10.1739 61.7167 9.86955C61.8455 9.56521 61.9313 9.21738 61.9313 8.82608C61.9313 8.43477 61.8455 8.08695 61.7167 7.7826C61.588 7.47826 61.3734 7.17391 61.1159 6.95652C60.8584 6.69565 60.5579 6.52173 60.2575 6.39129C59.9142 6.30434 59.5708 6.21738 59.1845 6.21738Z" fill="black"/>
<path d="M84.5923 12.3478L94.1631 25.2609H86.309L79.6996 17.0435V25.2609H73.0901V0.782603H79.6996V8.99999L86.309 0.782603H94.4635L84.5923 12.3478Z" fill="black"/>
<path d="M116.18 26C114.378 26 112.747 25.6522 111.202 24.9565C109.657 24.2609 108.326 23.3478 107.167 22.1304C106.009 20.9565 105.107 19.5652 104.464 18C103.82 16.4348 103.476 14.7826 103.476 13C103.476 11.2174 103.82 9.56521 104.464 7.99999C105.107 6.43478 106.052 5.04347 107.167 3.86956C108.326 2.69565 109.657 1.73913 111.202 1.04348C112.747 0.347823 114.421 0 116.18 0C117.811 0 119.356 0.30435 120.858 0.913046C122.361 1.52174 123.734 2.39131 124.979 3.52174L120 7.99999C118.798 7.13043 117.511 6.69565 116.223 6.69565C115.365 6.69565 114.549 6.86957 113.777 7.21739C113.047 7.56522 112.403 7.99999 111.845 8.60869C111.288 9.21738 110.901 9.86956 110.558 10.6522C110.258 11.4348 110.086 12.2174 110.086 13.0435C110.086 13.913 110.258 14.7391 110.558 15.4783C110.858 16.2609 111.288 16.913 111.845 17.4782C112.403 18.0435 113.004 18.5217 113.777 18.8696C114.506 19.2174 115.322 19.3913 116.18 19.3913C117.167 19.3913 118.112 19.1739 118.97 18.6956C119.828 18.2174 120.601 17.5652 121.245 16.7391L126.395 20.9565C125.107 22.5652 123.605 23.7826 121.845 24.6522C120.043 25.5652 118.155 26 116.18 26Z" fill="black"/>
<path d="M139.013 26C137.21 26 135.536 25.6522 133.991 25C132.446 24.3478 131.073 23.3913 129.914 22.2609C128.755 21.0869 127.854 19.7391 127.167 18.1304C126.481 16.5652 126.137 14.8696 126.137 13.087C126.137 11.3043 126.481 9.60869 127.167 8.04348C127.854 6.47826 128.755 5.08695 129.914 3.91304C131.073 2.73913 132.446 1.82609 133.991 1.13044C135.536 0.434785 137.21 0.0869485 139.013 0.0869485C140.773 0.0869485 142.446 0.434785 143.991 1.13044C145.579 1.82609 146.91 2.73913 148.069 3.91304C149.227 5.08695 150.129 6.43478 150.815 8.04348C151.502 9.60869 151.845 11.3043 151.845 13.087C151.845 14.8696 151.502 16.5652 150.815 18.1304C150.129 19.6956 149.227 21.0869 148.069 22.2609C146.91 23.4348 145.536 24.3478 143.991 25C142.446 25.6522 140.773 26 139.013 26ZM139.013 6.34783C138.112 6.34783 137.253 6.52173 136.481 6.91304C135.708 7.26086 135.021 7.7826 134.464 8.3913C133.906 8.99999 133.476 9.69564 133.133 10.5217C132.833 11.3478 132.661 12.1739 132.661 13.087C132.661 13.9565 132.833 14.8261 133.133 15.6522C133.433 16.4783 133.906 17.1739 134.464 17.7826C135.021 18.3913 135.708 18.8696 136.481 19.2609C137.253 19.6087 138.112 19.8261 139.013 19.8261C139.914 19.8261 140.773 19.6522 141.545 19.2609C142.318 18.913 143.004 18.3913 143.562 17.7826C144.12 17.1739 144.549 16.4783 144.893 15.6522C145.193 14.8261 145.365 14 145.365 13.087C145.365 12.1739 145.193 11.3478 144.893 10.5217C144.592 9.69564 144.12 8.99999 143.562 8.3913C143.004 7.7826 142.318 7.30434 141.545 6.91304C140.773 6.52173 139.957 6.34783 139.013 6.34783Z" fill="black"/>
<path d="M165.794 25.2174H154.979V0.739122H165.794C167.468 0.739122 169.056 1.04348 170.515 1.69565C171.974 2.34782 173.262 3.21739 174.378 4.30434C175.494 5.3913 176.352 6.69565 176.996 8.21739C177.639 9.69565 177.94 11.3043 177.94 12.9565C177.94 14.6522 177.639 16.2174 176.996 17.7391C176.352 19.2174 175.494 20.5217 174.378 21.6522C173.262 22.7391 171.974 23.6087 170.515 24.2609C169.056 24.913 167.468 25.2174 165.794 25.2174ZM165.064 6.73913H161.373V19.3043H165.064C165.923 19.3043 166.738 19.1304 167.511 18.8261C168.283 18.5217 168.927 18.0435 169.485 17.4782C170.043 16.913 170.472 16.2609 170.815 15.4783C171.159 14.6957 171.288 13.913 171.288 13.0435C171.288 12.1739 171.116 11.3478 170.815 10.6087C170.515 9.82608 170.043 9.1739 169.485 8.60869C168.927 8.04347 168.283 7.60869 167.511 7.26086C166.738 6.91303 165.923 6.73913 165.064 6.73913Z" fill="black"/>
<path d="M180.773 0.956513V6.65217H200V0.956513H180.773ZM180.773 10V16.0435H199.013V10H180.773ZM180.773 19.4348V25.1304H200V19.4348H180.773Z" fill="black"/>
<path d="M10.8155 25.2174H0V0.739122H10.8155C12.4893 0.739122 14.0773 1.04348 15.5365 1.69565C16.9957 2.34782 18.2833 3.21739 19.3991 4.30434C20.515 5.3913 21.3734 6.69565 22.0172 8.21739C22.6609 9.69565 22.9614 11.3043 22.9614 12.9565C22.9614 14.6522 22.6609 16.2174 22.0172 17.7391C21.3734 19.2174 20.515 20.5217 19.3991 21.6522C18.2833 22.7391 16.9957 23.6087 15.5365 24.2609C14.0773 24.913 12.4893 25.2174 10.8155 25.2174ZM10.0429 6.73913H6.35193V19.3043H10.0429C10.9013 19.3043 11.7167 19.1304 12.4893 18.8261C13.2618 18.5217 13.9056 18.0435 14.4635 17.4782C15.0215 16.913 15.4506 16.2609 15.794 15.4783C16.0944 14.6957 16.2661 13.913 16.2661 13.0435C16.2661 12.1739 16.0944 11.3478 15.794 10.6087C15.4506 9.82608 15.0215 9.1739 14.4635 8.60869C13.9056 8.04347 13.2618 7.60869 12.4893 7.26086C11.7597 6.91303 10.9442 6.73913 10.0429 6.73913Z" stroke="white" mask="url(#path-1-inside-1_6594_3588)"/>
<path d="M37.0815 0.956513H31.3734L22.4464 25.1304H29.2704L34.2489 9.56521L39.1845 25.1304H46.0086L37.0815 0.956513Z" stroke="white" mask="url(#path-1-inside-1_6594_3588)"/>
<path d="M63.9056 25.2174L59.6996 17.6522H55.6223L55.6652 25.2174H49.0129V0.739122H61.1159C61.7167 0.739122 62.2747 0.869565 62.8755 1.08696C63.4764 1.30435 64.0773 1.6087 64.6352 1.95652C65.1931 2.30435 65.7082 2.73913 66.1803 3.21739C66.6524 3.69565 67.0815 4.1739 67.382 4.65216C67.8112 5.26086 68.1116 5.95652 68.3262 6.78261C68.5408 7.6087 68.6695 8.34782 68.6695 9.08695C68.6695 10.3043 68.3691 11.4348 67.8112 12.4782C67.2532 13.5217 66.4807 14.3913 65.4936 15.1304L71.1588 25.2174H63.9056ZM59.1845 6.21738H55.4077V11.4783H59.1845C59.5708 11.4783 59.9142 11.3913 60.2575 11.2609C60.6009 11.1304 60.9013 10.9565 61.1159 10.6957C61.3734 10.4348 61.5451 10.1739 61.7167 9.86955C61.8455 9.56521 61.9313 9.21738 61.9313 8.82608C61.9313 8.43477 61.8455 8.08695 61.7167 7.7826C61.588 7.47826 61.3734 7.17391 61.1159 6.95652C60.8584 6.69565 60.5579 6.52173 60.2575 6.39129C59.9142 6.30434 59.5708 6.21738 59.1845 6.21738Z" stroke="white" mask="url(#path-1-inside-1_6594_3588)"/>
<path d="M84.5923 12.3478L94.1631 25.2609H86.309L79.6996 17.0435V25.2609H73.0901V0.782603H79.6996V8.99999L86.309 0.782603H94.4635L84.5923 12.3478Z" stroke="white" mask="url(#path-1-inside-1_6594_3588)"/>
<path d="M116.18 26C114.378 26 112.747 25.6522 111.202 24.9565C109.657 24.2609 108.326 23.3478 107.167 22.1304C106.009 20.9565 105.107 19.5652 104.464 18C103.82 16.4348 103.476 14.7826 103.476 13C103.476 11.2174 103.82 9.56521 104.464 7.99999C105.107 6.43478 106.052 5.04347 107.167 3.86956C108.326 2.69565 109.657 1.73913 111.202 1.04348C112.747 0.347823 114.421 0 116.18 0C117.811 0 119.356 0.30435 120.858 0.913046C122.361 1.52174 123.734 2.39131 124.979 3.52174L120 7.99999C118.798 7.13043 117.511 6.69565 116.223 6.69565C115.365 6.69565 114.549 6.86957 113.777 7.21739C113.047 7.56522 112.403 7.99999 111.845 8.60869C111.288 9.21738 110.901 9.86956 110.558 10.6522C110.258 11.4348 110.086 12.2174 110.086 13.0435C110.086 13.913 110.258 14.7391 110.558 15.4783C110.858 16.2609 111.288 16.913 111.845 17.4782C112.403 18.0435 113.004 18.5217 113.777 18.8696C114.506 19.2174 115.322 19.3913 116.18 19.3913C117.167 19.3913 118.112 19.1739 118.97 18.6956C119.828 18.2174 120.601 17.5652 121.245 16.7391L126.395 20.9565C125.107 22.5652 123.605 23.7826 121.845 24.6522C120.043 25.5652 118.155 26 116.18 26Z" stroke="white" mask="url(#path-1-inside-1_6594_3588)"/>
<path d="M139.013 26C137.21 26 135.536 25.6522 133.991 25C132.446 24.3478 131.073 23.3913 129.914 22.2609C128.755 21.0869 127.854 19.7391 127.167 18.1304C126.481 16.5652 126.137 14.8696 126.137 13.087C126.137 11.3043 126.481 9.60869 127.167 8.04348C127.854 6.47826 128.755 5.08695 129.914 3.91304C131.073 2.73913 132.446 1.82609 133.991 1.13044C135.536 0.434785 137.21 0.0869485 139.013 0.0869485C140.773 0.0869485 142.446 0.434785 143.991 1.13044C145.579 1.82609 146.91 2.73913 148.069 3.91304C149.227 5.08695 150.129 6.43478 150.815 8.04348C151.502 9.60869 151.845 11.3043 151.845 13.087C151.845 14.8696 151.502 16.5652 150.815 18.1304C150.129 19.6956 149.227 21.0869 148.069 22.2609C146.91 23.4348 145.536 24.3478 143.991 25C142.446 25.6522 140.773 26 139.013 26ZM139.013 6.34783C138.112 6.34783 137.253 6.52173 136.481 6.91304C135.708 7.26086 135.021 7.7826 134.464 8.3913C133.906 8.99999 133.476 9.69564 133.133 10.5217C132.833 11.3478 132.661 12.1739 132.661 13.087C132.661 13.9565 132.833 14.8261 133.133 15.6522C133.433 16.4783 133.906 17.1739 134.464 17.7826C135.021 18.3913 135.708 18.8696 136.481 19.2609C137.253 19.6087 138.112 19.8261 139.013 19.8261C139.914 19.8261 140.773 19.6522 141.545 19.2609C142.318 18.913 143.004 18.3913 143.562 17.7826C144.12 17.1739 144.549 16.4783 144.893 15.6522C145.193 14.8261 145.365 14 145.365 13.087C145.365 12.1739 145.193 11.3478 144.893 10.5217C144.592 9.69564 144.12 8.99999 143.562 8.3913C143.004 7.7826 142.318 7.30434 141.545 6.91304C140.773 6.52173 139.957 6.34783 139.013 6.34783Z" stroke="white" mask="url(#path-1-inside-1_6594_3588)"/>
<path d="M165.794 25.2174H154.979V0.739122H165.794C167.468 0.739122 169.056 1.04348 170.515 1.69565C171.974 2.34782 173.262 3.21739 174.378 4.30434C175.494 5.3913 176.352 6.69565 176.996 8.21739C177.639 9.69565 177.94 11.3043 177.94 12.9565C177.94 14.6522 177.639 16.2174 176.996 17.7391C176.352 19.2174 175.494 20.5217 174.378 21.6522C173.262 22.7391 171.974 23.6087 170.515 24.2609C169.056 24.913 167.468 25.2174 165.794 25.2174ZM165.064 6.73913H161.373V19.3043H165.064C165.923 19.3043 166.738 19.1304 167.511 18.8261C168.283 18.5217 168.927 18.0435 169.485 17.4782C170.043 16.913 170.472 16.2609 170.815 15.4783C171.159 14.6957 171.288 13.913 171.288 13.0435C171.288 12.1739 171.116 11.3478 170.815 10.6087C170.515 9.82608 170.043 9.1739 169.485 8.60869C168.927 8.04347 168.283 7.60869 167.511 7.26086C166.738 6.91303 165.923 6.73913 165.064 6.73913Z" stroke="white" mask="url(#path-1-inside-1_6594_3588)"/>
<path d="M180.773 0.956513V6.65217H200V0.956513H180.773ZM180.773 10V16.0435H199.013V10H180.773ZM180.773 19.4348V25.1304H200V19.4348H180.773Z" stroke="white" mask="url(#path-1-inside-1_6594_3588)"/>
</svg>
