<svg width="220" height="26" viewBox="0 0 220 26" fill="none" xmlns="http://www.w3.org/2000/svg">
<path d="M24.1964 23.8488C23.9014 24.3375 23.5083 24.7659 23.0397 25.1096C22.5711 25.4533 22.0361 25.7055 21.4654 25.8518C20.8946 25.9981 20.2992 26.0357 19.7132 25.9623C19.1272 25.889 18.5621 25.7062 18.0501 25.4243L2.2496 16.716C1.73793 16.4341 1.28945 16.0588 0.929772 15.6115C0.570094 15.1643 0.306258 14.6538 0.153329 14.1092C0.000400239 13.5646 -0.0386274 12.9967 0.0384748 12.4377C0.115577 11.8788 0.307299 11.3398 0.602694 10.8515C0.89809 10.3633 1.29137 9.93532 1.76009 9.5921C2.22881 9.24888 2.76378 8.99712 3.33446 8.85119C3.90514 8.70526 4.50036 8.66802 5.08612 8.74159C5.67189 8.81517 6.23673 8.99811 6.7484 9.27999L22.5501 17.985C23.0618 18.2668 23.5103 18.642 23.8699 19.0892C24.2296 19.5365 24.4934 20.0469 24.6463 20.5915C24.7992 21.136 24.8381 21.704 24.7609 22.2629C24.6838 22.8218 24.4919 23.3607 24.1964 23.8488V23.8488Z" fill="#2278BD"/>
<path d="M32.1162 2.14592C32.7127 1.16048 33.6947 0.441342 34.8466 0.146551C35.9984 -0.14824 37.2258 0.00544256 38.259 0.573821L54.0595 9.27881C54.5803 9.55614 55.0382 9.92951 55.4065 10.3772C55.7748 10.8249 56.0461 11.338 56.2048 11.8867C56.3634 12.4354 56.4061 13.0086 56.3304 13.5732C56.2548 14.1378 56.0623 14.6823 55.7641 15.1753C55.4659 15.6682 55.068 16.0997 54.5935 16.4445C54.119 16.7894 53.5774 17.0409 53.0002 17.1842C52.423 17.3276 51.8217 17.36 51.2312 17.2796C50.6407 17.1992 50.0729 17.0076 49.5607 16.7159L33.759 8.01092C32.7261 7.44101 31.9728 6.50294 31.6647 5.40305C31.3567 4.30316 31.5191 3.13155 32.1162 2.14592V2.14592Z" fill="#30A043"/>
<path d="M22.5501 8.01073L14.6016 12.3888L7.3015 8.36715C6.63791 8.00229 5.90324 7.77054 5.1425 7.6861L18.0501 0.573634C19.0829 0.0162831 20.3046 -0.129286 21.4493 0.168606C22.594 0.466497 23.5691 1.18374 24.1623 2.16425C24.7556 3.14476 24.9191 4.30918 24.6171 5.40411C24.3152 6.49904 23.5723 7.43588 22.5501 8.01073V8.01073Z" fill="#E43628"/>
<path d="M33.759 17.9852L41.7074 13.606L49.0076 17.6288C49.6711 17.9937 50.4058 18.2255 51.1666 18.3099L38.259 25.4246C37.2256 25.994 35.9975 26.1484 34.8449 25.8538C33.6922 25.5592 32.7094 24.8397 32.1127 23.8536C31.516 22.8676 31.3542 21.6957 31.6629 20.5958C31.9717 19.4959 32.7257 18.5581 33.759 17.9886V17.9852Z" fill="#F9BD00"/>
<mask id="path-5-inside-1_6594_3599" fill="white">
<path d="M133.656 2.79173H139.855C141.95 2.79173 143.779 3.20566 145.342 4.03352C146.867 4.82554 148.118 6.02363 148.942 7.48192C149.78 8.95375 150.199 10.6443 150.2 12.5535C150.2 14.4627 149.781 16.1532 148.942 17.6251C148.118 19.0836 146.867 20.2818 145.342 21.0735C143.78 21.9013 141.951 22.3149 139.855 22.3141H133.656V2.79173ZM139.855 20.1064C142.275 20.1064 144.189 19.4427 145.598 18.1154C147.008 16.7881 147.713 14.9342 147.713 12.5535C147.713 10.1721 147.008 8.3181 145.598 6.99156C144.189 5.66502 142.274 5.00137 139.855 5.00061H136.081V20.1064H139.855Z"/>
<path d="M156.056 21.8103C154.959 21.1917 154.065 20.295 153.471 19.22C152.844 18.0912 152.524 16.83 152.542 15.5525C152.524 14.275 152.844 13.0139 153.471 11.885C154.065 10.8105 154.96 9.91403 156.056 9.29478C157.19 8.66071 158.485 8.33563 159.799 8.35492C161.119 8.33643 162.419 8.66135 163.559 9.29478C164.661 9.91076 165.562 10.8078 166.159 11.885C166.786 13.0142 167.105 14.2752 167.087 15.5525C167.105 16.8299 166.786 18.0909 166.159 19.22C165.563 20.2977 164.662 21.1949 163.559 21.8103C162.419 22.4436 161.12 22.7689 159.801 22.7513C158.486 22.7706 157.19 22.4451 156.056 21.8103ZM162.199 20.0236C162.954 19.5947 163.571 18.9773 163.984 18.2381C164.431 17.4663 164.655 16.5711 164.656 15.5525C164.676 14.6172 164.445 13.6925 163.984 12.8669C163.57 12.128 162.953 11.5106 162.199 11.0814C161.474 10.6679 160.644 10.4509 159.799 10.4537C158.963 10.4534 158.143 10.6704 157.427 11.0814C156.673 11.5109 156.057 12.1282 155.643 12.8669C155.196 13.6403 154.972 14.5355 154.972 15.5525C154.972 16.5696 155.196 17.4648 155.643 18.2381C156.056 18.9771 156.673 19.5944 157.427 20.0236C158.143 20.4351 158.963 20.6522 159.799 20.6513C160.644 20.6547 161.474 20.4376 162.199 20.0236Z"/>
<path d="M171.5 21.3058C170.596 20.3418 170.143 19.0054 170.143 17.2967V8.79034H172.571V16.9108C172.571 19.4011 173.743 20.6463 176.086 20.6463C176.838 20.6551 177.573 20.4353 178.186 20.0186C178.804 19.6035 179.298 19.0406 179.618 18.3864C179.949 17.7222 180.119 16.9957 180.117 16.2604V8.79034H182.517V22.3138H180.232V20.2967H180.113C179.693 20.9869 179.059 21.5684 178.209 22.0414C177.384 22.5084 176.441 22.7536 175.481 22.7508C173.732 22.7508 172.405 22.2691 171.5 21.3058Z"/>
<path d="M188.33 22.1645C187.535 21.8027 186.862 21.2362 186.386 20.5288C185.918 19.824 185.675 19.0045 185.687 18.1701C185.687 16.7324 186.253 15.6147 187.387 14.8171C188.52 14.0195 189.972 13.6203 191.744 13.6196C192.544 13.6106 193.341 13.7022 194.116 13.892C194.7 14.0299 195.265 14.231 195.801 14.4913V13.783C195.811 13.1597 195.627 12.5476 195.273 12.0236C194.924 11.5094 194.435 11.0951 193.859 10.825C193.264 10.5422 192.608 10.3972 191.944 10.4016C190.325 10.4016 189.087 11.0289 188.23 12.2836L186.201 11.0021C186.788 10.1673 187.594 9.49413 188.539 9.0497C189.562 8.57534 190.688 8.33737 191.825 8.35503C193.768 8.35503 195.302 8.85485 196.425 9.85448C197.548 10.8541 198.11 12.1992 198.111 13.8897V22.3143H195.797V20.3245H195.678C195.205 21.0293 194.57 21.6214 193.821 22.0555C193.003 22.5285 192.062 22.7699 191.106 22.7513C190.146 22.7635 189.195 22.5626 188.33 22.1645ZM193.487 20.1338C194.169 19.7549 194.744 19.2212 195.159 18.5799C195.581 17.9439 195.804 17.2058 195.801 16.4527C194.734 15.7974 193.505 15.4701 192.114 15.4709C190.914 15.4709 189.956 15.7301 189.241 16.2484C188.526 16.7668 188.169 17.4255 188.171 18.2246C188.165 18.5729 188.247 18.9173 188.411 19.2284C188.575 19.5396 188.816 19.8082 189.113 20.0112C189.742 20.4746 190.518 20.7196 191.313 20.7059C192.078 20.7057 192.829 20.508 193.487 20.1338Z"/>
<path d="M202.001 2.79167H204.43V22.3152H202.001V2.79167Z"/>
<path d="M210.216 22.1645C209.422 21.8027 208.749 21.2361 208.274 20.5288C207.805 19.8243 207.561 19.0046 207.573 18.1701C207.573 16.7323 208.14 15.6147 209.274 14.8171C210.408 14.0195 211.86 13.6203 213.631 13.6196C214.431 13.6106 215.228 13.7022 216.003 13.892C216.587 14.0301 217.153 14.2312 217.689 14.4913V13.783C217.698 13.1595 217.514 12.5473 217.159 12.0236C216.811 11.5091 216.322 11.0948 215.745 10.825C215.151 10.5422 214.495 10.3972 213.831 10.4016C212.213 10.4016 210.974 11.0289 210.116 12.2836L208.088 11.002C208.675 10.1674 209.482 9.49429 210.427 9.04969C211.45 8.57548 212.576 8.33752 213.713 8.35501C215.655 8.35501 217.189 8.85483 218.313 9.85446C219.438 10.8541 220 12.1992 220 13.8897V22.3143H217.685V20.3245H217.566C217.093 21.0293 216.458 21.6214 215.708 22.0555C214.891 22.5287 213.949 22.77 212.994 22.7513C212.033 22.7634 211.082 22.5625 210.216 22.1645ZM215.374 20.1338C216.057 19.7552 216.631 19.2214 217.045 18.5799C217.469 17.9442 217.692 17.2059 217.689 16.4527C216.621 15.7974 215.392 15.4701 214.001 15.4709C212.801 15.4709 211.844 15.7301 211.13 16.2484C210.415 16.7668 210.058 17.4255 210.059 18.2246C210.053 18.573 210.136 18.9175 210.301 19.2286C210.465 19.5397 210.706 19.8083 211.002 20.0112C211.631 20.4746 212.407 20.7196 213.202 20.7059C213.967 20.7054 214.717 20.5077 215.374 20.1338Z"/>
<path d="M73.8687 21.6067C72.3167 20.7571 71.0302 19.5279 70.1419 18.0459C69.2195 16.5257 68.7429 14.7967 68.762 13.0402C68.7429 11.2837 69.2195 9.55461 70.1419 8.03442C71.0377 6.55071 72.33 5.32034 73.8868 4.46885C75.4437 3.61736 77.2095 3.17523 79.0039 3.18759C80.4077 3.17866 81.8001 3.42921 83.1042 3.9254C84.3156 4.37397 85.3986 5.08964 86.2648 6.01396L84.5816 7.61784C83.9412 6.86873 83.1154 6.28358 82.1787 5.91521C81.1829 5.51631 80.1124 5.31473 79.0324 5.32269C77.665 5.31472 76.3188 5.64603 75.126 6.28411C73.9221 6.92372 72.9207 7.86079 72.2271 8.99697C71.4975 10.1684 71.1328 11.5176 71.1328 13.0447C71.1328 14.5718 71.4964 15.9199 72.2236 17.089C72.9194 18.2278 73.9258 19.1653 75.1355 19.8019C76.3249 20.4368 77.666 20.768 79.0289 20.7633C80.354 20.7633 81.4642 20.5658 82.3595 20.1708C83.226 19.7938 84.0086 19.2617 84.6648 18.6032C85.1621 18.0829 85.5552 17.4801 85.8246 16.8245C86.1292 16.0874 86.3153 15.3105 86.3766 14.5203H79.061V12.4386H88.5582C88.646 12.8905 88.6921 13.349 88.6962 13.8086C88.6973 14.9595 88.5012 16.1029 88.1157 17.1934C87.7385 18.2776 87.1057 19.2647 86.2659 20.0788C84.442 21.9585 82.0233 22.898 79.0098 22.8973C77.2061 22.913 75.4308 22.4673 73.8687 21.6067Z"/>
<path d="M91.5926 3.61328H97.5522C99.5767 3.61328 101.344 4.01283 102.853 4.81194C104.326 5.57759 105.535 6.73544 106.331 8.14455C107.141 9.5672 107.547 11.2006 107.547 13.0447C107.547 14.8889 107.141 16.5223 106.331 17.9449C105.535 19.3543 104.326 20.5122 102.853 21.2775C101.344 22.0744 99.5767 22.4728 97.5522 22.4728H91.5926V3.61328ZM97.5522 20.3422C99.89 20.3422 101.744 19.7013 103.116 18.4194C104.487 17.1375 105.172 15.3459 105.172 13.0447C105.172 10.7443 104.487 8.95274 103.116 7.67009C101.744 6.38744 99.89 5.74649 97.5522 5.74725H93.9086V20.3422H97.5522Z"/>
<path d="M114.586 21.6068C113.036 20.7568 111.75 19.5277 110.863 18.0461C109.94 16.5261 109.463 14.7969 109.483 13.0403C109.464 11.2853 109.941 9.55779 110.863 8.03914C111.759 6.55543 113.051 5.32506 114.608 4.47357C116.165 3.62208 117.931 3.17996 119.725 3.19231C121.129 3.18339 122.521 3.43393 123.825 3.93012C125.035 4.37801 126.116 5.09206 126.981 6.01414L125.298 7.62143C124.658 6.87232 123.832 6.28717 122.895 5.91879C121.899 5.5199 120.829 5.31831 119.749 5.32628C118.381 5.31831 117.035 5.64961 115.842 6.2877C114.638 6.9273 113.637 7.86437 112.943 9.00056C112.216 10.1697 111.852 11.5178 111.853 13.0449C111.853 14.572 112.217 15.9201 112.943 17.0892C113.64 18.2285 114.648 19.166 115.859 19.8021C117.048 20.437 118.389 20.7681 119.752 20.7635C121.077 20.7635 122.188 20.566 123.083 20.171C123.945 19.7927 124.723 19.2606 125.375 18.6034C125.872 18.0831 126.266 17.4803 126.535 16.8247C126.84 16.0876 127.026 15.3107 127.087 14.5205H119.771V12.4387H129.269C129.356 12.8907 129.403 13.3491 129.407 13.8088C129.408 14.9597 129.212 16.1031 128.826 17.1936C128.449 18.2778 127.816 19.2649 126.976 20.079C125.152 21.9587 122.734 22.8982 119.72 22.8974C117.919 22.9119 116.146 22.4663 114.586 21.6068Z"/>
</mask>
<path d="M133.656 2.79173H139.855C141.95 2.79173 143.779 3.20566 145.342 4.03352C146.867 4.82554 148.118 6.02363 148.942 7.48192C149.78 8.95375 150.199 10.6443 150.2 12.5535C150.2 14.4627 149.781 16.1532 148.942 17.6251C148.118 19.0836 146.867 20.2818 145.342 21.0735C143.78 21.9013 141.951 22.3149 139.855 22.3141H133.656V2.79173ZM139.855 20.1064C142.275 20.1064 144.189 19.4427 145.598 18.1154C147.008 16.7881 147.713 14.9342 147.713 12.5535C147.713 10.1721 147.008 8.3181 145.598 6.99156C144.189 5.66502 142.274 5.00137 139.855 5.00061H136.081V20.1064H139.855Z" fill="#111827"/>
<path d="M156.056 21.8103C154.959 21.1917 154.065 20.295 153.471 19.22C152.844 18.0912 152.524 16.83 152.542 15.5525C152.524 14.275 152.844 13.0139 153.471 11.885C154.065 10.8105 154.96 9.91403 156.056 9.29478C157.19 8.66071 158.485 8.33563 159.799 8.35492C161.119 8.33643 162.419 8.66135 163.559 9.29478C164.661 9.91076 165.562 10.8078 166.159 11.885C166.786 13.0142 167.105 14.2752 167.087 15.5525C167.105 16.8299 166.786 18.0909 166.159 19.22C165.563 20.2977 164.662 21.1949 163.559 21.8103C162.419 22.4436 161.12 22.7689 159.801 22.7513C158.486 22.7706 157.19 22.4451 156.056 21.8103ZM162.199 20.0236C162.954 19.5947 163.571 18.9773 163.984 18.2381C164.431 17.4663 164.655 16.5711 164.656 15.5525C164.676 14.6172 164.445 13.6925 163.984 12.8669C163.57 12.128 162.953 11.5106 162.199 11.0814C161.474 10.6679 160.644 10.4509 159.799 10.4537C158.963 10.4534 158.143 10.6704 157.427 11.0814C156.673 11.5109 156.057 12.1282 155.643 12.8669C155.196 13.6403 154.972 14.5355 154.972 15.5525C154.972 16.5696 155.196 17.4648 155.643 18.2381C156.056 18.9771 156.673 19.5944 157.427 20.0236C158.143 20.4351 158.963 20.6522 159.799 20.6513C160.644 20.6547 161.474 20.4376 162.199 20.0236Z" fill="#111827"/>
<path d="M171.5 21.3058C170.596 20.3418 170.143 19.0054 170.143 17.2967V8.79034H172.571V16.9108C172.571 19.4011 173.743 20.6463 176.086 20.6463C176.838 20.6551 177.573 20.4353 178.186 20.0186C178.804 19.6035 179.298 19.0406 179.618 18.3864C179.949 17.7222 180.119 16.9957 180.117 16.2604V8.79034H182.517V22.3138H180.232V20.2967H180.113C179.693 20.9869 179.059 21.5684 178.209 22.0414C177.384 22.5084 176.441 22.7536 175.481 22.7508C173.732 22.7508 172.405 22.2691 171.5 21.3058Z" fill="#111827"/>
<path d="M188.33 22.1645C187.535 21.8027 186.862 21.2362 186.386 20.5288C185.918 19.824 185.675 19.0045 185.687 18.1701C185.687 16.7324 186.253 15.6147 187.387 14.8171C188.52 14.0195 189.972 13.6203 191.744 13.6196C192.544 13.6106 193.341 13.7022 194.116 13.892C194.7 14.0299 195.265 14.231 195.801 14.4913V13.783C195.811 13.1597 195.627 12.5476 195.273 12.0236C194.924 11.5094 194.435 11.0951 193.859 10.825C193.264 10.5422 192.608 10.3972 191.944 10.4016C190.325 10.4016 189.087 11.0289 188.23 12.2836L186.201 11.0021C186.788 10.1673 187.594 9.49413 188.539 9.0497C189.562 8.57534 190.688 8.33737 191.825 8.35503C193.768 8.35503 195.302 8.85485 196.425 9.85448C197.548 10.8541 198.11 12.1992 198.111 13.8897V22.3143H195.797V20.3245H195.678C195.205 21.0293 194.57 21.6214 193.821 22.0555C193.003 22.5285 192.062 22.7699 191.106 22.7513C190.146 22.7635 189.195 22.5626 188.33 22.1645ZM193.487 20.1338C194.169 19.7549 194.744 19.2212 195.159 18.5799C195.581 17.9439 195.804 17.2058 195.801 16.4527C194.734 15.7974 193.505 15.4701 192.114 15.4709C190.914 15.4709 189.956 15.7301 189.241 16.2484C188.526 16.7668 188.169 17.4255 188.171 18.2246C188.165 18.5729 188.247 18.9173 188.411 19.2284C188.575 19.5396 188.816 19.8082 189.113 20.0112C189.742 20.4746 190.518 20.7196 191.313 20.7059C192.078 20.7057 192.829 20.508 193.487 20.1338Z" fill="#111827"/>
<path d="M202.001 2.79167H204.43V22.3152H202.001V2.79167Z" fill="#111827"/>
<path d="M210.216 22.1645C209.422 21.8027 208.749 21.2361 208.274 20.5288C207.805 19.8243 207.561 19.0046 207.573 18.1701C207.573 16.7323 208.14 15.6147 209.274 14.8171C210.408 14.0195 211.86 13.6203 213.631 13.6196C214.431 13.6106 215.228 13.7022 216.003 13.892C216.587 14.0301 217.153 14.2312 217.689 14.4913V13.783C217.698 13.1595 217.514 12.5473 217.159 12.0236C216.811 11.5091 216.322 11.0948 215.745 10.825C215.151 10.5422 214.495 10.3972 213.831 10.4016C212.213 10.4016 210.974 11.0289 210.116 12.2836L208.088 11.002C208.675 10.1674 209.482 9.49429 210.427 9.04969C211.45 8.57548 212.576 8.33752 213.713 8.35501C215.655 8.35501 217.189 8.85483 218.313 9.85446C219.438 10.8541 220 12.1992 220 13.8897V22.3143H217.685V20.3245H217.566C217.093 21.0293 216.458 21.6214 215.708 22.0555C214.891 22.5287 213.949 22.77 212.994 22.7513C212.033 22.7634 211.082 22.5625 210.216 22.1645ZM215.374 20.1338C216.057 19.7552 216.631 19.2214 217.045 18.5799C217.469 17.9442 217.692 17.2059 217.689 16.4527C216.621 15.7974 215.392 15.4701 214.001 15.4709C212.801 15.4709 211.844 15.7301 211.13 16.2484C210.415 16.7668 210.058 17.4255 210.059 18.2246C210.053 18.573 210.136 18.9175 210.301 19.2286C210.465 19.5397 210.706 19.8083 211.002 20.0112C211.631 20.4746 212.407 20.7196 213.202 20.7059C213.967 20.7054 214.717 20.5077 215.374 20.1338Z" fill="#111827"/>
<path d="M73.8687 21.6067C72.3167 20.7571 71.0302 19.5279 70.1419 18.0459C69.2195 16.5257 68.7429 14.7967 68.762 13.0402C68.7429 11.2837 69.2195 9.55461 70.1419 8.03442C71.0377 6.55071 72.33 5.32034 73.8868 4.46885C75.4437 3.61736 77.2095 3.17523 79.0039 3.18759C80.4077 3.17866 81.8001 3.42921 83.1042 3.9254C84.3156 4.37397 85.3986 5.08964 86.2648 6.01396L84.5816 7.61784C83.9412 6.86873 83.1154 6.28358 82.1787 5.91521C81.1829 5.51631 80.1124 5.31473 79.0324 5.32269C77.665 5.31472 76.3188 5.64603 75.126 6.28411C73.9221 6.92372 72.9207 7.86079 72.2271 8.99697C71.4975 10.1684 71.1328 11.5176 71.1328 13.0447C71.1328 14.5718 71.4964 15.9199 72.2236 17.089C72.9194 18.2278 73.9258 19.1653 75.1355 19.8019C76.3249 20.4368 77.666 20.768 79.0289 20.7633C80.354 20.7633 81.4642 20.5658 82.3595 20.1708C83.226 19.7938 84.0086 19.2617 84.6648 18.6032C85.1621 18.0829 85.5552 17.4801 85.8246 16.8245C86.1292 16.0874 86.3153 15.3105 86.3766 14.5203H79.061V12.4386H88.5582C88.646 12.8905 88.6921 13.349 88.6962 13.8086C88.6973 14.9595 88.5012 16.1029 88.1157 17.1934C87.7385 18.2776 87.1057 19.2647 86.2659 20.0788C84.442 21.9585 82.0233 22.898 79.0098 22.8973C77.2061 22.913 75.4308 22.4673 73.8687 21.6067Z" fill="#111827"/>
<path d="M91.5926 3.61328H97.5522C99.5767 3.61328 101.344 4.01283 102.853 4.81194C104.326 5.57759 105.535 6.73544 106.331 8.14455C107.141 9.5672 107.547 11.2006 107.547 13.0447C107.547 14.8889 107.141 16.5223 106.331 17.9449C105.535 19.3543 104.326 20.5122 102.853 21.2775C101.344 22.0744 99.5767 22.4728 97.5522 22.4728H91.5926V3.61328ZM97.5522 20.3422C99.89 20.3422 101.744 19.7013 103.116 18.4194C104.487 17.1375 105.172 15.3459 105.172 13.0447C105.172 10.7443 104.487 8.95274 103.116 7.67009C101.744 6.38744 99.89 5.74649 97.5522 5.74725H93.9086V20.3422H97.5522Z" fill="#111827"/>
<path d="M114.586 21.6068C113.036 20.7568 111.75 19.5277 110.863 18.0461C109.94 16.5261 109.463 14.7969 109.483 13.0403C109.464 11.2853 109.941 9.55779 110.863 8.03914C111.759 6.55543 113.051 5.32506 114.608 4.47357C116.165 3.62208 117.931 3.17996 119.725 3.19231C121.129 3.18339 122.521 3.43393 123.825 3.93012C125.035 4.37801 126.116 5.09206 126.981 6.01414L125.298 7.62143C124.658 6.87232 123.832 6.28717 122.895 5.91879C121.899 5.5199 120.829 5.31831 119.749 5.32628C118.381 5.31831 117.035 5.64961 115.842 6.2877C114.638 6.9273 113.637 7.86437 112.943 9.00056C112.216 10.1697 111.852 11.5178 111.853 13.0449C111.853 14.572 112.217 15.9201 112.943 17.0892C113.64 18.2285 114.648 19.166 115.859 19.8021C117.048 20.437 118.389 20.7681 119.752 20.7635C121.077 20.7635 122.188 20.566 123.083 20.171C123.945 19.7927 124.723 19.2606 125.375 18.6034C125.872 18.0831 126.266 17.4803 126.535 16.8247C126.84 16.0876 127.026 15.3107 127.087 14.5205H119.771V12.4387H129.269C129.356 12.8907 129.403 13.3491 129.407 13.8088C129.408 14.9597 129.212 16.1031 128.826 17.1936C128.449 18.2778 127.816 19.2649 126.976 20.079C125.152 21.9587 122.734 22.8982 119.72 22.8974C117.919 22.9119 116.146 22.4663 114.586 21.6068Z" fill="#111827"/>
<path d="M133.656 2.79173H139.855C141.95 2.79173 143.779 3.20566 145.342 4.03352C146.867 4.82554 148.118 6.02363 148.942 7.48192C149.78 8.95375 150.199 10.6443 150.2 12.5535C150.2 14.4627 149.781 16.1532 148.942 17.6251C148.118 19.0836 146.867 20.2818 145.342 21.0735C143.78 21.9013 141.951 22.3149 139.855 22.3141H133.656V2.79173ZM139.855 20.1064C142.275 20.1064 144.189 19.4427 145.598 18.1154C147.008 16.7881 147.713 14.9342 147.713 12.5535C147.713 10.1721 147.008 8.3181 145.598 6.99156C144.189 5.66502 142.274 5.00137 139.855 5.00061H136.081V20.1064H139.855Z" stroke="white" stroke-width="0.8" mask="url(#path-5-inside-1_6594_3599)"/>
<path d="M156.056 21.8103C154.959 21.1917 154.065 20.295 153.471 19.22C152.844 18.0912 152.524 16.83 152.542 15.5525C152.524 14.275 152.844 13.0139 153.471 11.885C154.065 10.8105 154.96 9.91403 156.056 9.29478C157.19 8.66071 158.485 8.33563 159.799 8.35492C161.119 8.33643 162.419 8.66135 163.559 9.29478C164.661 9.91076 165.562 10.8078 166.159 11.885C166.786 13.0142 167.105 14.2752 167.087 15.5525C167.105 16.8299 166.786 18.0909 166.159 19.22C165.563 20.2977 164.662 21.1949 163.559 21.8103C162.419 22.4436 161.12 22.7689 159.801 22.7513C158.486 22.7706 157.19 22.4451 156.056 21.8103ZM162.199 20.0236C162.954 19.5947 163.571 18.9773 163.984 18.2381C164.431 17.4663 164.655 16.5711 164.656 15.5525C164.676 14.6172 164.445 13.6925 163.984 12.8669C163.57 12.128 162.953 11.5106 162.199 11.0814C161.474 10.6679 160.644 10.4509 159.799 10.4537C158.963 10.4534 158.143 10.6704 157.427 11.0814C156.673 11.5109 156.057 12.1282 155.643 12.8669C155.196 13.6403 154.972 14.5355 154.972 15.5525C154.972 16.5696 155.196 17.4648 155.643 18.2381C156.056 18.9771 156.673 19.5944 157.427 20.0236C158.143 20.4351 158.963 20.6522 159.799 20.6513C160.644 20.6547 161.474 20.4376 162.199 20.0236Z" stroke="white" stroke-width="0.8" mask="url(#path-5-inside-1_6594_3599)"/>
<path d="M171.5 21.3058C170.596 20.3418 170.143 19.0054 170.143 17.2967V8.79034H172.571V16.9108C172.571 19.4011 173.743 20.6463 176.086 20.6463C176.838 20.6551 177.573 20.4353 178.186 20.0186C178.804 19.6035 179.298 19.0406 179.618 18.3864C179.949 17.7222 180.119 16.9957 180.117 16.2604V8.79034H182.517V22.3138H180.232V20.2967H180.113C179.693 20.9869 179.059 21.5684 178.209 22.0414C177.384 22.5084 176.441 22.7536 175.481 22.7508C173.732 22.7508 172.405 22.2691 171.5 21.3058Z" stroke="white" stroke-width="0.8" mask="url(#path-5-inside-1_6594_3599)"/>
<path d="M188.33 22.1645C187.535 21.8027 186.862 21.2362 186.386 20.5288C185.918 19.824 185.675 19.0045 185.687 18.1701C185.687 16.7324 186.253 15.6147 187.387 14.8171C188.52 14.0195 189.972 13.6203 191.744 13.6196C192.544 13.6106 193.341 13.7022 194.116 13.892C194.7 14.0299 195.265 14.231 195.801 14.4913V13.783C195.811 13.1597 195.627 12.5476 195.273 12.0236C194.924 11.5094 194.435 11.0951 193.859 10.825C193.264 10.5422 192.608 10.3972 191.944 10.4016C190.325 10.4016 189.087 11.0289 188.23 12.2836L186.201 11.0021C186.788 10.1673 187.594 9.49413 188.539 9.0497C189.562 8.57534 190.688 8.33737 191.825 8.35503C193.768 8.35503 195.302 8.85485 196.425 9.85448C197.548 10.8541 198.11 12.1992 198.111 13.8897V22.3143H195.797V20.3245H195.678C195.205 21.0293 194.57 21.6214 193.821 22.0555C193.003 22.5285 192.062 22.7699 191.106 22.7513C190.146 22.7635 189.195 22.5626 188.33 22.1645ZM193.487 20.1338C194.169 19.7549 194.744 19.2212 195.159 18.5799C195.581 17.9439 195.804 17.2058 195.801 16.4527C194.734 15.7974 193.505 15.4701 192.114 15.4709C190.914 15.4709 189.956 15.7301 189.241 16.2484C188.526 16.7668 188.169 17.4255 188.171 18.2246C188.165 18.5729 188.247 18.9173 188.411 19.2284C188.575 19.5396 188.816 19.8082 189.113 20.0112C189.742 20.4746 190.518 20.7196 191.313 20.7059C192.078 20.7057 192.829 20.508 193.487 20.1338Z" stroke="white" stroke-width="0.8" mask="url(#path-5-inside-1_6594_3599)"/>
<path d="M202.001 2.79167H204.43V22.3152H202.001V2.79167Z" stroke="white" stroke-width="0.8" mask="url(#path-5-inside-1_6594_3599)"/>
<path d="M210.216 22.1645C209.422 21.8027 208.749 21.2361 208.274 20.5288C207.805 19.8243 207.561 19.0046 207.573 18.1701C207.573 16.7323 208.14 15.6147 209.274 14.8171C210.408 14.0195 211.86 13.6203 213.631 13.6196C214.431 13.6106 215.228 13.7022 216.003 13.892C216.587 14.0301 217.153 14.2312 217.689 14.4913V13.783C217.698 13.1595 217.514 12.5473 217.159 12.0236C216.811 11.5091 216.322 11.0948 215.745 10.825C215.151 10.5422 214.495 10.3972 213.831 10.4016C212.213 10.4016 210.974 11.0289 210.116 12.2836L208.088 11.002C208.675 10.1674 209.482 9.49429 210.427 9.04969C211.45 8.57548 212.576 8.33752 213.713 8.35501C215.655 8.35501 217.189 8.85483 218.313 9.85446C219.438 10.8541 220 12.1992 220 13.8897V22.3143H217.685V20.3245H217.566C217.093 21.0293 216.458 21.6214 215.708 22.0555C214.891 22.5287 213.949 22.77 212.994 22.7513C212.033 22.7634 211.082 22.5625 210.216 22.1645ZM215.374 20.1338C216.057 19.7552 216.631 19.2214 217.045 18.5799C217.469 17.9442 217.692 17.2059 217.689 16.4527C216.621 15.7974 215.392 15.4701 214.001 15.4709C212.801 15.4709 211.844 15.7301 211.13 16.2484C210.415 16.7668 210.058 17.4255 210.059 18.2246C210.053 18.573 210.136 18.9175 210.301 19.2286C210.465 19.5397 210.706 19.8083 211.002 20.0112C211.631 20.4746 212.407 20.7196 213.202 20.7059C213.967 20.7054 214.717 20.5077 215.374 20.1338Z" stroke="white" stroke-width="0.8" mask="url(#path-5-inside-1_6594_3599)"/>
<path d="M73.8687 21.6067C72.3167 20.7571 71.0302 19.5279 70.1419 18.0459C69.2195 16.5257 68.7429 14.7967 68.762 13.0402C68.7429 11.2837 69.2195 9.55461 70.1419 8.03442C71.0377 6.55071 72.33 5.32034 73.8868 4.46885C75.4437 3.61736 77.2095 3.17523 79.0039 3.18759C80.4077 3.17866 81.8001 3.42921 83.1042 3.9254C84.3156 4.37397 85.3986 5.08964 86.2648 6.01396L84.5816 7.61784C83.9412 6.86873 83.1154 6.28358 82.1787 5.91521C81.1829 5.51631 80.1124 5.31473 79.0324 5.32269C77.665 5.31472 76.3188 5.64603 75.126 6.28411C73.9221 6.92372 72.9207 7.86079 72.2271 8.99697C71.4975 10.1684 71.1328 11.5176 71.1328 13.0447C71.1328 14.5718 71.4964 15.9199 72.2236 17.089C72.9194 18.2278 73.9258 19.1653 75.1355 19.8019C76.3249 20.4368 77.666 20.768 79.0289 20.7633C80.354 20.7633 81.4642 20.5658 82.3595 20.1708C83.226 19.7938 84.0086 19.2617 84.6648 18.6032C85.1621 18.0829 85.5552 17.4801 85.8246 16.8245C86.1292 16.0874 86.3153 15.3105 86.3766 14.5203H79.061V12.4386H88.5582C88.646 12.8905 88.6921 13.349 88.6962 13.8086C88.6973 14.9595 88.5012 16.1029 88.1157 17.1934C87.7385 18.2776 87.1057 19.2647 86.2659 20.0788C84.442 21.9585 82.0233 22.898 79.0098 22.8973C77.2061 22.913 75.4308 22.4673 73.8687 21.6067Z" stroke="white" stroke-width="0.8" mask="url(#path-5-inside-1_6594_3599)"/>
<path d="M91.5926 3.61328H97.5522C99.5767 3.61328 101.344 4.01283 102.853 4.81194C104.326 5.57759 105.535 6.73544 106.331 8.14455C107.141 9.5672 107.547 11.2006 107.547 13.0447C107.547 14.8889 107.141 16.5223 106.331 17.9449C105.535 19.3543 104.326 20.5122 102.853 21.2775C101.344 22.0744 99.5767 22.4728 97.5522 22.4728H91.5926V3.61328ZM97.5522 20.3422C99.89 20.3422 101.744 19.7013 103.116 18.4194C104.487 17.1375 105.172 15.3459 105.172 13.0447C105.172 10.7443 104.487 8.95274 103.116 7.67009C101.744 6.38744 99.89 5.74649 97.5522 5.74725H93.9086V20.3422H97.5522Z" stroke="white" stroke-width="0.8" mask="url(#path-5-inside-1_6594_3599)"/>
<path d="M114.586 21.6068C113.036 20.7568 111.75 19.5277 110.863 18.0461C109.94 16.5261 109.463 14.7969 109.483 13.0403C109.464 11.2853 109.941 9.55779 110.863 8.03914C111.759 6.55543 113.051 5.32506 114.608 4.47357C116.165 3.62208 117.931 3.17996 119.725 3.19231C121.129 3.18339 122.521 3.43393 123.825 3.93012C125.035 4.37801 126.116 5.09206 126.981 6.01414L125.298 7.62143C124.658 6.87232 123.832 6.28717 122.895 5.91879C121.899 5.5199 120.829 5.31831 119.749 5.32628C118.381 5.31831 117.035 5.64961 115.842 6.2877C114.638 6.9273 113.637 7.86437 112.943 9.00056C112.216 10.1697 111.852 11.5178 111.853 13.0449C111.853 14.572 112.217 15.9201 112.943 17.0892C113.64 18.2285 114.648 19.166 115.859 19.8021C117.048 20.437 118.389 20.7681 119.752 20.7635C121.077 20.7635 122.188 20.566 123.083 20.171C123.945 19.7927 124.723 19.2606 125.375 18.6034C125.872 18.0831 126.266 17.4803 126.535 16.8247C126.84 16.0876 127.026 15.3107 127.087 14.5205H119.771V12.4387H129.269C129.356 12.8907 129.403 13.3491 129.407 13.8088C129.408 14.9597 129.212 16.1031 128.826 17.1936C128.449 18.2778 127.816 19.2649 126.976 20.079C125.152 21.9587 122.734 22.8982 119.72 22.8974C117.919 22.9119 116.146 22.4663 114.586 21.6068Z" stroke="white" stroke-width="0.8" mask="url(#path-5-inside-1_6594_3599)"/>
</svg>
