<svg width="255" height="46" viewBox="0 0 255 46" fill="none" xmlns="http://www.w3.org/2000/svg">
<mask id="path-1-inside-1_6594_3590" fill="white">
<path d="M35.0469 34.4212L36.6347 13.7013H38.4785L36.942 32.8313H47.6465L47.5441 34.4212H35.0469V34.4212ZM63.3192 19.8557L62.1924 34.4212H60.451L60.6558 31.9082C60.1949 32.78 59.529 33.4468 58.6071 33.9083C57.6852 34.3699 56.7121 34.6264 55.6877 34.6264C54.4585 34.6264 53.3829 34.3186 52.4098 33.7545C51.4878 33.1903 50.7708 32.3697 50.2586 31.2927C49.7464 30.2157 49.4903 28.9848 49.4903 27.5488C49.4903 25.9589 49.7464 24.5228 50.3098 23.2919C50.8732 22.061 51.6927 21.1379 52.7171 20.4711C53.7414 19.8044 54.9194 19.4454 56.3023 19.4454C57.4803 19.4454 58.5559 19.7018 59.4266 20.2147C60.2973 20.7276 60.9631 21.4969 61.3729 22.4201L61.5778 19.7531H63.3192V19.8557ZM59.7339 31.344C60.6558 30.1644 61.0656 28.5232 61.0656 26.4717C61.0656 24.728 60.6558 23.3432 59.8363 22.4201C59.0169 21.4969 57.8389 21.0353 56.3535 21.0353C54.7658 21.0353 53.5366 21.5995 52.6658 22.7791C51.7951 23.9587 51.3342 25.5999 51.3342 27.6513C51.3342 29.3951 51.7439 30.7286 52.5634 31.6517C53.3829 32.6262 54.5609 33.0878 56.0462 33.0878C57.5828 33.0878 58.812 32.5236 59.7339 31.344V31.344ZM75.0993 19.6506L74.9456 21.2405C74.5871 21.1379 74.1261 21.1379 73.614 21.1379C72.1286 21.1379 70.9506 21.5995 70.1824 22.5739C69.3629 23.5484 68.9531 24.6254 68.8507 25.9589L68.1337 34.5238H66.341L67.1605 24.01C67.2629 22.7278 67.2629 21.7533 67.2629 21.0866C67.2629 20.5737 67.2629 20.2147 67.2117 19.9583H68.8507L68.9019 22.3688C69.3629 21.4969 70.0287 20.8302 70.8994 20.3686C71.7701 19.907 72.692 19.6506 73.7164 19.6506C74.3822 19.4967 74.792 19.548 75.0993 19.6506V19.6506ZM89.2354 19.8557L88.0574 34.4212H86.316L86.5209 31.9082C86.0599 32.78 85.3941 33.4468 84.4721 33.9083C83.5502 34.3699 82.5771 34.6264 81.5527 34.6264C80.3235 34.6264 79.2479 34.3186 78.2748 33.7545C77.3529 33.1903 76.6358 32.3697 76.1236 31.2927C75.6115 30.2157 75.3554 28.9848 75.3554 27.5488C75.3554 25.9589 75.6114 24.5228 76.1748 23.2919C76.7382 22.061 77.5577 21.1379 78.5821 20.4711C79.6064 19.8044 80.7845 19.4454 82.1673 19.4454C83.3454 19.4454 84.4209 19.7018 85.2916 20.2147C86.1623 20.7276 86.8282 21.4969 87.2379 22.4201L87.4428 19.7531H89.2354V19.8557ZM85.5989 31.344C86.5209 30.1644 86.9306 28.5232 86.9306 26.4717C86.9306 24.728 86.5209 23.3432 85.7014 22.4201C84.8819 21.4969 83.7039 21.0353 82.2186 21.0353C80.6308 21.0353 79.4016 21.5995 78.5309 22.7791C77.6602 23.9587 77.1992 25.5999 77.1992 27.6513C77.1992 29.3951 77.609 30.7286 78.4284 31.6517C79.2479 32.6262 80.4259 33.0878 81.9113 33.0878C83.499 33.0878 84.7282 32.5236 85.5989 31.344V31.344ZM103.986 19.8557H105.83L98.4546 34.4212H96.6108L91.5402 19.8557H93.3328L97.6351 32.6775L103.986 19.8557ZM108.391 26.9333C108.391 27.0872 108.34 27.3436 108.34 27.7026C108.34 29.3951 108.749 30.7286 109.62 31.6517C110.44 32.6262 111.669 33.0878 113.257 33.0878C114.127 33.0878 114.998 32.9339 115.869 32.6262C116.739 32.3185 117.508 31.9082 118.173 31.2927L118.737 32.6262C118.173 33.1903 117.354 33.7032 116.33 34.0622C115.305 34.4212 114.23 34.5751 113.205 34.5751C111.105 34.5751 109.466 33.9596 108.288 32.6775C107.11 31.3953 106.496 29.7028 106.496 27.5488C106.496 25.9589 106.803 24.5228 107.367 23.2919C107.93 22.061 108.801 21.1379 109.876 20.4199C110.952 19.7531 112.232 19.3941 113.666 19.3941C115.51 19.3941 116.944 19.907 117.969 20.984C119.044 22.0098 119.556 23.5484 119.556 25.4973C119.556 25.9076 119.505 26.3692 119.454 26.8307H108.391V26.9333ZM110.337 22.1636C109.466 22.9842 108.852 24.1125 108.545 25.5999H117.969C118.02 24.1125 117.661 22.9842 116.893 22.1636C116.125 21.343 115.1 20.9327 113.82 20.9327C112.335 20.9327 111.208 21.343 110.337 22.1636V22.1636ZM122.117 34.4212L123.859 13.0345H125.651L123.91 34.4212H122.117Z"/>
</mask>
<path d="M35.0469 34.4212L36.6347 13.7013H38.4785L36.942 32.8313H47.6465L47.5441 34.4212H35.0469V34.4212ZM63.3192 19.8557L62.1924 34.4212H60.451L60.6558 31.9082C60.1949 32.78 59.529 33.4468 58.6071 33.9083C57.6852 34.3699 56.7121 34.6264 55.6877 34.6264C54.4585 34.6264 53.3829 34.3186 52.4098 33.7545C51.4878 33.1903 50.7708 32.3697 50.2586 31.2927C49.7464 30.2157 49.4903 28.9848 49.4903 27.5488C49.4903 25.9589 49.7464 24.5228 50.3098 23.2919C50.8732 22.061 51.6927 21.1379 52.7171 20.4711C53.7414 19.8044 54.9194 19.4454 56.3023 19.4454C57.4803 19.4454 58.5559 19.7018 59.4266 20.2147C60.2973 20.7276 60.9631 21.4969 61.3729 22.4201L61.5778 19.7531H63.3192V19.8557ZM59.7339 31.344C60.6558 30.1644 61.0656 28.5232 61.0656 26.4717C61.0656 24.728 60.6558 23.3432 59.8363 22.4201C59.0169 21.4969 57.8389 21.0353 56.3535 21.0353C54.7658 21.0353 53.5366 21.5995 52.6658 22.7791C51.7951 23.9587 51.3342 25.5999 51.3342 27.6513C51.3342 29.3951 51.7439 30.7286 52.5634 31.6517C53.3829 32.6262 54.5609 33.0878 56.0462 33.0878C57.5828 33.0878 58.812 32.5236 59.7339 31.344V31.344ZM75.0993 19.6506L74.9456 21.2405C74.5871 21.1379 74.1261 21.1379 73.614 21.1379C72.1286 21.1379 70.9506 21.5995 70.1824 22.5739C69.3629 23.5484 68.9531 24.6254 68.8507 25.9589L68.1337 34.5238H66.341L67.1605 24.01C67.2629 22.7278 67.2629 21.7533 67.2629 21.0866C67.2629 20.5737 67.2629 20.2147 67.2117 19.9583H68.8507L68.9019 22.3688C69.3629 21.4969 70.0287 20.8302 70.8994 20.3686C71.7701 19.907 72.692 19.6506 73.7164 19.6506C74.3822 19.4967 74.792 19.548 75.0993 19.6506V19.6506ZM89.2354 19.8557L88.0574 34.4212H86.316L86.5209 31.9082C86.0599 32.78 85.3941 33.4468 84.4721 33.9083C83.5502 34.3699 82.5771 34.6264 81.5527 34.6264C80.3235 34.6264 79.2479 34.3186 78.2748 33.7545C77.3529 33.1903 76.6358 32.3697 76.1236 31.2927C75.6115 30.2157 75.3554 28.9848 75.3554 27.5488C75.3554 25.9589 75.6114 24.5228 76.1748 23.2919C76.7382 22.061 77.5577 21.1379 78.5821 20.4711C79.6064 19.8044 80.7845 19.4454 82.1673 19.4454C83.3454 19.4454 84.4209 19.7018 85.2916 20.2147C86.1623 20.7276 86.8282 21.4969 87.2379 22.4201L87.4428 19.7531H89.2354V19.8557ZM85.5989 31.344C86.5209 30.1644 86.9306 28.5232 86.9306 26.4717C86.9306 24.728 86.5209 23.3432 85.7014 22.4201C84.8819 21.4969 83.7039 21.0353 82.2186 21.0353C80.6308 21.0353 79.4016 21.5995 78.5309 22.7791C77.6602 23.9587 77.1992 25.5999 77.1992 27.6513C77.1992 29.3951 77.609 30.7286 78.4284 31.6517C79.2479 32.6262 80.4259 33.0878 81.9113 33.0878C83.499 33.0878 84.7282 32.5236 85.5989 31.344V31.344ZM103.986 19.8557H105.83L98.4546 34.4212H96.6108L91.5402 19.8557H93.3328L97.6351 32.6775L103.986 19.8557ZM108.391 26.9333C108.391 27.0872 108.34 27.3436 108.34 27.7026C108.34 29.3951 108.749 30.7286 109.62 31.6517C110.44 32.6262 111.669 33.0878 113.257 33.0878C114.127 33.0878 114.998 32.9339 115.869 32.6262C116.739 32.3185 117.508 31.9082 118.173 31.2927L118.737 32.6262C118.173 33.1903 117.354 33.7032 116.33 34.0622C115.305 34.4212 114.23 34.5751 113.205 34.5751C111.105 34.5751 109.466 33.9596 108.288 32.6775C107.11 31.3953 106.496 29.7028 106.496 27.5488C106.496 25.9589 106.803 24.5228 107.367 23.2919C107.93 22.061 108.801 21.1379 109.876 20.4199C110.952 19.7531 112.232 19.3941 113.666 19.3941C115.51 19.3941 116.944 19.907 117.969 20.984C119.044 22.0098 119.556 23.5484 119.556 25.4973C119.556 25.9076 119.505 26.3692 119.454 26.8307H108.391V26.9333ZM110.337 22.1636C109.466 22.9842 108.852 24.1125 108.545 25.5999H117.969C118.02 24.1125 117.661 22.9842 116.893 22.1636C116.125 21.343 115.1 20.9327 113.82 20.9327C112.335 20.9327 111.208 21.343 110.337 22.1636V22.1636ZM122.117 34.4212L123.859 13.0345H125.651L123.91 34.4212H122.117Z" fill="#475569" stroke="white" stroke-width="0.3" mask="url(#path-1-inside-1_6594_3590)"/>
<mask id="path-2-inside-2_6594_3590" fill="white">
<path d="M134.058 32.4359L135.3 30.1933C136.335 31.0277 137.422 31.6014 138.56 32.0187C139.647 32.3837 140.889 32.5924 142.234 32.5924C143.838 32.5924 145.029 32.3316 145.857 31.7579C146.685 31.1842 147.099 30.4019 147.099 29.3066C147.099 28.6808 146.892 28.1071 146.478 27.6899C146.064 27.2726 145.546 26.9075 144.925 26.6989C144.304 26.4382 143.424 26.1774 142.286 25.8123C140.837 25.3951 139.647 24.9778 138.715 24.5606C137.784 24.1434 137.008 23.5697 136.387 22.7874C135.714 22.0051 135.403 20.962 135.403 19.7103C135.403 18.5107 135.714 17.4155 136.387 16.4767C137.059 15.5379 137.991 14.8599 139.181 14.3384C140.371 13.8168 141.82 13.6082 143.424 13.6082C144.873 13.6082 146.271 13.8168 147.564 14.2862C148.858 14.7556 149.945 15.3815 150.825 16.2159L149.583 18.4586C148.703 17.6763 147.72 17.1026 146.633 16.6853C145.598 16.2681 144.511 16.1116 143.373 16.1116C141.82 16.1116 140.578 16.4246 139.75 17.0504C138.871 17.6763 138.457 18.5107 138.457 19.5538C138.457 20.284 138.664 20.8577 139.129 21.327C139.595 21.7964 140.164 22.1615 140.785 22.4223C141.458 22.6831 142.389 22.996 143.58 23.3611C145.029 23.7783 146.167 24.1955 147.047 24.5606C147.927 24.9257 148.703 25.4994 149.272 26.2295C149.893 26.9597 150.204 27.9506 150.204 29.098C150.204 30.9756 149.479 32.4359 148.03 33.5311C146.581 34.6264 144.615 35.1479 142.079 35.1479C138.922 35.0436 136.231 34.157 134.058 32.4359V32.4359ZM165.366 20.8577C166.246 21.7443 166.66 23.0481 166.66 24.7692C166.66 25.1343 166.66 25.3951 166.608 25.6037L165.883 34.7828H162.934L163.658 25.7602C163.658 25.6037 163.71 25.3951 163.71 25.1343C163.71 22.996 162.675 21.9529 160.657 21.9529C159.363 21.9529 158.38 22.318 157.604 23.1003C156.879 23.8826 156.413 24.9257 156.362 26.2817L155.689 34.7828H152.739L154.447 13.0345H157.397L156.672 21.9007C157.19 21.1706 157.862 20.5447 158.69 20.1797C159.518 19.7624 160.502 19.5538 161.537 19.5538C163.244 19.5538 164.486 19.971 165.366 20.8577V20.8577ZM172.611 34.1048C171.524 33.5311 170.696 32.6445 170.127 31.6014C169.558 30.5062 169.247 29.2545 169.247 27.7942C169.247 26.1252 169.558 24.6649 170.179 23.4654C170.8 22.2137 171.679 21.2749 172.766 20.5969C173.905 19.9189 175.198 19.606 176.647 19.606C178.096 19.606 179.338 19.9189 180.373 20.4926C181.46 21.1184 182.288 21.9529 182.857 22.996C183.426 24.0912 183.737 25.3429 183.737 26.8032C183.737 28.4722 183.426 29.9325 182.805 31.132C182.184 32.3837 181.305 33.3225 180.218 34.0005C179.131 34.6785 177.837 34.9914 176.337 34.9914C174.939 34.9914 173.698 34.7307 172.611 34.1048ZM179.649 31.0277C180.425 29.9325 180.787 28.4722 180.787 26.6989C180.787 25.1865 180.425 23.9869 179.752 23.1524C179.079 22.318 178.044 21.9007 176.699 21.9007C175.302 21.9007 174.215 22.4223 173.439 23.5175C172.663 24.6128 172.3 26.0209 172.3 27.8463C172.3 29.4109 172.663 30.6105 173.335 31.445C174.008 32.2794 175.043 32.6967 176.44 32.6967C177.837 32.6967 178.872 32.123 179.649 31.0277ZM198.071 20.4404C199.003 21.0141 199.779 21.8486 200.296 22.9438C200.814 24.0391 201.073 25.2908 201.073 26.7511C201.073 28.3679 200.762 29.8282 200.193 31.0799C199.624 32.3316 198.796 33.3225 197.709 34.0005C196.674 34.6785 195.432 35.0436 194.087 35.0436C192.948 35.0436 191.965 34.7828 191.137 34.3134C190.309 33.8441 189.636 33.1661 189.17 32.2794L188.446 41.1978H185.496L186.842 24.0912C186.945 23.3089 186.945 22.3701 186.945 21.2749C186.945 20.649 186.945 20.1797 186.893 19.8667H189.636L189.688 22.318C190.154 21.4314 190.826 20.7534 191.706 20.284C192.586 19.8146 193.569 19.5538 194.656 19.5538C196.001 19.5538 197.14 19.8146 198.071 20.4404V20.4404ZM196.933 31.132C197.709 30.089 198.071 28.6808 198.071 26.8554C198.071 25.2908 197.709 24.0912 196.984 23.2568C196.26 22.4223 195.225 21.9529 193.931 21.9529C192.534 21.9529 191.499 22.4744 190.723 23.5175C189.947 24.5606 189.584 25.9688 189.584 27.7942C189.584 29.4109 189.947 30.6105 190.671 31.445C191.396 32.2794 192.431 32.6967 193.724 32.6967C195.07 32.6967 196.156 32.1751 196.933 31.132ZM215.407 20.4404C216.339 21.0141 217.115 21.8486 217.632 22.9438C218.15 24.0391 218.408 25.2908 218.408 26.7511C218.408 28.3679 218.098 29.8282 217.529 31.0799C216.96 32.3316 216.132 33.3225 215.045 34.0005C214.01 34.6785 212.768 35.0436 211.422 35.0436C210.284 35.0436 209.301 34.7828 208.473 34.3134C207.645 33.8441 206.972 33.1661 206.506 32.2794L205.782 41.1978H202.832L204.178 24.0912C204.281 23.3089 204.281 22.3701 204.281 21.2749C204.281 20.649 204.281 20.1797 204.229 19.8667H206.972L207.024 22.318C207.489 21.4314 208.162 20.7534 209.042 20.284C209.922 19.8146 210.905 19.5538 211.992 19.5538C213.337 19.5538 214.424 19.8146 215.407 20.4404V20.4404ZM214.269 31.132C215.045 30.089 215.407 28.6808 215.407 26.8554C215.407 25.2908 215.045 24.0912 214.32 23.2568C213.596 22.4223 212.561 21.9529 211.267 21.9529C209.87 21.9529 208.835 22.4744 208.059 23.5175C207.282 24.5606 206.92 25.9688 206.92 27.7942C206.92 29.4109 207.282 30.6105 208.007 31.445C208.731 32.2794 209.766 32.6967 211.06 32.6967C212.406 32.6967 213.492 32.1751 214.269 31.132ZM223.376 27.4291V27.7942C223.376 29.3588 223.739 30.5583 224.515 31.3928C225.291 32.2273 226.378 32.6445 227.827 32.6445C229.586 32.6445 231.19 32.0708 232.536 30.9756L233.312 33.0617C232.691 33.6354 231.863 34.1048 230.828 34.4699C229.793 34.7828 228.758 34.9914 227.672 34.9914C226.223 34.9914 224.929 34.6785 223.842 34.1048C222.755 33.5311 221.927 32.6445 221.306 31.6014C220.737 30.5062 220.427 29.2545 220.427 27.7942C220.427 26.1774 220.737 24.7171 221.358 23.4654C221.979 22.2137 222.859 21.2227 223.946 20.5447C225.084 19.8667 226.326 19.5017 227.775 19.5017C229.741 19.5017 231.242 20.0753 232.381 21.1706C233.519 22.2658 234.037 23.8826 234.037 25.9688C234.037 26.386 233.985 26.8554 233.933 27.3248H223.376V27.4291ZM225.032 22.7352C224.308 23.4132 223.79 24.352 223.532 25.6558H231.449C231.449 24.4041 231.139 23.4654 230.518 22.7874C229.897 22.1094 229.017 21.7443 227.879 21.7443C226.74 21.7443 225.757 22.0572 225.032 22.7352ZM246.146 19.7624L245.887 22.4744C245.37 22.2658 244.8 22.1615 244.179 22.1615C242.834 22.1615 241.799 22.5787 241.023 23.4132C240.298 24.2477 239.884 25.2908 239.781 26.5425L239.108 34.835H236.158L236.986 24.1434C237.09 22.7874 237.09 21.7964 237.09 21.1184C237.09 20.5969 237.09 20.1797 237.038 19.9189H239.781L239.832 22.2658C240.298 21.4314 240.971 20.7534 241.799 20.284C242.627 19.8146 243.61 19.5538 244.593 19.5538C245.214 19.5538 245.68 19.606 246.146 19.7624V19.7624Z"/>
</mask>
<path d="M134.058 32.4359L135.3 30.1933C136.335 31.0277 137.422 31.6014 138.56 32.0187C139.647 32.3837 140.889 32.5924 142.234 32.5924C143.838 32.5924 145.029 32.3316 145.857 31.7579C146.685 31.1842 147.099 30.4019 147.099 29.3066C147.099 28.6808 146.892 28.1071 146.478 27.6899C146.064 27.2726 145.546 26.9075 144.925 26.6989C144.304 26.4382 143.424 26.1774 142.286 25.8123C140.837 25.3951 139.647 24.9778 138.715 24.5606C137.784 24.1434 137.008 23.5697 136.387 22.7874C135.714 22.0051 135.403 20.962 135.403 19.7103C135.403 18.5107 135.714 17.4155 136.387 16.4767C137.059 15.5379 137.991 14.8599 139.181 14.3384C140.371 13.8168 141.82 13.6082 143.424 13.6082C144.873 13.6082 146.271 13.8168 147.564 14.2862C148.858 14.7556 149.945 15.3815 150.825 16.2159L149.583 18.4586C148.703 17.6763 147.72 17.1026 146.633 16.6853C145.598 16.2681 144.511 16.1116 143.373 16.1116C141.82 16.1116 140.578 16.4246 139.75 17.0504C138.871 17.6763 138.457 18.5107 138.457 19.5538C138.457 20.284 138.664 20.8577 139.129 21.327C139.595 21.7964 140.164 22.1615 140.785 22.4223C141.458 22.6831 142.389 22.996 143.58 23.3611C145.029 23.7783 146.167 24.1955 147.047 24.5606C147.927 24.9257 148.703 25.4994 149.272 26.2295C149.893 26.9597 150.204 27.9506 150.204 29.098C150.204 30.9756 149.479 32.4359 148.03 33.5311C146.581 34.6264 144.615 35.1479 142.079 35.1479C138.922 35.0436 136.231 34.157 134.058 32.4359V32.4359ZM165.366 20.8577C166.246 21.7443 166.66 23.0481 166.66 24.7692C166.66 25.1343 166.66 25.3951 166.608 25.6037L165.883 34.7828H162.934L163.658 25.7602C163.658 25.6037 163.71 25.3951 163.71 25.1343C163.71 22.996 162.675 21.9529 160.657 21.9529C159.363 21.9529 158.38 22.318 157.604 23.1003C156.879 23.8826 156.413 24.9257 156.362 26.2817L155.689 34.7828H152.739L154.447 13.0345H157.397L156.672 21.9007C157.19 21.1706 157.862 20.5447 158.69 20.1797C159.518 19.7624 160.502 19.5538 161.537 19.5538C163.244 19.5538 164.486 19.971 165.366 20.8577V20.8577ZM172.611 34.1048C171.524 33.5311 170.696 32.6445 170.127 31.6014C169.558 30.5062 169.247 29.2545 169.247 27.7942C169.247 26.1252 169.558 24.6649 170.179 23.4654C170.8 22.2137 171.679 21.2749 172.766 20.5969C173.905 19.9189 175.198 19.606 176.647 19.606C178.096 19.606 179.338 19.9189 180.373 20.4926C181.46 21.1184 182.288 21.9529 182.857 22.996C183.426 24.0912 183.737 25.3429 183.737 26.8032C183.737 28.4722 183.426 29.9325 182.805 31.132C182.184 32.3837 181.305 33.3225 180.218 34.0005C179.131 34.6785 177.837 34.9914 176.337 34.9914C174.939 34.9914 173.698 34.7307 172.611 34.1048ZM179.649 31.0277C180.425 29.9325 180.787 28.4722 180.787 26.6989C180.787 25.1865 180.425 23.9869 179.752 23.1524C179.079 22.318 178.044 21.9007 176.699 21.9007C175.302 21.9007 174.215 22.4223 173.439 23.5175C172.663 24.6128 172.3 26.0209 172.3 27.8463C172.3 29.4109 172.663 30.6105 173.335 31.445C174.008 32.2794 175.043 32.6967 176.44 32.6967C177.837 32.6967 178.872 32.123 179.649 31.0277ZM198.071 20.4404C199.003 21.0141 199.779 21.8486 200.296 22.9438C200.814 24.0391 201.073 25.2908 201.073 26.7511C201.073 28.3679 200.762 29.8282 200.193 31.0799C199.624 32.3316 198.796 33.3225 197.709 34.0005C196.674 34.6785 195.432 35.0436 194.087 35.0436C192.948 35.0436 191.965 34.7828 191.137 34.3134C190.309 33.8441 189.636 33.1661 189.17 32.2794L188.446 41.1978H185.496L186.842 24.0912C186.945 23.3089 186.945 22.3701 186.945 21.2749C186.945 20.649 186.945 20.1797 186.893 19.8667H189.636L189.688 22.318C190.154 21.4314 190.826 20.7534 191.706 20.284C192.586 19.8146 193.569 19.5538 194.656 19.5538C196.001 19.5538 197.14 19.8146 198.071 20.4404V20.4404ZM196.933 31.132C197.709 30.089 198.071 28.6808 198.071 26.8554C198.071 25.2908 197.709 24.0912 196.984 23.2568C196.26 22.4223 195.225 21.9529 193.931 21.9529C192.534 21.9529 191.499 22.4744 190.723 23.5175C189.947 24.5606 189.584 25.9688 189.584 27.7942C189.584 29.4109 189.947 30.6105 190.671 31.445C191.396 32.2794 192.431 32.6967 193.724 32.6967C195.07 32.6967 196.156 32.1751 196.933 31.132ZM215.407 20.4404C216.339 21.0141 217.115 21.8486 217.632 22.9438C218.15 24.0391 218.408 25.2908 218.408 26.7511C218.408 28.3679 218.098 29.8282 217.529 31.0799C216.96 32.3316 216.132 33.3225 215.045 34.0005C214.01 34.6785 212.768 35.0436 211.422 35.0436C210.284 35.0436 209.301 34.7828 208.473 34.3134C207.645 33.8441 206.972 33.1661 206.506 32.2794L205.782 41.1978H202.832L204.178 24.0912C204.281 23.3089 204.281 22.3701 204.281 21.2749C204.281 20.649 204.281 20.1797 204.229 19.8667H206.972L207.024 22.318C207.489 21.4314 208.162 20.7534 209.042 20.284C209.922 19.8146 210.905 19.5538 211.992 19.5538C213.337 19.5538 214.424 19.8146 215.407 20.4404V20.4404ZM214.269 31.132C215.045 30.089 215.407 28.6808 215.407 26.8554C215.407 25.2908 215.045 24.0912 214.32 23.2568C213.596 22.4223 212.561 21.9529 211.267 21.9529C209.87 21.9529 208.835 22.4744 208.059 23.5175C207.282 24.5606 206.92 25.9688 206.92 27.7942C206.92 29.4109 207.282 30.6105 208.007 31.445C208.731 32.2794 209.766 32.6967 211.06 32.6967C212.406 32.6967 213.492 32.1751 214.269 31.132ZM223.376 27.4291V27.7942C223.376 29.3588 223.739 30.5583 224.515 31.3928C225.291 32.2273 226.378 32.6445 227.827 32.6445C229.586 32.6445 231.19 32.0708 232.536 30.9756L233.312 33.0617C232.691 33.6354 231.863 34.1048 230.828 34.4699C229.793 34.7828 228.758 34.9914 227.672 34.9914C226.223 34.9914 224.929 34.6785 223.842 34.1048C222.755 33.5311 221.927 32.6445 221.306 31.6014C220.737 30.5062 220.427 29.2545 220.427 27.7942C220.427 26.1774 220.737 24.7171 221.358 23.4654C221.979 22.2137 222.859 21.2227 223.946 20.5447C225.084 19.8667 226.326 19.5017 227.775 19.5017C229.741 19.5017 231.242 20.0753 232.381 21.1706C233.519 22.2658 234.037 23.8826 234.037 25.9688C234.037 26.386 233.985 26.8554 233.933 27.3248H223.376V27.4291ZM225.032 22.7352C224.308 23.4132 223.79 24.352 223.532 25.6558H231.449C231.449 24.4041 231.139 23.4654 230.518 22.7874C229.897 22.1094 229.017 21.7443 227.879 21.7443C226.74 21.7443 225.757 22.0572 225.032 22.7352ZM246.146 19.7624L245.887 22.4744C245.37 22.2658 244.8 22.1615 244.179 22.1615C242.834 22.1615 241.799 22.5787 241.023 23.4132C240.298 24.2477 239.884 25.2908 239.781 26.5425L239.108 34.835H236.158L236.986 24.1434C237.09 22.7874 237.09 21.7964 237.09 21.1184C237.09 20.5969 237.09 20.1797 237.038 19.9189H239.781L239.832 22.2658C240.298 21.4314 240.971 20.7534 241.799 20.284C242.627 19.8146 243.61 19.5538 244.593 19.5538C245.214 19.5538 245.68 19.606 246.146 19.7624V19.7624Z" fill="#1E293B" stroke="white" stroke-width="0.4" mask="url(#path-2-inside-2_6594_3590)"/>
<path d="M2.08334 13.7242H22.9167V38H2.08334V13.7242Z" fill="url(#paint0_radial_6594_3590)"/>
<path d="M25 25.862L16.6667 28.0689V21.4483L25 19.2414V25.862Z" fill="url(#paint1_linear_6594_3590)"/>
<path d="M8.33333 33.5863L0 35.7931V29.1725L8.33333 26.9656V33.5863Z" fill="url(#paint2_linear_6594_3590)"/>
<path d="M12.5 19.2414C9.62501 19.2414 7.29168 16.7697 7.29168 13.7242H5.20834C5.20834 17.9835 8.47917 21.4483 12.5 21.4483C16.5208 21.4483 19.7917 17.9835 19.7917 13.7242H17.7083C17.7083 16.7697 15.375 19.2414 12.5 19.2414Z" fill="url(#paint3_linear_6594_3590)"/>
<path d="M12.5 8.20689C15.375 8.20689 17.7083 10.6786 17.7083 13.7241H19.7917C19.7917 9.46482 16.5208 6 12.5 6C8.47917 6 5.20834 9.46482 5.20834 13.7241H7.29168C7.29168 10.6786 9.62501 8.20689 12.5 8.20689Z" fill="url(#paint4_linear_6594_3590)"/>
<defs>
<radialGradient id="paint0_radial_6594_3590" cx="0" cy="0" r="1" gradientUnits="userSpaceOnUse" gradientTransform="translate(21.875 14.8276) scale(28.125 29.793)">
<stop stop-color="#60A5FA"/>
<stop offset="1" stop-color="#2563EB"/>
</radialGradient>
<linearGradient id="paint1_linear_6594_3590" x1="16.6667" y1="28.0689" x2="25.4796" y2="19.7494" gradientUnits="userSpaceOnUse">
<stop stop-color="#DBEAFE"/>
<stop offset="1" stop-color="#93C5FD"/>
</linearGradient>
<linearGradient id="paint2_linear_6594_3590" x1="0" y1="35.7931" x2="8.81294" y2="27.4736" gradientUnits="userSpaceOnUse">
<stop stop-color="#93C5FD"/>
<stop offset="1" stop-color="#DBEAFE"/>
</linearGradient>
<linearGradient id="paint3_linear_6594_3590" x1="5.20834" y1="17.5863" x2="19.7917" y2="17.5863" gradientUnits="userSpaceOnUse">
<stop stop-color="#1E40AF"/>
<stop offset="1" stop-color="#3B82F6"/>
</linearGradient>
<linearGradient id="paint4_linear_6594_3590" x1="5.20834" y1="9.86206" x2="19.7917" y2="9.86206" gradientUnits="userSpaceOnUse">
<stop stop-color="#3B82F6"/>
<stop offset="1" stop-color="#1E40AF"/>
</linearGradient>
</defs>
</svg>
