<svg xmlns="http://www.w3.org/2000/svg" viewBox="0 0 90.81 128.22"><defs><style>.cls-1,.cls-2{fill:#fff;}.cls-2,.cls-6{fill-rule:evenodd;}.cls-3{fill:#089271;}.cls-4{fill:#ffdc45;}.cls-5{fill:#e21d31;}.cls-6,.cls-7{fill:#010101;}</style></defs><g id="Layer_2" data-name="Layer 2"><g id="Layer_1-2" data-name="Layer 1"><path class="cls-1" d="M20.05,25.54A3.83,3.83,0,0,1,18.13,25L2.33,15.88a3.84,3.84,0,0,1,.06-6.67L18.19.48a3.82,3.82,0,0,1,3.71,0L37.7,9.21a3.83,3.83,0,0,1,.06,6.67L22,25A3.89,3.89,0,0,1,20.05,25.54Z"/><path class="cls-1" d="M4.25,12.56l15.8,9.15,15.79-9.15L20.05,3.83Z"/><path class="cls-1" d="M70.76,35.1a3.77,3.77,0,0,1-1.89-.5L53.49,25.87a3.83,3.83,0,0,1-.07-6.62L68.8,10.1a3.84,3.84,0,0,1,2-.54,3.74,3.74,0,0,1,1.92.52l15.8,9.14a3.83,3.83,0,0,1-.07,6.67L72.62,34.62A3.85,3.85,0,0,1,70.76,35.1Z"/><path class="cls-1" d="M55.38,22.54l15.38,8.73,15.8-8.73-15.8-9.15Z"/><path class="cls-1" d="M36.26,94.55A3.9,3.9,0,0,1,34.34,94L1.92,75.33A3.83,3.83,0,0,1,0,72V14.22a3.82,3.82,0,0,1,1.94-3.33,3.87,3.87,0,0,1,1.89-.5,3.81,3.81,0,0,1,2,.54l15.38,9.14A3.84,3.84,0,0,1,23,23.37v37.3l15.15,8.86a3.83,3.83,0,0,1,1.9,3.31V90.71A3.83,3.83,0,0,1,38.18,94,3.9,3.9,0,0,1,36.26,94.55Z"/><polygon class="cls-1" points="36.26 72.84 36.26 90.71 28.65 86.32 3.83 72.01 3.83 14.22 19.21 23.37 19.21 62.86 35.54 72.42 36.26 72.84"/><path class="cls-1" d="M71.59,55.06a3.83,3.83,0,0,1-3.83-3.84V32.93A3.82,3.82,0,0,1,69.7,29.6L85,20.87a3.87,3.87,0,0,1,1.89-.5,3.84,3.84,0,0,1,3.84,3.82l0,17.88a3.83,3.83,0,0,1-1.88,3.3L73.55,54.52A3.81,3.81,0,0,1,71.59,55.06Z"/><path class="cls-1" d="M71.59,32.93V51.22L87,42.08l0-17.88Z"/><path class="cls-1" d="M37.92,94.55a3.83,3.83,0,0,1-3.83-3.84V72.84A3.83,3.83,0,0,1,36,69.53L68,50.82a3.84,3.84,0,0,1,5.77,3.31V72a3.83,3.83,0,0,1-1.9,3.31L53.49,86.06,39.85,94A3.79,3.79,0,0,1,37.92,94.55Z"/><polygon class="cls-1" points="69.93 54.13 69.93 72.01 51.56 82.75 37.92 90.71 37.92 72.84 38.64 72.42 69.93 54.13"/><path class="cls-1" d="M20.88,64.62a3.88,3.88,0,0,1-1.9-.5A3.84,3.84,0,0,1,17,60.79V23.37a3.84,3.84,0,0,1,1.88-3.29L34.3,10.93a3.82,3.82,0,0,1,3.85,0,3.85,3.85,0,0,1,1.94,3.34V51.64a3.83,3.83,0,0,1-1.87,3.29L22.84,64.08A3.84,3.84,0,0,1,20.88,64.62Z"/><path class="cls-1" d="M20.88,23.37V60.79l15.38-9.15V14.23Z"/><path class="cls-1" d="M69.93,55.06a3.81,3.81,0,0,1-2-.54L52.59,45.37a3.83,3.83,0,0,1-1.87-3.29V24.2a3.83,3.83,0,0,1,3.83-3.83,3.87,3.87,0,0,1,1.89.5L71.82,29.6a3.82,3.82,0,0,1,1.94,3.33V51.22a3.86,3.86,0,0,1-1.93,3.34A3.91,3.91,0,0,1,69.93,55.06Z"/><path class="cls-1" d="M54.55,42.08l15.38,9.14V32.93L54.55,24.2Z"/><path class="cls-1" d="M37.09,75a3.82,3.82,0,0,1-1.91-.51L19.59,65.57a3.85,3.85,0,0,1,0-6.64L51.78,40a3.82,3.82,0,0,1,3.93,0L71.09,49.4A3.84,3.84,0,0,1,71,56L39,74.5A3.89,3.89,0,0,1,37.09,75Z"/><path class="cls-1" d="M21.5,62.24l15.59,8.94,32-18.5L53.72,43.33Z"/><path class="cls-2" d="M59.58,117.5A3.82,3.82,0,0,1,56,115.05l-5.07-13a3.82,3.82,0,0,1,3.57-5.22h3.11a3.83,3.83,0,0,1,3.57,2.44l.34.87.34-.87a3.83,3.83,0,0,1,3.57-2.44h3.12A3.83,3.83,0,0,1,72.13,102l-5.07,13a3.82,3.82,0,0,1-3.57,2.45Z"/><polygon class="cls-2" points="68.56 100.61 63.49 113.66 59.58 113.66 54.51 100.61 57.62 100.61 61.54 110.63 65.44 100.61 68.56 100.61"/><path class="cls-2" d="M49.11,128.14A3.81,3.81,0,0,1,48,128a3.94,3.94,0,0,1-1.09.16h-1.7a3.84,3.84,0,0,1-3.84-3.84v-6.48A3.83,3.83,0,0,1,45.24,114h3a6.56,6.56,0,0,1,4.18,1.33,5.53,5.53,0,0,1,2,4.46,5.8,5.8,0,0,1-.4,2.13l.38.89a3.84,3.84,0,0,1-3.53,5.34Z"/><path class="cls-2" d="M50.1,122.35a1.2,1.2,0,0,0-.33-.54,1.31,1.31,0,0,0-.5-.25,1.83,1.83,0,0,0,1-.66,1.66,1.66,0,0,0,.37-1.12,1.73,1.73,0,0,0-.58-1.46,2.81,2.81,0,0,0-1.79-.5h-3v6.48h1.7v-2.53h.62c.38,0,.63.12.71.38l.84,2.15h1.82Zm-1.29-2a1.77,1.77,0,0,1-.79.16H46.94v-1.41H48a1.35,1.35,0,0,1,.79.16.63.63,0,0,1,.25.54A.63.63,0,0,1,48.81,120.36Z"/><path class="cls-2" d="M39.71,128.18a3.83,3.83,0,0,1-3.83-3.83v-6.53A3.82,3.82,0,0,1,39.71,114h4.65a3.83,3.83,0,0,1,3.84,3.83v1.33A4,4,0,0,1,48,120.4v1.36A4.06,4.06,0,0,1,48.2,123v1.33a3.84,3.84,0,0,1-3.84,3.83Z"/><polygon class="cls-2" points="41.37 119.15 41.37 120.36 44.15 120.36 44.15 121.69 41.37 121.69 41.37 123.02 44.36 123.02 44.36 124.35 39.71 124.35 39.71 117.82 44.36 117.82 44.36 119.15 41.37 119.15"/><path class="cls-2" d="M37,128.14a4.21,4.21,0,0,1-.62,0,4.21,4.21,0,0,1-.62,0H34.64a4.46,4.46,0,0,1-.63,0,4.21,4.21,0,0,1-.62,0h-1.5a3.84,3.84,0,0,1-3.83-3.84v-6.48A3.83,3.83,0,0,1,31.89,114h1.38a3.8,3.8,0,0,1,1.93.52,3.77,3.77,0,0,1,1.93-.52h1.33a3.82,3.82,0,0,1,3.83,3.83v6.48a3.83,3.83,0,0,1-3.83,3.84Z"/><polygon class="cls-2" points="38.46 117.82 38.46 124.31 36.96 124.31 36.96 121.36 35.72 124.31 34.64 124.31 33.39 121.36 33.39 124.31 31.89 124.31 31.89 117.82 33.27 117.82 35.22 122.27 37.13 117.82 38.46 117.82"/><path class="cls-2" d="M21.49,128.19a6.75,6.75,0,0,1-3.45-.9l-.21-.13a6.58,6.58,0,0,1-2.4-2.52,7.68,7.68,0,0,1,.07-7.27A7.05,7.05,0,0,1,18,114.84a7.27,7.27,0,0,1,3.72-.94,8.1,8.1,0,0,1,2.35.38,6.56,6.56,0,0,1,2.31,1.22,3.83,3.83,0,0,1,1,4.52L27,121l.46,1a3.83,3.83,0,0,1-1,4.52,6.88,6.88,0,0,1-2.18,1.18l-.13,0a8,8,0,0,1-2.23.37Z"/><path class="cls-2" d="M24,123.64a3,3,0,0,1-.95.5,4.55,4.55,0,0,1-1.25.21A3.19,3.19,0,0,1,20,124h0a2.82,2.82,0,0,1-1.16-1.16,3.41,3.41,0,0,1-.42-1.75,3.37,3.37,0,0,1,.42-1.74A3.1,3.1,0,0,1,20,118.15a3.46,3.46,0,0,1,1.79-.41A4.2,4.2,0,0,1,23,118a2.5,2.5,0,0,1,.95.49l-.54,1.21a2.84,2.84,0,0,0-1.66-.58,1.45,1.45,0,0,0-1.2.5,2.11,2.11,0,0,0-.42,1.45,2.19,2.19,0,0,0,.42,1.5,1.53,1.53,0,0,0,1.2.5,2.85,2.85,0,0,0,1.66-.59Z"/><path class="cls-2" d="M29.77,128.14a3.79,3.79,0,0,1-2-.59,3.8,3.8,0,0,1-2,.59H24a3.84,3.84,0,0,1-3.46-5.48l3.08-6.48A3.82,3.82,0,0,1,27,114H28.4a3.82,3.82,0,0,1,3.46,2.19l3.08,6.48a3.83,3.83,0,0,1-3.46,5.48Z"/><path class="cls-2" d="M28.4,117.82H27L24,124.3H25.7l.58-1.32h2.91l.58,1.32h1.71Zm-1.54,3.86.92-2,.87,2Z"/><path class="cls-2" d="M54.88,128.22a7.12,7.12,0,0,1-3.56-.88,6.62,6.62,0,0,1-2.65-2.58l-.13-.24a7.76,7.76,0,0,1-.81-3.5,7.27,7.27,0,0,1,.87-3.58,6.6,6.6,0,0,1,2.64-2.65,7,7,0,0,1,3.64-.93,7.24,7.24,0,0,1,3.57.88,6.3,6.3,0,0,1,2.72,2.8A7.78,7.78,0,0,1,62,121a7.48,7.48,0,0,1-.86,3.57,6.61,6.61,0,0,1-2.61,2.71A7.17,7.17,0,0,1,54.88,128.22Z"/><path class="cls-2" d="M57.75,119.27a2.57,2.57,0,0,0-1.12-1.16,3.41,3.41,0,0,0-1.75-.41,3.35,3.35,0,0,0-1.74.41A2.9,2.9,0,0,0,52,119.27a3.46,3.46,0,0,0-.41,1.75,3.91,3.91,0,0,0,.41,1.79A2.84,2.84,0,0,0,53.14,124a3.35,3.35,0,0,0,1.74.42,3.41,3.41,0,0,0,1.75-.42,2.72,2.72,0,0,0,1.12-1.16,3.69,3.69,0,0,0,.42-1.79A3.93,3.93,0,0,0,57.75,119.27ZM56,122.56a1.32,1.32,0,0,1-1.16.5,1.45,1.45,0,0,1-1.16-.5,2.87,2.87,0,0,1,0-3,1.6,1.6,0,0,1,2.32,0,2.87,2.87,0,0,1,0,3Z"/><path class="cls-2" d="M62.28,128.22a7.09,7.09,0,0,1-3.56-.88,6.5,6.5,0,0,1-2.65-2.58c0-.08-.09-.16-.13-.24a7.77,7.77,0,0,1-.82-3.5,7.23,7.23,0,0,1,.88-3.56,6.46,6.46,0,0,1,2.64-2.67,1,1,0,0,1,.17-.1,7.64,7.64,0,0,1,3.47-.83,7.25,7.25,0,0,1,3.68.94,6.52,6.52,0,0,1,2.63,2.78A7.73,7.73,0,0,1,69.4,121a7.58,7.58,0,0,1-.85,3.56,6.58,6.58,0,0,1-2.6,2.71A7.18,7.18,0,0,1,62.28,128.22Z"/><path class="cls-2" d="M65.15,119.27A2.78,2.78,0,0,0,64,118.11a3.41,3.41,0,0,0-1.75-.41,3.79,3.79,0,0,0-1.74.41,2.84,2.84,0,0,0-1.17,1.16A3.46,3.46,0,0,0,59,121a3.91,3.91,0,0,0,.41,1.79A2.78,2.78,0,0,0,60.54,124a3.35,3.35,0,0,0,1.74.42A3.41,3.41,0,0,0,64,124a2.72,2.72,0,0,0,1.12-1.16,3.69,3.69,0,0,0,.42-1.79A3.93,3.93,0,0,0,65.15,119.27Zm-1.71,3.29a1.32,1.32,0,0,1-1.16.5,1.45,1.45,0,0,1-1.16-.5,2.87,2.87,0,0,1,0-3,1.6,1.6,0,0,1,2.32,0,2.87,2.87,0,0,1,0,3Z"/><path class="cls-2" d="M71.14,128.14a3.69,3.69,0,0,1-1.48-.3,3.79,3.79,0,0,1-1.47.3H66.57a3.84,3.84,0,0,1-3.84-3.84v-6.48A3.83,3.83,0,0,1,66.57,114h1.24a3.85,3.85,0,0,1,1.47.29,3.87,3.87,0,0,1,1.48-.29h1.66a3.82,3.82,0,0,1,3.83,3.83v6.48a3.83,3.83,0,0,1-3.83,3.84Z"/><polygon class="cls-2" points="72.42 117.82 72.42 124.31 71.14 124.31 68.19 120.61 68.19 124.31 66.57 124.31 66.57 117.82 67.81 117.82 70.76 121.48 70.76 117.82 72.42 117.82"/><path class="cls-2" d="M75.75,117.79c-6.49,0-11-4.4-11-10.69A10.58,10.58,0,0,1,75.33,96.44a10.2,10.2,0,0,1,7.76,3.48,11.18,11.18,0,0,1,2.62,8.81,3.86,3.86,0,0,1-.47,1.4,3,3,0,0,1,.11.65,3.82,3.82,0,0,1-1,3C82.38,115.74,79.87,117.79,75.75,117.79Z"/><path class="cls-2" d="M75.33,100.28a6.73,6.73,0,0,0-6.77,6.82c0,4.2,2.91,6.86,7.19,6.86,2.37,0,3.91-.92,5.78-2.87l-2.08-1.58a5.56,5.56,0,0,1-4,2,3.7,3.7,0,0,1-3.9-3.28H81.9C82.44,104,79.53,100.28,75.33,100.28ZM71.6,106a3.5,3.5,0,0,1,3.65-3.28A3.64,3.64,0,0,1,79,106Z"/><rect class="cls-1" x="80.07" y="90.21" width="10.74" height="27.29" rx="3.83"/><rect class="cls-1" x="83.9" y="94.04" width="3.07" height="19.63"/><path class="cls-2" d="M45.82,117.83a10.55,10.55,0,0,1-7.61-3.15l-.1-.11a9.11,9.11,0,0,1-.89-1.08v.17a3.84,3.84,0,0,1-3.83,3.84H30.31a3.84,3.84,0,0,1-3.83-3.84v-7.77a3.84,3.84,0,0,1-1.66-3.16V86.32A3.85,3.85,0,0,1,26.73,83a3.87,3.87,0,0,1,3.84,0l1.86,1.08V74.66a3.83,3.83,0,0,1,3.11-6.07h3.1a3.82,3.82,0,0,1,3.11,6.06V84l7.88-4.59a3.8,3.8,0,0,1,3.84,0,3.84,3.84,0,0,1,1.92,3.33V97.61a3.8,3.8,0,0,1,1.46,3v13A3.84,3.84,0,0,1,53,117.5H49.94a3.86,3.86,0,0,1-1.13-.17A9.06,9.06,0,0,1,45.82,117.83ZM46,107.14a1.45,1.45,0,0,0,0,.3h0l.07-.19h0V107l-.06-.14v0l0,.13S46,107.08,46,107.14Z"/><path class="cls-2" d="M51.56,82.75l-13.64,8V72.84l.72-.42h-3.1l.72.42V90.71l-7.61-4.39v16.41h1.66v10.93h3.08V103.6h5.32v-.87h1.85a7.85,7.85,0,0,0-1,1.79,7,7,0,0,0-.49,2.62,7.2,7.2,0,0,0,.49,2.62A6.59,6.59,0,0,0,45.82,114a5.1,5.1,0,0,0,2.33-.54,4.09,4.09,0,0,0,1.79-1.53v1.74H53v-13H51.56Zm-1.92,26a4.13,4.13,0,0,1-.78,1.33,3.85,3.85,0,0,1-1.25.91,4.17,4.17,0,0,1-1.63.34,3.77,3.77,0,0,1-1.57-.34,4.42,4.42,0,0,1-1.21-.91,4,4,0,0,1-.79-1.33,5.27,5.27,0,0,1-.25-1.58,4.19,4.19,0,0,1,.25-1.58,3.79,3.79,0,0,1,.79-1.33,3.64,3.64,0,0,1,1.21-.92A3.93,3.93,0,0,1,46,103a4.19,4.19,0,0,1,1.63.33,4.06,4.06,0,0,1,1.25.92,4.35,4.35,0,0,1,.78,1.33,4,4,0,0,1,.3,1.58A4.11,4.11,0,0,1,49.64,108.72Z"/><path class="cls-2" d="M3.83,117.46A3.84,3.84,0,0,1,0,113.62V94a3.83,3.83,0,0,1,3.83-3.83H7.12A3.83,3.83,0,0,1,11,94v12.88h2.32a3.82,3.82,0,0,1,3.83,3.83v2.87a3.83,3.83,0,0,1-3.83,3.84Z"/><polygon class="cls-2" points="7.12 110.75 13.27 110.75 13.27 113.62 3.83 113.62 3.83 94.04 7.12 94.04 7.12 110.75"/><path class="cls-2" d="M20.63,117.83a10.39,10.39,0,0,1-4.24-.85A10.1,10.1,0,0,1,13,114.67a.6.6,0,0,0-.08-.08,10.2,10.2,0,0,1-2.17-3.49,11,11,0,0,1,2.17-11.41.46.46,0,0,0,.07-.07,10.16,10.16,0,0,1,3.39-2.33,10.49,10.49,0,0,1,4.24-.85,8.89,8.89,0,0,1,3,.51,3.86,3.86,0,0,1,1.13-.17h3.08a3.83,3.83,0,0,1,3.83,3.83v13a3.83,3.83,0,0,1-3.83,3.84H24.74a3.75,3.75,0,0,1-1.12-.17A9.06,9.06,0,0,1,20.63,117.83Zm.24-11a1.75,1.75,0,0,0-.07.32,1,1,0,0,0,0,.3l0,0a1.13,1.13,0,0,0,.07-.15h0v-.11a.66.66,0,0,0,0-.14c0-.06,0-.1-.06-.15Z"/><path class="cls-2" d="M24.74,100.61v1.74A4,4,0,0,0,23,100.82a5.22,5.22,0,0,0-2.33-.54,6.62,6.62,0,0,0-4.91,2,7.18,7.18,0,0,0-1.87,4.82,7.21,7.21,0,0,0,.5,2.62,6.34,6.34,0,0,0,1.37,2.2,6.43,6.43,0,0,0,2.16,1.49,6.53,6.53,0,0,0,2.75.54,5.1,5.1,0,0,0,2.33-.54,4,4,0,0,0,1.78-1.53v1.74h3.08v-13Zm-.25,8.11a4.08,4.08,0,0,1-.83,1.33,3.82,3.82,0,0,1-1.24.91,4.19,4.19,0,0,1-1.62.34,3.83,3.83,0,0,1-1.59-.34,4.53,4.53,0,0,1-1.2-.91,4,4,0,0,1-.79-1.33,5,5,0,0,1-.25-1.58,4.91,4.91,0,0,1,.29-1.58,4,4,0,0,1,.79-1.33,3.81,3.81,0,0,1,1.2-.92,4,4,0,0,1,1.59-.33,4.18,4.18,0,0,1,1.62.33,3.9,3.9,0,0,1,1.24.92,4.55,4.55,0,0,1,1.09,2.91A4.11,4.11,0,0,1,24.49,108.72Z"/><path class="cls-2" d="M36.26,94.55A3.9,3.9,0,0,1,34.34,94l-7.61-4.39a3.83,3.83,0,0,1-1.91-3.32V72.42a3.82,3.82,0,0,1,3.83-3.83h6.89a3.83,3.83,0,0,1,1.93.52l.72.42a3.83,3.83,0,0,1,1.9,3.31V90.71A3.83,3.83,0,0,1,38.18,94,3.9,3.9,0,0,1,36.26,94.55Z"/><polygon class="cls-2" points="36.26 72.84 36.26 90.71 28.65 86.32 28.65 72.42 35.54 72.42 36.26 72.84"/><path class="cls-3" d="M4.08,12.56l15.8,9.15,15.8-9.15L19.88,3.83Z"/><path class="cls-4" d="M55.21,22.54l15.38,8.73,15.8-8.73-15.8-9.15Z"/><path class="cls-3" d="M3.67,72,36.09,90.72V72.84l-17-10V23.37L3.67,14.23Z"/><path class="cls-4" d="M71.43,32.93V51.22l15.38-9.14,0-17.88Z"/><path class="cls-4" d="M37.75,72.84V90.72L69.76,72V54.13Z"/><path class="cls-5" d="M20.71,23.37V60.79l15.38-9.15V14.23Z"/><path class="cls-4" d="M54.38,42.08l15.38,9.14V32.93L54.38,24.2Z"/><path class="cls-5" d="M21.33,62.24l15.59,8.94,32-18.5L53.55,43.33Z"/><path class="cls-6" d="M7,94v16.71H13.1v2.87H3.67V94Zm17.63,8.32v-1.75h3.07v13H24.58v-1.74a4.18,4.18,0,0,1-1.79,1.54,5.23,5.23,0,0,1-2.33.54,6.64,6.64,0,0,1-2.74-.54,6.81,6.81,0,0,1-2.17-1.5,6.34,6.34,0,0,1-1.37-2.2,7.25,7.25,0,0,1-.5-2.62,7,7,0,0,1,.5-2.62,7.34,7.34,0,0,1,1.37-2.21,6.62,6.62,0,0,1,2.17-1.49,6.48,6.48,0,0,1,2.74-.54,5.22,5.22,0,0,1,2.33.54,4.05,4.05,0,0,1,1.79,1.54Zm-.25,6.36a4.45,4.45,0,0,0,0-3.16,4.38,4.38,0,0,0-.79-1.33,4.06,4.06,0,0,0-1.25-.92,4,4,0,0,0-1.62-.33,3.81,3.81,0,0,0-1.58.33,3.74,3.74,0,0,0-1.21.92,4,4,0,0,0-.79,1.33,4.76,4.76,0,0,0,0,3.16,4,4,0,0,0,.79,1.33,4.42,4.42,0,0,0,1.21.91,3.75,3.75,0,0,0,1.58.33,4.15,4.15,0,0,0,1.62-.33,3.71,3.71,0,0,0,1.24-.91,4,4,0,0,0,.84-1.33Zm5.82,4.94v-13h8.39v3H33.22v10.06Zm19.62-11.3v-1.75h3.07v13H49.77v-1.74A4.18,4.18,0,0,1,48,113.46a5.23,5.23,0,0,1-2.33.54,6.62,6.62,0,0,1-4.9-2,6.36,6.36,0,0,1-1.38-2.2,7.24,7.24,0,0,1-.49-2.62,7,7,0,0,1,.49-2.62,7.17,7.17,0,0,1,1.38-2.21,6.66,6.66,0,0,1,4.9-2,5.22,5.22,0,0,1,2.33.54,4.28,4.28,0,0,1,1.79,1.54Zm-.29,6.36a4.45,4.45,0,0,0,0-3.16,4.38,4.38,0,0,0-.79-1.33,4.06,4.06,0,0,0-1.25-.92,4,4,0,0,0-1.62-.33,3.81,3.81,0,0,0-1.58.33,3.74,3.74,0,0,0-1.21.92,4,4,0,0,0-.79,1.33,4.22,4.22,0,0,0-.25,1.58,5.22,5.22,0,0,0,.25,1.58,4,4,0,0,0,.79,1.33,4.58,4.58,0,0,0,1.21.91,3.81,3.81,0,0,0,1.58.33,4.15,4.15,0,0,0,1.62-.33,3.85,3.85,0,0,0,1.25-.91A4,4,0,0,0,49.48,108.72Zm15.79-8.11h3.12l-5.07,13H59.41l-5.07-13h3.12l3.91,10Zm9.9-.33c4.2,0,7.11,3.7,6.57,8H71.43a3.7,3.7,0,0,0,3.9,3.28,5.56,5.56,0,0,0,4-2l2.08,1.58C79.49,113,78,114,75.58,114c-4.28,0-7.19-2.66-7.19-6.86a6.73,6.73,0,0,1,6.78-6.81ZM71.43,106h7.4a3.64,3.64,0,0,0-3.75-3.28A3.51,3.51,0,0,0,71.43,106Zm12.3,7.65V94h3.08v19.62Z"/><path class="cls-7" d="M19.8,124a2.84,2.84,0,0,1-1.17-1.16,3.92,3.92,0,0,1,0-3.49,3.13,3.13,0,0,1,1.17-1.17,3.42,3.42,0,0,1,1.78-.41,4.53,4.53,0,0,1,1.25.2,2.79,2.79,0,0,1,1,.5l-.54,1.21a2.94,2.94,0,0,0-1.67-.58,1.45,1.45,0,0,0-1.2.5A2.16,2.16,0,0,0,20,121a2.22,2.22,0,0,0,.42,1.5,1.53,1.53,0,0,0,1.2.5,2.88,2.88,0,0,0,1.67-.59l.54,1.21a3.11,3.11,0,0,1-1,.5,4.55,4.55,0,0,1-1.25.21A3.07,3.07,0,0,1,19.8,124Zm9.81.34L29,123H26.11l-.58,1.33H23.79l3.07-6.49h1.37l3.08,6.49Zm-2.91-2.62h1.78l-.87-2ZM37,117.82h1.33v6.49H36.8v-3l-1.25,3H34.47l-1.25-3v3H31.73v-6.49H33.1l1.95,4.45Zm2.58,6.49v-6.49H44.2v1.33h-3v1.21H44v1.33H41.2V123h3v1.33H39.54Zm11.23,0H48.94l-.84-2.17c-.08-.25-.33-.37-.7-.37h-.63v2.54h-1.7v-6.49h3a2.79,2.79,0,0,1,1.79.5,1.72,1.72,0,0,1,.58,1.45,1.67,1.67,0,0,1-.37,1.13,1.83,1.83,0,0,1-1,.66,1.38,1.38,0,0,1,.5.25,1.15,1.15,0,0,1,.33.54l.84,2Zm-2.12-4a.63.63,0,0,0,.24-.54.62.62,0,0,0-.24-.54,1.29,1.29,0,0,0-.79-.17H46.77v1.41h1.09a1.81,1.81,0,0,0,.79-.16ZM53,124a2.9,2.9,0,0,1-1.17-1.16,4,4,0,0,1-.41-1.79,3.37,3.37,0,0,1,.41-1.74A2.87,2.87,0,0,1,53,118.11a3.92,3.92,0,0,1,3.49,0,2.54,2.54,0,0,1,1.12,1.17A3.82,3.82,0,0,1,58,121a3.67,3.67,0,0,1-.42,1.79A2.72,2.72,0,0,1,56.46,124,3.84,3.84,0,0,1,53,124Zm2.91-1.41a2.93,2.93,0,0,0,0-3,1.61,1.61,0,0,0-2.33,0,2.87,2.87,0,0,0,0,3,1.46,1.46,0,0,0,1.16.5A1.35,1.35,0,0,0,55.88,122.56ZM60.37,124a2.9,2.9,0,0,1-1.17-1.16,3.91,3.91,0,0,1-.41-1.79,3.37,3.37,0,0,1,.41-1.74,2.87,2.87,0,0,1,1.17-1.17,3.85,3.85,0,0,1,1.74-.41,3.41,3.41,0,0,1,1.75.41A2.74,2.74,0,0,1,65,119.28,3.82,3.82,0,0,1,65.4,121a3.67,3.67,0,0,1-.42,1.79A2.72,2.72,0,0,1,63.86,124a3.84,3.84,0,0,1-3.49,0Zm2.91-1.41a2.93,2.93,0,0,0,0-3,1.61,1.61,0,0,0-2.33,0,2.87,2.87,0,0,0,0,3,1.46,1.46,0,0,0,1.16.5A1.35,1.35,0,0,0,63.28,122.56Zm7.36-4.74h1.62v6.49H71l-3-3.7v3.7H66.4v-6.49h1.24l3,3.66v-3.66Z"/></g></g></svg>