<svg width="160" height="26" viewBox="0 0 160 26" fill="none" xmlns="http://www.w3.org/2000/svg">
<g clip-path="url(#clip0_6594_3575)">
<path d="M18.3028 22.2066H18.3028C18.3047 21.957 18.3076 21.7079 18.3104 21.4593C18.323 20.3597 18.3354 19.2699 18.267 18.1835M18.3028 22.2066L18.267 18.1835M18.3028 22.2066V22.2086V22.2066ZM18.267 18.1835C18.2245 17.5082 17.9508 16.9916 17.5158 16.6431C17.0769 16.2916 16.4518 16.0943 15.6826 16.1065L15.6823 16.1065C14.4108 16.1255 13.4681 16.994 13.3835 18.2543M18.267 18.1835L13.3835 18.2543M13.3835 18.2543C13.3588 18.6822 13.3669 19.1053 13.3753 19.5392C13.3796 19.7618 13.3839 19.9872 13.3839 20.2176V20.4676H13.3639C13.3627 20.6183 13.3607 20.7676 13.3587 20.916C13.3526 21.368 13.3466 21.8122 13.3647 22.2673C13.3757 22.5157 13.4508 22.679 13.5563 22.7818C13.6619 22.8849 13.8284 22.9569 14.08 22.9628C14.3309 22.9686 14.4997 22.9043 14.6107 22.8059C14.7222 22.7071 14.8061 22.5467 14.8332 22.3007C14.8673 21.9906 14.8709 21.6856 14.8746 21.3672C14.8764 21.2142 14.8783 21.058 14.8836 20.8967L15.1334 20.9049M13.3835 18.2543L16.8343 22.1557C16.8343 21.2603 16.8343 20.3632 16.8241 19.4675C16.8418 19.0969 16.7906 18.7261 16.6731 18.3743L16.6696 18.3638L16.6652 18.3536C16.5974 18.1979 16.4736 18.0374 16.3404 17.9157C16.2726 17.8537 16.1958 17.7958 16.1143 17.7523C16.0354 17.7102 15.9356 17.6728 15.8266 17.6737L15.8001 17.6739L15.7743 17.6797C15.5959 17.7195 15.4309 17.805 15.2954 17.9278C15.1599 18.0507 15.0586 18.2066 15.0013 18.3803L14.9933 18.4043L14.9904 18.4295C14.9198 19.0307 14.9089 19.6447 14.8982 20.2433C14.8943 20.4638 14.8904 20.6821 14.8836 20.897L15.1334 20.9049M15.1334 20.9049C15.1405 20.6824 15.1445 20.4594 15.1485 20.2363C15.1591 19.6417 15.1697 19.0465 15.2387 18.4587M15.1334 20.9049C15.1285 21.0547 15.1267 21.2049 15.1249 21.3551C15.121 21.6804 15.1171 22.0058 15.0817 22.328C15.0179 22.908 14.6676 23.2265 14.0742 23.2127L15.2387 18.4587M15.2387 18.4587C15.2825 18.3259 15.3599 18.2068 15.4633 18.113C15.5668 18.0193 15.6926 17.954 15.8287 17.9237L15.2387 18.4587ZM17.5798 23.211V22.961C17.5796 22.961 17.5793 22.961 17.5791 22.961C17.5789 22.961 17.5787 22.961 17.5784 22.961L17.5798 23.211Z" fill="#37384E" stroke="white" stroke-width="0.5"/>
<path d="M21.5915 23.2857L21.5915 23.2857C21.154 23.1726 20.8472 22.9769 20.6463 22.7147C20.445 22.4521 20.3312 22.0984 20.3245 21.6355C20.3246 21.4928 20.3264 21.3467 20.3283 21.1989C20.3321 20.8953 20.3361 20.5845 20.3244 20.2806L20.3242 20.2779C20.3171 20.1328 20.3244 20.0223 20.3426 19.9418C20.3607 19.8617 20.3856 19.8277 20.401 19.8136C20.4198 19.7963 20.5072 19.7406 20.8175 19.85C21.2249 20.0209 21.6573 20.124 22.0977 20.1553L22.1066 20.1559H22.1155C22.3182 20.1559 22.5571 20.131 22.7785 20.069C22.9924 20.009 23.2255 19.9046 23.377 19.7199C23.4594 19.6226 23.4987 19.5009 23.5178 19.3934C23.5376 19.2811 23.5396 19.1599 23.5297 19.0433C23.5105 18.8164 23.4425 18.5626 23.3253 18.3841C21.1811 15.0779 19.0121 11.7856 16.8184 8.50719C16.561 8.12036 16.216 7.87779 15.8231 7.88516C15.4332 7.89248 15.0901 8.14455 14.8306 8.53492C12.6587 11.7948 10.4875 15.0577 8.35766 18.3452L8.35236 18.3534L8.34771 18.3619C8.23814 18.564 8.17275 18.7871 8.15588 19.0165C8.139 19.2458 8.17102 19.4761 8.24981 19.6921L8.25296 19.7007L8.25673 19.7091C8.39081 20.0067 8.62794 20.1897 8.91227 20.251C9.17967 20.3086 9.46831 20.255 9.73382 20.1289C9.8418 20.0999 9.95159 20.0782 10.0625 20.0638L10.0816 20.0614L10.1001 20.056C10.5517 19.9249 10.855 19.8428 11.0642 19.8119C11.2379 19.7863 11.2891 19.8058 11.2983 19.8107C11.3013 19.8149 11.3106 19.8305 11.3199 19.8708C11.3319 19.9234 11.3394 19.9985 11.3422 20.1071C11.3452 20.2277 11.3426 20.3616 11.3393 20.5221C11.3364 20.666 11.3331 20.8313 11.3331 21.0278C11.3331 21.9528 11.2516 22.4189 11.0136 22.7213C10.775 23.0245 10.338 23.2157 9.438 23.4428C8.40376 23.7034 7.3667 23.97 6.33048 24.2364C5.41584 24.4715 4.50185 24.7065 3.59105 24.937L3.59103 24.937C2.79512 25.1385 2.0974 25.0623 1.5485 24.77C1.00113 24.4784 0.576256 23.9585 0.347962 23.2228C0.0979046 22.3886 0.355466 21.6579 0.848643 20.913L0.848654 20.913C3.78033 16.4845 6.71316 12.0548 9.64715 7.62393L9.64739 7.62355C9.85951 7.30197 10.0717 6.9801 10.284 6.65805C11.3567 5.03083 12.4324 3.39899 13.5178 1.77674C14.2115 0.740986 15.0408 0.258653 15.8254 0.249716C16.6079 0.240804 17.427 0.701948 18.1044 1.72865L18.1048 1.72916C22.3601 8.14498 26.6074 14.57 30.8467 21.0043L30.8471 21.005C31.3193 21.7166 31.4815 22.4712 31.3685 23.1211C31.2566 23.7653 30.8725 24.3231 30.2143 24.6586C29.5589 24.9642 28.8244 25.0557 28.1145 24.9203C26.4914 24.584 24.8897 24.1583 23.2802 23.7305C22.7187 23.5812 22.1562 23.4317 21.5915 23.2857ZM11.3 19.8117C11.2999 19.8117 11.2997 19.8116 11.2992 19.8112L11.3 19.8117Z" fill="#218366" stroke="white" stroke-width="0.5"/>
<path d="M52.6118 2.12882L52.6246 2.13015H52.6375H55.5704H55.5852L55.5999 2.1284C55.6527 2.12211 55.7063 2.12789 55.7567 2.14532C55.807 2.16276 55.8528 2.19142 55.8907 2.22923C55.9286 2.26703 55.9575 2.31301 55.9752 2.36374C55.993 2.41448 55.9991 2.46861 55.993 2.52207L55.9915 2.53607V2.55015V19.97V19.984L55.993 19.9979C55.999 20.0512 55.9929 20.1052 55.9753 20.1557C55.9577 20.2063 55.929 20.2521 55.8913 20.2899C55.8537 20.3277 55.8081 20.3564 55.758 20.374C55.7079 20.3916 55.6546 20.3976 55.6019 20.3916L55.5879 20.39H55.5738H53.5726V20.3897L53.5602 20.3903C53.441 20.3962 53.3222 20.3704 53.216 20.3153C53.1098 20.2602 53.0199 20.1779 52.9555 20.0766L52.9553 20.0764L46.5721 10.0541L46.1113 9.33055V10.1884V19.97V19.9836L46.1127 19.9971C46.1186 20.0506 46.1123 20.1046 46.0945 20.1553C46.0767 20.206 46.0479 20.2519 46.0101 20.2897C45.9723 20.3275 45.9266 20.3563 45.8764 20.3739C45.8261 20.3915 45.7726 20.3975 45.7198 20.3916L45.7059 20.39H45.6919H42.759H42.7449L42.7309 20.3916C42.6783 20.3976 42.6249 20.3916 42.5748 20.374C42.5247 20.3564 42.4792 20.3277 42.4415 20.2899C42.4039 20.2521 42.3752 20.2063 42.3575 20.1557C42.3399 20.1052 42.3338 20.0512 42.3398 19.9979L42.3414 19.984V19.97V2.55015V2.53615L42.3398 2.52224C42.3338 2.46897 42.3399 2.41503 42.3575 2.36447C42.3752 2.3139 42.4039 2.26805 42.4415 2.23028C42.4792 2.19251 42.5247 2.1638 42.5748 2.14622C42.6249 2.12863 42.6783 2.12261 42.7309 2.12857L42.7449 2.13015H42.759H44.762V2.13046L44.7743 2.12984C44.8936 2.12395 45.0123 2.1497 45.1185 2.20456C45.2247 2.25938 45.3147 2.34134 45.3794 2.4423C45.3794 2.44239 45.3795 2.44248 45.3795 2.44257L51.7624 12.466L52.2233 13.1898V12.3317V2.55015V2.53667L52.2219 2.52328C52.2161 2.47013 52.2223 2.41637 52.2399 2.36596C52.2575 2.31555 52.2861 2.2698 52.3236 2.23204C52.361 2.19428 52.4063 2.16546 52.4562 2.14762C52.506 2.12979 52.5592 2.12337 52.6118 2.12882Z" fill="#37384E" stroke="white" stroke-width="0.5"/>
<path d="M58.9067 13.9419L58.9067 13.9393C58.9024 12.5837 59.2991 11.2575 60.0463 10.1284C60.7936 8.99938 61.8578 8.11838 63.1041 7.59683C64.3504 7.07529 65.7229 6.93662 67.0477 7.19833C68.3726 7.46004 69.5903 8.1104 70.5468 9.0672C71.5033 10.024 72.1555 11.2442 72.4206 12.5734C72.6857 13.9026 72.5518 15.2808 72.0359 16.5335C71.52 17.7862 70.6453 18.8569 69.5228 19.6103C68.4002 20.3636 67.0803 20.7657 65.73 20.7657L65.7274 20.7657C64.831 20.7753 63.9416 20.6055 63.1113 20.2663C62.2809 19.9271 61.5262 19.4253 60.8912 18.79C60.2562 18.1548 59.7536 17.3989 59.4128 16.5665C59.0721 15.7341 58.9 14.8419 58.9067 13.9419ZM69.0384 14.1901H69.0543V13.9401C69.0543 11.8984 67.6079 10.5271 65.7335 10.5271C63.8589 10.5271 62.4126 11.9003 62.4126 13.9401C62.4126 15.9799 63.8589 17.3531 65.7335 17.3531C67.5312 17.3531 68.9259 16.0905 69.0384 14.1901Z" fill="#37384E" stroke="white" stroke-width="0.5"/>
<path d="M81.7691 7.88293L81.7676 7.89648V7.91011V10.4291V10.4426L81.7691 10.4561C81.7749 10.5095 81.7687 10.5634 81.751 10.614C81.7332 10.6646 81.7044 10.7104 81.6668 10.7482C81.6291 10.786 81.5835 10.8148 81.5334 10.8325C81.4833 10.8502 81.43 10.8563 81.3772 10.8506L81.3636 10.8491H81.35H79.8767H79.6267V11.0991V19.97V19.984L79.6282 19.9979C79.6342 20.0512 79.6282 20.1052 79.6105 20.1557C79.5929 20.2063 79.5642 20.2521 79.5265 20.2899C79.4889 20.3277 79.4433 20.3564 79.3932 20.374C79.3432 20.3916 79.2898 20.3976 79.2371 20.3916L79.2231 20.39H79.209H76.5419H76.5278L76.5138 20.3916C76.4611 20.3976 76.4077 20.3916 76.3576 20.374C76.3076 20.3564 76.262 20.3277 76.2244 20.2899C76.1867 20.2521 76.158 20.2063 76.1404 20.1557C76.1227 20.1051 76.1167 20.0512 76.1226 19.9979L76.1242 19.984V19.97V11.0991V10.8491H75.8742H74.4061H74.392L74.378 10.8507C74.3253 10.8566 74.2719 10.8506 74.2218 10.833C74.1718 10.8154 74.1262 10.7867 74.0886 10.749C74.0509 10.7112 74.0222 10.6653 74.0046 10.6148C73.9869 10.5642 73.9809 10.5103 73.9869 10.457L73.9884 10.4431V10.4291V7.91011V7.89612L73.9869 7.88221C73.9809 7.82893 73.9869 7.775 74.0046 7.72443C74.0222 7.67387 74.0509 7.62801 74.0886 7.59025C74.1262 7.55248 74.1718 7.52377 74.2218 7.50618C74.2719 7.4886 74.3253 7.48257 74.378 7.48853L74.392 7.49012H74.4061H75.8742H76.1242V7.24012V3.62179V3.6078L76.1226 3.59389C76.1167 3.54062 76.1227 3.48669 76.1404 3.43611C76.158 3.38555 76.1867 3.33969 76.2244 3.30193C76.262 3.26416 76.3076 3.23545 76.3576 3.21786C76.4077 3.20028 76.4611 3.19425 76.5138 3.20021L76.5278 3.2018H76.5419H79.2125H79.2258L79.2391 3.20037C79.2916 3.19474 79.3448 3.20101 79.3946 3.21874C79.4444 3.23648 79.4897 3.26524 79.5271 3.30296C79.5645 3.34069 79.5931 3.38642 79.6106 3.43683C79.6281 3.48723 79.6341 3.54096 79.6282 3.59405L79.6267 3.60788V3.62179V7.24012V7.49012H79.8767H81.3465H81.3609L81.3752 7.48847C81.4281 7.48236 81.4817 7.48829 81.5321 7.50583C81.5824 7.52338 81.6283 7.5521 81.6662 7.58994C81.7041 7.62778 81.733 7.67376 81.7509 7.7245C81.7687 7.77525 81.775 7.8294 81.7691 7.88293Z" fill="#37384E" stroke="white" stroke-width="0.5"/>
<path d="M96.3632 16.215L96.3629 16.2148L96.3593 16.2268C95.5645 18.9022 93.0442 20.7657 90.0294 20.7657C86.1097 20.7657 83.2061 17.7976 83.2061 13.9401C83.2061 10.0826 86.1131 7.11443 90.0294 7.11443C93.0492 7.11443 95.5645 8.97779 96.3593 11.6533L96.359 11.6534L96.3632 11.6652C96.4231 11.8351 96.3894 11.9265 96.3531 11.9723C96.3115 12.0247 96.2158 12.0817 96.0383 12.0817L93.1055 12.0817L93.1047 12.0817C92.9857 12.0821 92.8686 12.0515 92.7648 11.993C92.661 11.9344 92.5739 11.8499 92.5122 11.7474L92.507 11.7387L92.5011 11.7305C91.9629 10.9814 91.0505 10.5877 90.0277 10.5877C88.1557 10.5877 86.7068 11.9584 86.7068 13.9539C86.7068 15.9495 88.1557 17.3202 90.0277 17.3202C91.0514 17.3202 91.9608 16.9192 92.4981 16.2021L92.5024 16.1964L92.5063 16.1905C92.6042 16.0431 92.6877 15.9547 92.7723 15.9009C92.8521 15.8502 92.9502 15.8192 93.0986 15.8192H96.0314V15.8194L96.0427 15.8189C96.2226 15.8108 96.3157 15.8657 96.3544 15.9131C96.3884 15.9549 96.4234 16.044 96.3632 16.215Z" fill="#37384E" stroke="white" stroke-width="0.5"/>
<path d="M110.163 19.97V19.9836L110.164 19.9971C110.17 20.0504 110.164 20.1044 110.146 20.1549C110.128 20.2055 110.099 20.2514 110.062 20.2892C110.024 20.327 109.979 20.3557 109.928 20.3734C109.878 20.3911 109.825 20.3973 109.772 20.3915L109.759 20.39H109.745H107.069H107.055L107.041 20.3916C106.988 20.3976 106.935 20.3915 106.885 20.374C106.835 20.3564 106.789 20.3277 106.752 20.2899C106.714 20.2521 106.685 20.2063 106.668 20.1557C106.65 20.1051 106.644 20.0512 106.65 19.9979L106.652 19.984V19.97V12.4927C106.652 11.7744 106.443 11.2209 106.063 10.8475C105.684 10.4755 105.167 10.3141 104.613 10.3141C103.963 10.3141 103.399 10.4947 103 10.9265C102.605 11.3546 102.411 11.9887 102.411 12.8148V19.97V19.984L102.413 19.9979C102.419 20.0512 102.413 20.1051 102.395 20.1557C102.378 20.2063 102.349 20.2521 102.311 20.2899C102.274 20.3277 102.228 20.3564 102.178 20.374C102.128 20.3915 102.074 20.3976 102.022 20.3916L102.008 20.39H101.994H99.3231H99.3094L99.2959 20.3915C99.2431 20.3973 99.1897 20.3911 99.1396 20.3734C99.0895 20.3557 99.044 20.327 99.0063 20.2892C98.9686 20.2514 98.9398 20.2055 98.9221 20.1549C98.9044 20.1043 98.8982 20.0504 98.904 19.9971L98.9054 19.9836V19.97V2.55014V2.53659L98.904 2.52311C98.8982 2.46979 98.9044 2.41583 98.9221 2.36524C98.9398 2.31467 98.9686 2.26881 99.0063 2.231C99.044 2.19321 99.0895 2.16443 99.1396 2.14674C99.1897 2.12905 99.2431 2.12288 99.2959 2.12866L99.3094 2.13014H99.3231H101.994H102.008L102.022 2.12856C102.074 2.1226 102.128 2.12862 102.178 2.14621C102.228 2.16379 102.274 2.19251 102.311 2.23027C102.349 2.26804 102.378 2.31389 102.395 2.36446C102.413 2.41503 102.419 2.46896 102.413 2.52223L102.411 2.53614V2.55014V8.46411V9.28212L102.869 8.60386C103.444 7.75096 104.497 7.11443 106.134 7.11443C107.307 7.11443 108.305 7.56777 109.014 8.40939C109.726 9.25478 110.163 10.5127 110.163 12.1448V19.97Z" fill="#37384E" stroke="white" stroke-width="0.5"/>
<path d="M124.081 14.4916H123.831V14.7416V19.9683V19.9823L123.833 19.9962C123.839 20.0495 123.833 20.1034 123.815 20.154C123.798 20.2045 123.769 20.2504 123.731 20.2882C123.694 20.3259 123.648 20.3546 123.598 20.3722C123.548 20.3898 123.495 20.3958 123.442 20.3899L123.428 20.3883H123.414H120.481H120.467L120.453 20.3899C120.4 20.3958 120.347 20.3898 120.297 20.3722C120.247 20.3546 120.201 20.3259 120.163 20.2882C120.126 20.2504 120.097 20.2045 120.079 20.154C120.062 20.1034 120.056 20.0495 120.062 19.9962L120.063 19.9823V19.9683V2.55014V2.53614L120.062 2.52223C120.056 2.46896 120.062 2.41503 120.079 2.36446C120.097 2.31389 120.126 2.26804 120.163 2.23027C120.201 2.19251 120.247 2.16379 120.297 2.14621C120.347 2.12862 120.4 2.1226 120.453 2.12856L120.467 2.13014H120.481H126.89C130.436 2.13014 133.179 4.88765 133.179 8.31002C133.179 11.734 130.436 14.4916 126.885 14.4916H124.081ZM124.081 5.64839H123.831V5.89839V10.7234V10.9734H124.081H126.885C128.348 10.9734 129.405 9.80133 129.405 8.31002C129.405 6.82218 128.348 5.64839 126.885 5.64839H124.081Z" fill="#218366" stroke="white" stroke-width="0.5"/>
<path d="M139.782 18.4247C140.47 18.4265 141.032 18.2795 141.431 18.0029C141.837 17.7209 142.061 17.3104 142.061 16.8347C142.061 16.3353 141.839 15.9228 141.427 15.6457C141.026 15.3764 140.463 15.2447 139.782 15.2447C139.134 15.2447 138.618 15.3929 138.258 15.6772C137.892 15.9671 137.716 16.3775 137.716 16.8347C137.716 17.292 137.892 17.7024 138.258 17.9923C138.618 18.2765 139.134 18.4247 139.782 18.4247ZM139.782 18.4247C139.782 18.4247 139.782 18.4247 139.782 18.4247L139.782 18.1747V18.4247C139.782 18.4247 139.782 18.4247 139.782 18.4247ZM145.465 19.97V19.9836L145.467 19.9971C145.473 20.0504 145.466 20.1044 145.449 20.1549C145.431 20.2055 145.402 20.2514 145.364 20.2892C145.327 20.327 145.281 20.3557 145.231 20.3734C145.181 20.3911 145.128 20.3973 145.075 20.3915L145.061 20.39H145.048H142.482H142.469L142.455 20.3915C142.402 20.3973 142.349 20.3911 142.299 20.3734C142.249 20.3557 142.203 20.327 142.166 20.2892C142.128 20.2514 142.099 20.2055 142.081 20.1549C142.064 20.1044 142.057 20.0504 142.063 19.9971L142.065 19.9836V19.97V19.5874V18.9079L141.624 19.4254C140.959 20.2077 139.979 20.7657 138.364 20.7657C137.236 20.7657 136.197 20.4332 135.443 19.7843C134.695 19.1399 134.208 18.1661 134.208 16.8347C134.208 15.5034 134.695 14.5296 135.443 13.8852C136.197 13.2363 137.236 12.9038 138.364 12.9038C139.99 12.9038 140.987 13.361 141.664 13.8744L142.065 14.1787V13.6752V12.465C142.065 11.7814 141.927 11.2331 141.596 10.8553C141.258 10.4704 140.763 10.3107 140.16 10.3107C139.267 10.3107 138.653 10.6616 138.382 11.2286L138.382 11.2285L138.378 11.2381C138.297 11.4278 138.239 11.5317 138.176 11.5934C138.128 11.6402 138.063 11.6766 137.917 11.6766H135.299C135.13 11.6766 135.029 11.6296 134.973 11.5734C134.92 11.52 134.873 11.4249 134.88 11.2547C135.21 8.53278 137.522 7.11617 140.152 7.11617L140.152 7.11617C141.578 7.11533 142.907 7.53053 143.875 8.3642C144.837 9.19319 145.465 10.4548 145.465 12.1984V19.97Z" fill="#218366" stroke="white" stroke-width="0.5"/>
<path d="M156.488 7.48958L156.497 7.49013H156.505H159.389C159.591 7.49013 159.68 7.54691 159.713 7.5892C159.742 7.6255 159.778 7.71431 159.713 7.9107L159.713 7.91139L153.944 25.3867L153.943 25.3866L153.941 25.3963C153.902 25.5307 153.836 25.6121 153.757 25.6633C153.675 25.7171 153.559 25.75 153.406 25.75H150.522C150.32 25.75 150.231 25.6932 150.198 25.6509C150.169 25.6146 150.133 25.5258 150.198 25.3294L150.198 25.3292L151.801 20.5077L151.829 20.4234L151.798 20.3403L147.099 7.93181C147.036 7.75138 147.064 7.64789 147.097 7.59834C147.129 7.55109 147.21 7.49013 147.397 7.49013H150.282V7.49038L150.293 7.48988C150.403 7.48494 150.512 7.51729 150.602 7.58188C150.692 7.64648 150.758 7.73964 150.789 7.84653L150.791 7.85383L150.794 7.86098L153.331 14.9591L153.584 15.6652L153.806 14.9489L155.997 7.87327L155.999 7.86398L156.002 7.85449C156.026 7.74514 156.089 7.64844 156.178 7.58163C156.268 7.51484 156.377 7.48226 156.488 7.48958Z" fill="#218366" stroke="white" stroke-width="0.5"/>
</g>
<defs>
<clipPath id="clip0_6594_3575">
<rect width="160" height="26" fill="white"/>
</clipPath>
</defs>
</svg>
