<svg width="165" height="28" viewBox="0 0 165 28" fill="none" xmlns="http://www.w3.org/2000/svg">
<g clip-path="url(#clip0_6594_3606)">
<mask id="path-1-outside-1_6594_3606" maskUnits="userSpaceOnUse" x="0.666687" y="0.333334" width="165" height="28" fill="black">
<rect fill="white" x="0.666687" y="0.333334" width="165" height="28"/>
<path fill-rule="evenodd" clip-rule="evenodd" d="M3.37379 1.62623C2.98327 1.2357 2.3501 1.2357 1.95958 1.62623C1.56906 2.01675 1.56906 2.64992 1.95958 3.04044L11.2525 12.3333L1.95958 21.6262C1.56906 22.0168 1.56906 22.6499 1.95958 23.0404C2.3501 23.431 2.98327 23.431 3.37379 23.0404L13.3738 13.0404C13.7643 12.6499 13.7643 12.0168 13.3738 11.6262L3.37379 1.62623ZM16 24.6667C15.4477 24.6667 15 25.1144 15 25.6667C15 26.219 15.4477 26.6667 16 26.6667H29.3334C29.8856 26.6667 30.3334 26.219 30.3334 25.6667C30.3334 25.1144 29.8856 24.6667 29.3334 24.6667H16ZM53.6136 8.43182C53.4924 7.35606 52.9924 6.52273 52.1136 5.93182C51.2348 5.33333 50.1288 5.03409 48.7955 5.03409C47.8409 5.03409 47.0152 5.18561 46.3182 5.48864C45.6212 5.78409 45.0795 6.19318 44.6932 6.71591C44.3144 7.23106 44.125 7.81818 44.125 8.47727C44.125 9.0303 44.2538 9.50758 44.5114 9.90909C44.7765 10.3106 45.1212 10.6477 45.5455 10.9205C45.9773 11.1856 46.4394 11.4091 46.9318 11.5909C47.4242 11.7652 47.8977 11.9091 48.3523 12.0227L50.625 12.6136C51.3674 12.7955 52.1288 13.0417 52.9091 13.3523C53.6894 13.6629 54.4129 14.072 55.0795 14.5795C55.7462 15.0871 56.2841 15.7159 56.6932 16.4659C57.1098 17.2159 57.3182 18.1136 57.3182 19.1591C57.3182 20.4773 56.9773 21.6477 56.2955 22.6705C55.6212 23.6932 54.6402 24.5 53.3523 25.0909C52.072 25.6818 50.5227 25.9773 48.7045 25.9773C46.9621 25.9773 45.4545 25.7008 44.1818 25.1477C42.9091 24.5947 41.9129 23.8106 41.1932 22.7955C40.4735 21.7727 40.0758 20.5606 40 19.1591H43.5227C43.5909 20 43.8636 20.7008 44.3409 21.2614C44.8258 21.8144 45.4432 22.2273 46.1932 22.5C46.9508 22.7652 47.7803 22.8977 48.6818 22.8977C49.6742 22.8977 50.5568 22.7424 51.3295 22.4318C52.1098 22.1136 52.7235 21.6742 53.1705 21.1136C53.6174 20.5455 53.8409 19.8826 53.8409 19.125C53.8409 18.4356 53.6439 17.8712 53.25 17.4318C52.8636 16.9924 52.3371 16.6288 51.6705 16.3409C51.0114 16.053 50.2652 15.7992 49.4318 15.5795L46.6818 14.8295C44.8182 14.322 43.3409 13.5758 42.25 12.5909C41.1667 11.6061 40.625 10.303 40.625 8.68182C40.625 7.34091 40.9886 6.17045 41.7159 5.17045C42.4432 4.17045 43.428 3.39394 44.6705 2.84091C45.9129 2.2803 47.3144 2 48.875 2C50.4508 2 51.8409 2.27652 53.0455 2.82955C54.2576 3.38258 55.2121 4.14394 55.9091 5.11364C56.6061 6.07576 56.9697 7.18182 57 8.43182H53.6136ZM64.6392 15.2273V25.5909H61.2415V2.31818H64.5938V10.9773H64.8097C65.2188 10.0379 65.8438 9.29167 66.6847 8.73864C67.5256 8.18561 68.6241 7.90909 69.9801 7.90909C71.1771 7.90909 72.2225 8.1553 73.1165 8.64773C74.018 9.14015 74.715 9.875 75.2074 10.8523C75.7074 11.822 75.9574 13.0341 75.9574 14.4886V25.5909H72.5597V14.8977C72.5597 13.6174 72.2301 12.625 71.571 11.9205C70.9119 11.2083 69.9953 10.8523 68.821 10.8523C68.018 10.8523 67.2983 11.0227 66.6619 11.3636C66.0331 11.7045 65.5369 12.2045 65.1733 12.8636C64.8172 13.5152 64.6392 14.303 64.6392 15.2273ZM82.571 25.3636C83.465 25.7727 84.465 25.9773 85.571 25.9773C86.5331 25.9773 87.3589 25.8371 88.0483 25.5568C88.7377 25.2765 89.3021 24.9242 89.7415 24.5C90.1809 24.0758 90.5104 23.6439 90.7301 23.2045H90.8665V25.5909H94.1847V14C94.1847 12.7273 93.965 11.6932 93.5256 10.8977C93.0862 10.0947 92.5218 9.47727 91.8324 9.04545C91.1506 8.61364 90.4157 8.31818 89.6278 8.15909C88.8475 7.99243 88.1089 7.90909 87.4119 7.90909C86.3589 7.90909 85.3551 8.06061 84.4006 8.36364C83.446 8.65909 82.6013 9.13636 81.8665 9.79546C81.1392 10.447 80.5862 11.303 80.2074 12.3636L83.4006 13.0909C83.6506 12.4773 84.1013 11.9205 84.7528 11.4205C85.4119 10.9129 86.3134 10.6591 87.4574 10.6591C88.5559 10.6591 89.3816 10.9318 89.9347 11.4773C90.4953 12.0227 90.7756 12.7917 90.7756 13.7841V13.8636C90.7756 14.2727 90.6278 14.5682 90.3324 14.75C90.0369 14.9318 89.5634 15.0644 88.9119 15.1477C88.2604 15.2235 87.4119 15.322 86.3665 15.4432C85.5407 15.5417 84.7301 15.6856 83.9347 15.875C83.1392 16.0644 82.4195 16.3447 81.7756 16.7159C81.1316 17.0871 80.6203 17.5909 80.2415 18.2273C79.8627 18.8636 79.6733 19.6742 79.6733 20.6591C79.6733 21.803 79.9309 22.7689 80.446 23.5568C80.9688 24.3447 81.6771 24.947 82.571 25.3636ZM88.7188 22.6932C88.0521 23.0644 87.2491 23.25 86.3097 23.25C85.3475 23.25 84.5559 23.0379 83.9347 22.6136C83.3134 22.1818 83.0028 21.5455 83.0028 20.7045C83.0028 20.0985 83.1619 19.6136 83.4801 19.25C83.8059 18.8788 84.2377 18.5947 84.7756 18.3977C85.321 18.2008 85.9233 18.0606 86.5824 17.9773C86.8627 17.9394 87.2112 17.8939 87.6278 17.8409C88.0445 17.7803 88.4725 17.7159 88.9119 17.6477C89.3513 17.572 89.7415 17.4849 90.0824 17.3864C90.4309 17.2803 90.6657 17.1667 90.7869 17.0455V19.2955C90.7869 19.9849 90.6089 20.6326 90.2528 21.2386C89.9044 21.8371 89.393 22.322 88.7188 22.6932ZM98.7102 25.5909V8.13636H101.994V10.9091H102.176C102.494 9.9697 103.055 9.23106 103.858 8.69318C104.669 8.14773 105.585 7.875 106.608 7.875C106.82 7.875 107.07 7.88258 107.358 7.89773C107.653 7.91288 107.884 7.93182 108.051 7.95455V11.2045C107.915 11.1667 107.672 11.125 107.324 11.0795C106.975 11.0265 106.627 11 106.278 11C105.475 11 104.759 11.1705 104.131 11.5114C103.509 11.8447 103.017 12.3106 102.653 12.9091C102.29 13.5 102.108 14.1742 102.108 14.9318V25.5909H98.7102ZM122.048 8.13636V18.3523C122.056 19.3447 121.848 20.1629 121.423 20.8068C121.007 21.4508 120.48 21.9318 119.844 22.25C119.215 22.5682 118.582 22.7273 117.946 22.7273C116.893 22.7273 116.037 22.375 115.378 21.6705C114.719 20.9659 114.389 20.0189 114.389 18.8295V8.13636H110.991V19.2386C110.991 20.678 111.234 21.8864 111.719 22.8636C112.211 23.8409 112.885 24.5795 113.741 25.0795C114.605 25.572 115.598 25.8182 116.719 25.8182C118.029 25.8182 119.124 25.5114 120.003 24.8977C120.889 24.2765 121.533 23.5 121.935 22.5682H122.116V25.5909H125.457V8.13636H122.048ZM137.375 25.9432C135.686 25.9432 134.231 25.5606 133.011 24.7955C131.799 24.0227 130.867 22.9583 130.216 21.6023C129.564 20.2462 129.239 18.6932 129.239 16.9432C129.239 15.1705 129.572 13.6061 130.239 12.25C130.905 10.8864 131.845 9.82197 133.057 9.05682C134.269 8.29167 135.697 7.90909 137.341 7.90909C138.667 7.90909 139.848 8.1553 140.886 8.64773C141.924 9.13258 142.761 9.81439 143.398 10.6932C144.042 11.572 144.424 12.5985 144.545 13.7727H141.239C141.057 12.9545 140.64 12.25 139.989 11.6591C139.345 11.0682 138.481 10.7727 137.398 10.7727C136.451 10.7727 135.621 11.0227 134.909 11.5227C134.205 12.0152 133.655 12.7197 133.261 13.6364C132.867 14.5455 132.67 15.6212 132.67 16.8636C132.67 18.1364 132.864 19.2349 133.25 20.1591C133.636 21.0833 134.182 21.7992 134.886 22.3068C135.598 22.8144 136.436 23.0682 137.398 23.0682C138.042 23.0682 138.625 22.9508 139.148 22.7159C139.678 22.4735 140.121 22.1288 140.477 21.6818C140.841 21.2349 141.095 20.697 141.239 20.0682H144.545C144.424 21.197 144.057 22.2045 143.443 23.0909C142.83 23.9773 142.008 24.6742 140.977 25.1818C139.955 25.6894 138.754 25.9432 137.375 25.9432ZM151.247 24.8182C152.467 25.5682 153.895 25.9432 155.531 25.9432C157.168 25.9432 158.596 25.5682 159.815 24.8182C161.035 24.0682 161.982 23.0189 162.656 21.6705C163.33 20.322 163.668 18.7462 163.668 16.9432C163.668 15.1326 163.33 13.5492 162.656 12.1932C161.982 10.8371 161.035 9.78409 159.815 9.03409C158.596 8.28409 157.168 7.90909 155.531 7.90909C153.895 7.90909 152.467 8.28409 151.247 9.03409C150.027 9.78409 149.08 10.8371 148.406 12.1932C147.732 13.5492 147.395 15.1326 147.395 16.9432C147.395 18.7462 147.732 20.322 148.406 21.6705C149.08 23.0189 150.027 24.0682 151.247 24.8182ZM158.179 22.25C157.482 22.8106 156.603 23.0909 155.543 23.0909C154.474 23.0909 153.588 22.8106 152.884 22.25C152.187 21.6894 151.668 20.9432 151.327 20.0114C150.993 19.0795 150.827 18.053 150.827 16.9318C150.827 15.8182 150.993 14.7955 151.327 13.8636C151.668 12.9242 152.187 12.1705 152.884 11.6023C153.588 11.0341 154.474 10.75 155.543 10.75C156.603 10.75 157.482 11.0341 158.179 11.6023C158.876 12.1705 159.391 12.9242 159.724 13.8636C160.065 14.7955 160.236 15.8182 160.236 16.9318C160.236 18.053 160.065 19.0795 159.724 20.0114C159.391 20.9432 158.876 21.6894 158.179 22.25Z"/>
</mask>
<path fill-rule="evenodd" clip-rule="evenodd" d="M3.37379 1.62623C2.98327 1.2357 2.3501 1.2357 1.95958 1.62623C1.56906 2.01675 1.56906 2.64992 1.95958 3.04044L11.2525 12.3333L1.95958 21.6262C1.56906 22.0168 1.56906 22.6499 1.95958 23.0404C2.3501 23.431 2.98327 23.431 3.37379 23.0404L13.3738 13.0404C13.7643 12.6499 13.7643 12.0168 13.3738 11.6262L3.37379 1.62623ZM16 24.6667C15.4477 24.6667 15 25.1144 15 25.6667C15 26.219 15.4477 26.6667 16 26.6667H29.3334C29.8856 26.6667 30.3334 26.219 30.3334 25.6667C30.3334 25.1144 29.8856 24.6667 29.3334 24.6667H16ZM53.6136 8.43182C53.4924 7.35606 52.9924 6.52273 52.1136 5.93182C51.2348 5.33333 50.1288 5.03409 48.7955 5.03409C47.8409 5.03409 47.0152 5.18561 46.3182 5.48864C45.6212 5.78409 45.0795 6.19318 44.6932 6.71591C44.3144 7.23106 44.125 7.81818 44.125 8.47727C44.125 9.0303 44.2538 9.50758 44.5114 9.90909C44.7765 10.3106 45.1212 10.6477 45.5455 10.9205C45.9773 11.1856 46.4394 11.4091 46.9318 11.5909C47.4242 11.7652 47.8977 11.9091 48.3523 12.0227L50.625 12.6136C51.3674 12.7955 52.1288 13.0417 52.9091 13.3523C53.6894 13.6629 54.4129 14.072 55.0795 14.5795C55.7462 15.0871 56.2841 15.7159 56.6932 16.4659C57.1098 17.2159 57.3182 18.1136 57.3182 19.1591C57.3182 20.4773 56.9773 21.6477 56.2955 22.6705C55.6212 23.6932 54.6402 24.5 53.3523 25.0909C52.072 25.6818 50.5227 25.9773 48.7045 25.9773C46.9621 25.9773 45.4545 25.7008 44.1818 25.1477C42.9091 24.5947 41.9129 23.8106 41.1932 22.7955C40.4735 21.7727 40.0758 20.5606 40 19.1591H43.5227C43.5909 20 43.8636 20.7008 44.3409 21.2614C44.8258 21.8144 45.4432 22.2273 46.1932 22.5C46.9508 22.7652 47.7803 22.8977 48.6818 22.8977C49.6742 22.8977 50.5568 22.7424 51.3295 22.4318C52.1098 22.1136 52.7235 21.6742 53.1705 21.1136C53.6174 20.5455 53.8409 19.8826 53.8409 19.125C53.8409 18.4356 53.6439 17.8712 53.25 17.4318C52.8636 16.9924 52.3371 16.6288 51.6705 16.3409C51.0114 16.053 50.2652 15.7992 49.4318 15.5795L46.6818 14.8295C44.8182 14.322 43.3409 13.5758 42.25 12.5909C41.1667 11.6061 40.625 10.303 40.625 8.68182C40.625 7.34091 40.9886 6.17045 41.7159 5.17045C42.4432 4.17045 43.428 3.39394 44.6705 2.84091C45.9129 2.2803 47.3144 2 48.875 2C50.4508 2 51.8409 2.27652 53.0455 2.82955C54.2576 3.38258 55.2121 4.14394 55.9091 5.11364C56.6061 6.07576 56.9697 7.18182 57 8.43182H53.6136ZM64.6392 15.2273V25.5909H61.2415V2.31818H64.5938V10.9773H64.8097C65.2188 10.0379 65.8438 9.29167 66.6847 8.73864C67.5256 8.18561 68.6241 7.90909 69.9801 7.90909C71.1771 7.90909 72.2225 8.1553 73.1165 8.64773C74.018 9.14015 74.715 9.875 75.2074 10.8523C75.7074 11.822 75.9574 13.0341 75.9574 14.4886V25.5909H72.5597V14.8977C72.5597 13.6174 72.2301 12.625 71.571 11.9205C70.9119 11.2083 69.9953 10.8523 68.821 10.8523C68.018 10.8523 67.2983 11.0227 66.6619 11.3636C66.0331 11.7045 65.5369 12.2045 65.1733 12.8636C64.8172 13.5152 64.6392 14.303 64.6392 15.2273ZM82.571 25.3636C83.465 25.7727 84.465 25.9773 85.571 25.9773C86.5331 25.9773 87.3589 25.8371 88.0483 25.5568C88.7377 25.2765 89.3021 24.9242 89.7415 24.5C90.1809 24.0758 90.5104 23.6439 90.7301 23.2045H90.8665V25.5909H94.1847V14C94.1847 12.7273 93.965 11.6932 93.5256 10.8977C93.0862 10.0947 92.5218 9.47727 91.8324 9.04545C91.1506 8.61364 90.4157 8.31818 89.6278 8.15909C88.8475 7.99243 88.1089 7.90909 87.4119 7.90909C86.3589 7.90909 85.3551 8.06061 84.4006 8.36364C83.446 8.65909 82.6013 9.13636 81.8665 9.79546C81.1392 10.447 80.5862 11.303 80.2074 12.3636L83.4006 13.0909C83.6506 12.4773 84.1013 11.9205 84.7528 11.4205C85.4119 10.9129 86.3134 10.6591 87.4574 10.6591C88.5559 10.6591 89.3816 10.9318 89.9347 11.4773C90.4953 12.0227 90.7756 12.7917 90.7756 13.7841V13.8636C90.7756 14.2727 90.6278 14.5682 90.3324 14.75C90.0369 14.9318 89.5634 15.0644 88.9119 15.1477C88.2604 15.2235 87.4119 15.322 86.3665 15.4432C85.5407 15.5417 84.7301 15.6856 83.9347 15.875C83.1392 16.0644 82.4195 16.3447 81.7756 16.7159C81.1316 17.0871 80.6203 17.5909 80.2415 18.2273C79.8627 18.8636 79.6733 19.6742 79.6733 20.6591C79.6733 21.803 79.9309 22.7689 80.446 23.5568C80.9688 24.3447 81.6771 24.947 82.571 25.3636ZM88.7188 22.6932C88.0521 23.0644 87.2491 23.25 86.3097 23.25C85.3475 23.25 84.5559 23.0379 83.9347 22.6136C83.3134 22.1818 83.0028 21.5455 83.0028 20.7045C83.0028 20.0985 83.1619 19.6136 83.4801 19.25C83.8059 18.8788 84.2377 18.5947 84.7756 18.3977C85.321 18.2008 85.9233 18.0606 86.5824 17.9773C86.8627 17.9394 87.2112 17.8939 87.6278 17.8409C88.0445 17.7803 88.4725 17.7159 88.9119 17.6477C89.3513 17.572 89.7415 17.4849 90.0824 17.3864C90.4309 17.2803 90.6657 17.1667 90.7869 17.0455V19.2955C90.7869 19.9849 90.6089 20.6326 90.2528 21.2386C89.9044 21.8371 89.393 22.322 88.7188 22.6932ZM98.7102 25.5909V8.13636H101.994V10.9091H102.176C102.494 9.9697 103.055 9.23106 103.858 8.69318C104.669 8.14773 105.585 7.875 106.608 7.875C106.82 7.875 107.07 7.88258 107.358 7.89773C107.653 7.91288 107.884 7.93182 108.051 7.95455V11.2045C107.915 11.1667 107.672 11.125 107.324 11.0795C106.975 11.0265 106.627 11 106.278 11C105.475 11 104.759 11.1705 104.131 11.5114C103.509 11.8447 103.017 12.3106 102.653 12.9091C102.29 13.5 102.108 14.1742 102.108 14.9318V25.5909H98.7102ZM122.048 8.13636V18.3523C122.056 19.3447 121.848 20.1629 121.423 20.8068C121.007 21.4508 120.48 21.9318 119.844 22.25C119.215 22.5682 118.582 22.7273 117.946 22.7273C116.893 22.7273 116.037 22.375 115.378 21.6705C114.719 20.9659 114.389 20.0189 114.389 18.8295V8.13636H110.991V19.2386C110.991 20.678 111.234 21.8864 111.719 22.8636C112.211 23.8409 112.885 24.5795 113.741 25.0795C114.605 25.572 115.598 25.8182 116.719 25.8182C118.029 25.8182 119.124 25.5114 120.003 24.8977C120.889 24.2765 121.533 23.5 121.935 22.5682H122.116V25.5909H125.457V8.13636H122.048ZM137.375 25.9432C135.686 25.9432 134.231 25.5606 133.011 24.7955C131.799 24.0227 130.867 22.9583 130.216 21.6023C129.564 20.2462 129.239 18.6932 129.239 16.9432C129.239 15.1705 129.572 13.6061 130.239 12.25C130.905 10.8864 131.845 9.82197 133.057 9.05682C134.269 8.29167 135.697 7.90909 137.341 7.90909C138.667 7.90909 139.848 8.1553 140.886 8.64773C141.924 9.13258 142.761 9.81439 143.398 10.6932C144.042 11.572 144.424 12.5985 144.545 13.7727H141.239C141.057 12.9545 140.64 12.25 139.989 11.6591C139.345 11.0682 138.481 10.7727 137.398 10.7727C136.451 10.7727 135.621 11.0227 134.909 11.5227C134.205 12.0152 133.655 12.7197 133.261 13.6364C132.867 14.5455 132.67 15.6212 132.67 16.8636C132.67 18.1364 132.864 19.2349 133.25 20.1591C133.636 21.0833 134.182 21.7992 134.886 22.3068C135.598 22.8144 136.436 23.0682 137.398 23.0682C138.042 23.0682 138.625 22.9508 139.148 22.7159C139.678 22.4735 140.121 22.1288 140.477 21.6818C140.841 21.2349 141.095 20.697 141.239 20.0682H144.545C144.424 21.197 144.057 22.2045 143.443 23.0909C142.83 23.9773 142.008 24.6742 140.977 25.1818C139.955 25.6894 138.754 25.9432 137.375 25.9432ZM151.247 24.8182C152.467 25.5682 153.895 25.9432 155.531 25.9432C157.168 25.9432 158.596 25.5682 159.815 24.8182C161.035 24.0682 161.982 23.0189 162.656 21.6705C163.33 20.322 163.668 18.7462 163.668 16.9432C163.668 15.1326 163.33 13.5492 162.656 12.1932C161.982 10.8371 161.035 9.78409 159.815 9.03409C158.596 8.28409 157.168 7.90909 155.531 7.90909C153.895 7.90909 152.467 8.28409 151.247 9.03409C150.027 9.78409 149.08 10.8371 148.406 12.1932C147.732 13.5492 147.395 15.1326 147.395 16.9432C147.395 18.7462 147.732 20.322 148.406 21.6705C149.08 23.0189 150.027 24.0682 151.247 24.8182ZM158.179 22.25C157.482 22.8106 156.603 23.0909 155.543 23.0909C154.474 23.0909 153.588 22.8106 152.884 22.25C152.187 21.6894 151.668 20.9432 151.327 20.0114C150.993 19.0795 150.827 18.053 150.827 16.9318C150.827 15.8182 150.993 14.7955 151.327 13.8636C151.668 12.9242 152.187 12.1705 152.884 11.6023C153.588 11.0341 154.474 10.75 155.543 10.75C156.603 10.75 157.482 11.0341 158.179 11.6023C158.876 12.1705 159.391 12.9242 159.724 13.8636C160.065 14.7955 160.236 15.8182 160.236 16.9318C160.236 18.053 160.065 19.0795 159.724 20.0114C159.391 20.9432 158.876 21.6894 158.179 22.25Z" fill="black"/>
<path d="M1.95958 1.62623L2.66669 2.33333L2.66669 2.33333L1.95958 1.62623ZM3.37379 1.62623L4.0809 0.91912L4.0809 0.91912L3.37379 1.62623ZM1.95958 3.04044L2.66669 2.33333L2.66669 2.33333L1.95958 3.04044ZM11.2525 12.3333L11.9596 13.0404L12.6667 12.3333L11.9596 11.6262L11.2525 12.3333ZM1.95958 21.6262L2.66669 22.3333L2.66669 22.3333L1.95958 21.6262ZM1.95958 23.0404L2.66669 22.3333L2.66669 22.3333L1.95958 23.0404ZM3.37379 23.0404L2.66669 22.3333L2.66669 22.3333L3.37379 23.0404ZM13.3738 13.0404L14.0809 13.7475L14.0809 13.7475L13.3738 13.0404ZM13.3738 11.6262L12.6667 12.3333L12.6667 12.3333L13.3738 11.6262ZM52.1136 5.93182L51.5507 6.75836L51.5556 6.76166L52.1136 5.93182ZM53.6136 8.43182L52.6199 8.54379L52.72 9.43182H53.6136V8.43182ZM46.3182 5.48864L46.7085 6.40937L46.7169 6.40571L46.3182 5.48864ZM44.6932 6.71591L43.889 6.12152L43.8875 6.12352L44.6932 6.71591ZM44.5114 9.90909L43.6696 10.4491L43.6769 10.4602L44.5114 9.90909ZM45.5455 10.9205L45.0047 11.7616L45.0134 11.7672L45.0222 11.7726L45.5455 10.9205ZM46.9318 11.5909L46.5854 12.5291L46.5982 12.5336L46.9318 11.5909ZM48.3523 12.0227L48.6039 11.0549L48.5948 11.0526L48.3523 12.0227ZM50.625 12.6136L50.3734 13.5815L50.3802 13.5832L50.3871 13.5849L50.625 12.6136ZM55.0795 14.5795L54.4738 15.3752L54.4738 15.3752L55.0795 14.5795ZM56.6932 16.4659L55.8153 16.9448L55.819 16.9516L56.6932 16.4659ZM56.2955 22.6705L55.4634 22.1157L55.4606 22.12L56.2955 22.6705ZM53.3523 25.0909L52.9352 24.182L52.9332 24.183L53.3523 25.0909ZM44.1818 25.1477L43.7833 26.0649L43.7833 26.0649L44.1818 25.1477ZM41.1932 22.7955L40.3754 23.371L40.3774 23.3738L41.1932 22.7955ZM40 19.1591V18.1591H38.9445L39.0015 19.2131L40 19.1591ZM43.5227 19.1591L44.5195 19.0783L44.4449 18.1591H43.5227V19.1591ZM44.3409 21.2614L43.5795 21.9096L43.5842 21.9151L43.589 21.9206L44.3409 21.2614ZM46.1932 22.5L45.8514 23.4399L45.8628 23.4439L46.1932 22.5ZM51.3295 22.4318L51.7025 23.3597L51.7071 23.3578L51.3295 22.4318ZM53.1705 21.1136L53.9524 21.7371L53.9564 21.7319L53.1705 21.1136ZM53.25 17.4318L52.499 18.0922L52.5054 18.0994L53.25 17.4318ZM51.6705 16.3409L51.2702 17.2573L51.274 17.259L51.6705 16.3409ZM49.4318 15.5795L49.1687 16.5443L49.1769 16.5465L49.4318 15.5795ZM46.6818 14.8295L46.9449 13.8648L46.9446 13.8647L46.6818 14.8295ZM42.25 12.5909L41.5773 13.3309L41.5799 13.3332L42.25 12.5909ZM44.6705 2.84091L45.0771 3.7545L45.0817 3.75241L44.6705 2.84091ZM53.0455 2.82955L52.6282 3.73834L52.6304 3.73933L53.0455 2.82955ZM55.9091 5.11364L55.0971 5.69728L55.0993 5.70029L55.9091 5.11364ZM57 8.43182V9.43182H58.0245L57.9997 8.40758L57 8.43182ZM64.6392 25.5909V26.5909H65.6392V25.5909H64.6392ZM61.2415 25.5909H60.2415V26.5909H61.2415V25.5909ZM61.2415 2.31818V1.31818H60.2415V2.31818H61.2415ZM64.5938 2.31818H65.5938V1.31818H64.5938V2.31818ZM64.5938 10.9773H63.5938V11.9773H64.5938V10.9773ZM64.8097 10.9773V11.9773H65.4649L65.7265 11.3765L64.8097 10.9773ZM66.6847 8.73864L67.2341 9.57414L67.2341 9.57414L66.6847 8.73864ZM73.1165 8.64773L72.634 9.52364L72.6371 9.52534L73.1165 8.64773ZM75.2074 10.8523L74.3143 11.3023L74.3186 11.3106L75.2074 10.8523ZM75.9574 25.5909V26.5909H76.9574V25.5909H75.9574ZM72.5597 25.5909H71.5597V26.5909H72.5597V25.5909ZM71.571 11.9205L70.8371 12.5997L70.8408 12.6036L71.571 11.9205ZM66.6619 11.3636L66.1897 10.4821L66.1853 10.4845L66.6619 11.3636ZM65.1733 12.8636L64.2977 12.3806L64.2958 12.3841L65.1733 12.8636ZM82.571 25.3636L82.1485 26.27L82.1549 26.2729L82.571 25.3636ZM88.0483 25.5568L88.4249 26.4832L88.4249 26.4832L88.0483 25.5568ZM90.7301 23.2045V22.2045H90.1121L89.8357 22.7573L90.7301 23.2045ZM90.8665 23.2045H91.8665V22.2045H90.8665V23.2045ZM90.8665 25.5909H89.8665V26.5909H90.8665V25.5909ZM94.1847 25.5909V26.5909H95.1847V25.5909H94.1847ZM93.5256 10.8977L92.6483 11.3777L92.6502 11.3812L93.5256 10.8977ZM91.8324 9.04545L91.2973 9.89028L91.3015 9.89293L91.8324 9.04545ZM89.6278 8.15909L89.4189 9.13709L89.4299 9.13931L89.6278 8.15909ZM84.4006 8.36364L84.6963 9.31895L84.7032 9.31676L84.4006 8.36364ZM81.8665 9.79546L82.5337 10.5403L82.5342 10.5399L81.8665 9.79546ZM80.2074 12.3636L79.2656 12.0273L78.8867 13.0884L79.9853 13.3387L80.2074 12.3636ZM83.4006 13.0909L83.1785 14.0659L84.0063 14.2545L84.3267 13.4682L83.4006 13.0909ZM84.7528 11.4205L85.3617 12.2138L85.363 12.2127L84.7528 11.4205ZM89.9347 11.4773L89.2324 12.1893L89.2373 12.194L89.9347 11.4773ZM90.3324 14.75L89.8083 13.8983L89.8083 13.8983L90.3324 14.75ZM88.9119 15.1477L89.0274 16.1411L89.0388 16.1396L88.9119 15.1477ZM86.3665 15.4432L86.2513 14.4498L86.2481 14.4502L86.3665 15.4432ZM83.9347 15.875L84.1663 16.8478L84.1663 16.8478L83.9347 15.875ZM81.7756 16.7159L82.275 17.5823L82.275 17.5823L81.7756 16.7159ZM80.446 23.5568L79.609 24.1041L79.6127 24.1097L80.446 23.5568ZM88.7188 22.6932L88.2364 21.8172L88.2323 21.8195L88.7188 22.6932ZM83.9347 22.6136L83.3639 23.4348L83.3707 23.4394L83.9347 22.6136ZM83.4801 19.25L82.7285 18.5904L82.7275 18.5915L83.4801 19.25ZM84.7756 18.3977L84.4359 17.4572L84.4317 17.4587L84.7756 18.3977ZM86.5824 17.9773L86.7078 18.9694L86.7163 18.9683L86.5824 17.9773ZM87.6278 17.8409L87.7541 18.8329L87.7629 18.8318L87.7718 18.8305L87.6278 17.8409ZM88.9119 17.6477L89.0653 18.6359L89.0736 18.6346L89.0818 18.6332L88.9119 17.6477ZM90.0824 17.3864L90.3599 18.3471L90.3667 18.3451L90.3735 18.343L90.0824 17.3864ZM90.7869 17.0455H91.7869V14.6312L90.0798 16.3384L90.7869 17.0455ZM90.2528 21.2386L89.3906 20.7321L89.3887 20.7354L90.2528 21.2386ZM98.7102 8.13636V7.13636H97.7102V8.13636H98.7102ZM98.7102 25.5909H97.7102V26.5909H98.7102V25.5909ZM101.994 8.13636H102.994V7.13636H101.994V8.13636ZM101.994 10.9091H100.994V11.9091H101.994V10.9091ZM102.176 10.9091V11.9091H102.893L103.123 11.2299L102.176 10.9091ZM103.858 8.69318L104.414 9.52403L104.416 9.52284L103.858 8.69318ZM107.358 7.89773L107.305 8.89635L107.307 8.89642L107.358 7.89773ZM108.051 7.95455H109.051V7.08166L108.186 6.96372L108.051 7.95455ZM108.051 11.2045L107.783 12.1681L109.051 12.5202V11.2045H108.051ZM107.324 11.0795L107.173 12.0682L107.184 12.0698L107.195 12.0711L107.324 11.0795ZM104.131 11.5114L104.604 12.3925L104.607 12.3905L104.131 11.5114ZM102.653 12.9091L103.505 13.4332L103.508 13.4283L102.653 12.9091ZM102.108 25.5909V26.5909H103.108V25.5909H102.108ZM122.048 18.3523L121.048 18.3523L121.048 18.3599L122.048 18.3523ZM122.048 8.13636V7.13636H121.048V8.13636H122.048ZM121.423 20.8068L120.588 20.2566L120.584 20.2636L121.423 20.8068ZM119.844 22.25L119.397 21.3556L119.392 21.3577L119.844 22.25ZM114.389 8.13636H115.389V7.13636H114.389V8.13636ZM110.991 8.13636V7.13636H109.991V8.13636H110.991ZM111.719 22.8636L110.823 23.3081L110.826 23.3136L111.719 22.8636ZM113.741 25.0795L113.237 25.9431L113.246 25.9483L113.741 25.0795ZM120.003 24.8977L120.575 25.7176L120.577 25.7166L120.003 24.8977ZM121.935 22.5682V21.5682H121.277L121.016 22.1725L121.935 22.5682ZM122.116 22.5682H123.116V21.5682H122.116V22.5682ZM122.116 25.5909H121.116V26.5909H122.116V25.5909ZM125.457 25.5909V26.5909H126.457V25.5909H125.457ZM125.457 8.13636H126.457V7.13636H125.457V8.13636ZM133.011 24.7955L132.474 25.6387L132.48 25.6426L133.011 24.7955ZM130.216 21.6023L129.315 22.0353L129.315 22.0353L130.216 21.6023ZM130.239 12.25L131.136 12.6912L131.137 12.6892L130.239 12.25ZM133.057 9.05682L132.523 8.2112L132.523 8.21121L133.057 9.05682ZM140.886 8.64773L140.458 9.55121L140.463 9.55374L140.886 8.64773ZM143.398 10.6932L142.588 11.2797L142.591 11.2843L143.398 10.6932ZM144.545 13.7727V14.7727H145.654L145.54 13.67L144.545 13.7727ZM141.239 13.7727L140.262 13.9896L140.436 14.7727H141.239V13.7727ZM139.989 11.6591L139.313 12.3959L139.317 12.3998L139.989 11.6591ZM134.909 11.5227L135.482 12.3424L135.484 12.3411L134.909 11.5227ZM133.261 13.6364L134.179 14.034L134.18 14.0312L133.261 13.6364ZM134.886 22.3068L134.302 23.1182L134.306 23.1211L134.886 22.3068ZM139.148 22.7159L139.558 23.6281L139.563 23.6254L139.148 22.7159ZM140.477 21.6818L139.702 21.0507L139.695 21.0587L140.477 21.6818ZM141.239 20.0682V19.0682H140.442L140.264 19.845L141.239 20.0682ZM144.545 20.0682L145.54 20.175L145.659 19.0682H144.545V20.0682ZM143.443 23.0909L144.265 23.6601L144.265 23.6601L143.443 23.0909ZM140.977 25.1818L140.535 24.2848L140.533 24.2861L140.977 25.1818ZM162.656 21.6705L163.551 22.1177L163.551 22.1177L162.656 21.6705ZM162.656 12.1932L161.761 12.6384L161.761 12.6384L162.656 12.1932ZM159.815 9.03409L159.292 9.88593L159.292 9.88593L159.815 9.03409ZM151.247 9.03409L151.771 9.88593L151.771 9.88593L151.247 9.03409ZM148.406 12.1932L149.302 12.6384L149.302 12.6384L148.406 12.1932ZM148.406 21.6705L147.512 22.1177L147.512 22.1177L148.406 21.6705ZM158.179 22.25L157.552 21.4708L157.552 21.4708L158.179 22.25ZM152.884 22.25L152.257 23.0292L152.261 23.0325L152.884 22.25ZM151.327 20.0114L150.385 20.3482L150.388 20.3549L151.327 20.0114ZM151.327 13.8636L150.387 13.5225L150.385 13.5268L151.327 13.8636ZM152.884 11.6023L152.256 10.8238L152.252 10.8272L152.884 11.6023ZM158.179 11.6023L157.547 12.3774L157.547 12.3774L158.179 11.6023ZM159.724 13.8636L158.782 14.1981L158.785 14.2072L159.724 13.8636ZM159.724 20.0114L158.785 19.6678L158.783 19.6745L159.724 20.0114ZM2.66669 2.33333L2.66669 2.33333L4.0809 0.91912C3.29985 0.138072 2.03352 0.138072 1.25247 0.91912L2.66669 2.33333ZM2.66669 2.33333L2.66669 2.33333L1.25247 0.91912C0.471425 1.70017 0.471425 2.9665 1.25247 3.74755L2.66669 2.33333ZM11.9596 11.6262L2.66669 2.33333L1.25247 3.74755L10.5454 13.0404L11.9596 11.6262ZM2.66669 22.3333L11.9596 13.0404L10.5454 11.6262L1.25247 20.9191L2.66669 22.3333ZM2.66669 22.3333V22.3333L1.25247 20.9191C0.471425 21.7002 0.471425 22.9665 1.25247 23.7475L2.66669 22.3333ZM2.66669 22.3333L2.66669 22.3333L1.25247 23.7475C2.03352 24.5286 3.29985 24.5286 4.0809 23.7475L2.66669 22.3333ZM12.6667 12.3333L2.66669 22.3333L4.0809 23.7475L14.0809 13.7475L12.6667 12.3333ZM12.6667 12.3333V12.3333L14.0809 13.7475C14.8619 12.9665 14.8619 11.7002 14.0809 10.9191L12.6667 12.3333ZM2.66669 2.33333L12.6667 12.3333L14.0809 10.9191L4.0809 0.91912L2.66669 2.33333ZM16 25.6667V23.6667C14.8954 23.6667 14 24.5621 14 25.6667H16ZM16 25.6667H14C14 26.7712 14.8955 27.6667 16 27.6667V25.6667ZM29.3334 25.6667H16V27.6667H29.3334V25.6667ZM29.3334 25.6667V27.6667C30.4379 27.6667 31.3334 26.7712 31.3334 25.6667H29.3334ZM29.3334 25.6667H31.3334C31.3334 24.5621 30.4379 23.6667 29.3334 23.6667V25.6667ZM16 25.6667H29.3334V23.6667H16V25.6667ZM51.5556 6.76166C52.1847 7.18465 52.5307 7.75218 52.6199 8.54379L54.6073 8.31985C54.4541 6.95994 53.8001 5.8608 52.6716 5.10198L51.5556 6.76166ZM48.7955 6.03409C49.9792 6.03409 50.8757 6.29861 51.5507 6.75835L52.6765 5.10529C51.594 4.36805 50.2784 4.03409 48.7955 4.03409V6.03409ZM46.7169 6.40571C47.2603 6.16946 47.9441 6.03409 48.7955 6.03409V4.03409C47.7377 4.03409 46.77 4.20175 45.9195 4.57157L46.7169 6.40571ZM45.4974 7.3103C45.761 6.9536 46.1487 6.64661 46.7085 6.40933L45.9279 4.56794C45.0937 4.92157 44.3981 5.43277 43.889 6.12152L45.4974 7.3103ZM45.125 8.47727C45.125 8.02429 45.2504 7.64617 45.4988 7.3083L43.8875 6.12352C43.3784 6.81595 43.125 7.61208 43.125 8.47727H45.125ZM45.3531 9.36914C45.2145 9.1531 45.125 8.87003 45.125 8.47727H43.125C43.125 9.19057 43.2931 9.86205 43.6697 10.449L45.3531 9.36914ZM46.0862 10.0793C45.7732 9.87808 45.5306 9.63789 45.3458 9.35803L43.6769 10.4602C44.0224 10.9833 44.4692 11.4174 45.0047 11.7616L46.0862 10.0793ZM47.2782 10.6528C46.8452 10.4929 46.4426 10.2978 46.0687 10.0683L45.0222 11.7726C45.512 12.0734 46.0336 12.3252 46.5854 12.529L47.2782 10.6528ZM48.5948 11.0526C48.1743 10.9475 47.7313 10.813 47.2654 10.6482L46.5982 12.5336C47.1172 12.7173 47.6212 12.8707 48.1097 12.9929L48.5948 11.0526ZM50.8766 11.6458L48.6039 11.0549L48.1006 12.9906L50.3734 13.5815L50.8766 11.6458ZM53.2789 12.4232C52.4598 12.0971 51.6543 11.8362 50.8629 11.6423L50.3871 13.5849C51.0805 13.7547 51.7978 13.9862 52.5393 14.2814L53.2789 12.4232ZM55.6853 13.7839C54.9463 13.2212 54.1434 12.7673 53.2789 12.4232L52.5393 14.2814C53.2354 14.5585 53.8795 14.9227 54.4738 15.3752L55.6853 13.7839ZM57.5711 15.9871C57.0959 15.116 56.4662 14.3785 55.6853 13.7839L54.4738 15.3752C55.0262 15.7958 55.4722 16.3158 55.8153 16.9448L57.5711 15.9871ZM58.3182 19.1591C58.3182 17.9806 58.0828 16.908 57.5673 15.9803L55.819 16.9516C56.1369 17.5238 56.3182 18.2467 56.3182 19.1591H58.3182ZM57.1275 23.2252C57.9269 22.0261 58.3182 20.6597 58.3182 19.1591H56.3182C56.3182 20.2948 56.0277 21.2693 55.4634 22.1158L57.1275 23.2252ZM53.7693 25.9998C55.2001 25.3433 56.3378 24.4231 57.1303 23.2209L55.4606 22.12C54.9046 22.9633 54.0802 23.6567 52.9352 24.182L53.7693 25.9998ZM48.7045 26.9773C50.6271 26.9773 52.3274 26.6653 53.7713 25.9989L52.9332 24.183C51.8165 24.6983 50.4183 24.9773 48.7045 24.9773V26.9773ZM43.7833 26.0649C45.2095 26.6846 46.8589 26.9773 48.7045 26.9773V24.9773C47.0653 24.9773 45.6996 24.7169 44.5803 24.2306L43.7833 26.0649ZM40.3774 23.3738C41.2145 24.5545 42.363 25.4477 43.7833 26.0649L44.5803 24.2306C43.4552 23.7417 42.6113 23.0667 42.009 22.2171L40.3774 23.3738ZM39.0015 19.2131C39.0861 20.7784 39.5349 22.1765 40.3754 23.3709L42.011 22.22C41.4121 21.3689 41.0654 20.3429 40.9985 19.1051L39.0015 19.2131ZM43.5227 18.1591H40V20.1591H43.5227V18.1591ZM45.1023 20.6131C44.7803 20.2349 44.5732 19.7417 44.5195 19.0783L42.526 19.2399C42.6086 20.2583 42.9469 21.1666 43.5795 21.9096L45.1023 20.6131ZM46.5349 21.5602C45.9293 21.34 45.4574 21.018 45.0928 20.6021L43.589 21.9206C44.1941 22.6108 44.9571 23.1146 45.8514 23.4398L46.5349 21.5602ZM48.6818 21.8977C47.8791 21.8977 47.1627 21.7799 46.5235 21.5561L45.8628 23.4439C46.7388 23.7504 47.6815 23.8977 48.6818 23.8977V21.8977ZM50.9566 21.504C50.3228 21.7587 49.5704 21.8977 48.6818 21.8977V23.8977C49.7781 23.8977 50.7908 23.7261 51.7025 23.3597L50.9566 21.504ZM52.3886 20.4902C52.0656 20.8953 51.6017 21.2409 50.952 21.5058L51.7071 23.3578C52.618 22.9864 53.3814 22.4532 53.9524 21.737L52.3886 20.4902ZM52.8409 19.125C52.8409 19.6699 52.6858 20.1123 52.3845 20.4954L53.9564 21.7319C54.549 20.9786 54.8409 20.0953 54.8409 19.125H52.8409ZM52.5054 18.0994C52.7077 18.325 52.8409 18.638 52.8409 19.125H54.8409C54.8409 18.2332 54.5802 17.4174 53.9946 16.7643L52.5054 18.0994ZM51.274 17.259C51.8368 17.502 52.231 17.7873 52.499 18.0922L54.001 16.7715C53.4963 16.1976 52.8374 15.7556 52.0669 15.4228L51.274 17.259ZM49.1769 16.5465C49.97 16.7556 50.6663 16.9935 51.2702 17.2573L52.0707 15.4245C51.3564 15.1125 50.5603 14.8429 49.6867 14.6126L49.1769 16.5465ZM46.4187 15.7943L49.1687 16.5443L49.6949 14.6148L46.9449 13.8648L46.4187 15.7943ZM41.5799 13.3332C42.818 14.4509 44.4498 15.2581 46.419 15.7944L46.9446 13.8647C45.1866 13.3859 43.8639 12.7007 42.9201 11.8486L41.5799 13.3332ZM39.625 8.68182C39.625 10.5511 40.2618 12.135 41.5773 13.3308L42.9227 11.851C42.0715 11.0772 41.625 10.055 41.625 8.68182H39.625ZM40.9072 4.58228C40.045 5.76784 39.625 7.14841 39.625 8.68182H41.625C41.625 7.53341 41.9323 6.57307 42.5246 5.75863L40.9072 4.58228ZM44.2638 1.92733C42.8776 2.54437 41.7477 3.42655 40.9072 4.58228L42.5246 5.75863C43.1387 4.91435 43.9785 4.24351 45.0771 3.75449L44.2638 1.92733ZM48.875 1C47.1931 1 45.6483 1.30259 44.2592 1.92941L45.0817 3.75241C46.1774 3.25802 47.4357 3 48.875 3V1ZM53.4627 1.92075C52.1049 1.29735 50.5679 1 48.875 1V3C50.3336 3 51.5769 3.25568 52.6282 3.73834L53.4627 1.92075ZM56.7211 4.53C55.9111 3.40305 54.8124 2.53654 53.4605 1.91976L52.6304 3.73933C53.7028 4.22861 54.5131 4.88483 55.0971 5.69727L56.7211 4.53ZM57.9997 8.40758C57.9648 6.96644 57.5411 5.66191 56.7189 4.52698L55.0993 5.70029C55.671 6.48961 55.9746 7.39719 56.0003 8.45605L57.9997 8.40758ZM53.6136 9.43182H57V7.43182H53.6136V9.43182ZM65.6392 25.5909V15.2273H63.6392V25.5909H65.6392ZM61.2415 26.5909H64.6392V24.5909H61.2415V26.5909ZM60.2415 2.31818V25.5909H62.2415V2.31818H60.2415ZM64.5938 1.31818H61.2415V3.31818H64.5938V1.31818ZM65.5938 10.9773V2.31818H63.5938V10.9773H65.5938ZM64.8097 9.97727H64.5938V11.9773H64.8097V9.97727ZM66.1352 7.90313C65.129 8.56485 64.3779 9.46403 63.8928 10.578L65.7265 11.3765C66.0596 10.6117 66.5585 10.0185 67.2341 9.57414L66.1352 7.90313ZM69.9801 6.90909C68.4949 6.90909 67.1869 7.21145 66.1352 7.90313L67.2341 9.57414C67.8642 9.15977 68.7532 8.90909 69.9801 8.90909V6.90909ZM73.599 7.77183C72.5336 7.18495 71.3165 6.90909 69.9801 6.90909V8.90909C71.0376 8.90909 71.9115 9.12566 72.634 9.52363L73.599 7.77183ZM76.1004 10.4023C75.523 9.25629 74.6873 8.3663 73.5958 7.77012L72.6371 9.52534C73.3487 9.914 73.9069 10.4937 74.3143 11.3022L76.1004 10.4023ZM76.9574 14.4886C76.9574 12.9256 76.6895 11.5446 76.0962 10.394L74.3186 11.3106C74.7253 12.0993 74.9574 13.1426 74.9574 14.4886H76.9574ZM76.9574 25.5909V14.4886H74.9574V25.5909H76.9574ZM72.5597 26.5909H75.9574V24.5909H72.5597V26.5909ZM71.5597 14.8977V25.5909H73.5597V14.8977H71.5597ZM70.8408 12.6036C71.2761 13.069 71.5597 13.7861 71.5597 14.8977H73.5597C73.5597 13.4487 73.1841 12.181 72.3013 11.2373L70.8408 12.6036ZM68.821 11.8523C69.7799 11.8523 70.4064 12.1343 70.8371 12.5997L72.3049 11.2412C71.4175 10.2824 70.2106 9.85227 68.821 9.85227V11.8523ZM67.1342 12.2451C67.6095 11.9904 68.1639 11.8523 68.821 11.8523V9.85227C67.8721 9.85227 66.9871 10.055 66.1897 10.4822L67.1342 12.2451ZM66.0489 13.3467C66.3252 12.8458 66.6869 12.4876 67.1386 12.2427L66.1853 10.4845C65.3794 10.9215 64.7487 11.5632 64.2977 12.3806L66.0489 13.3467ZM65.6392 15.2273C65.6392 14.4302 65.7925 13.8159 66.0508 13.3432L64.2958 12.3841C63.842 13.2144 63.6392 14.1758 63.6392 15.2273H65.6392ZM85.571 24.9773C84.5906 24.9773 83.735 24.7966 82.9871 24.4543L82.1549 26.2729C83.1949 26.7489 84.3394 26.9773 85.571 26.9773V24.9773ZM87.6716 24.6305C87.1313 24.8502 86.4401 24.9773 85.571 24.9773V26.9773C86.6262 26.9773 87.5865 26.8241 88.4249 26.4832L87.6716 24.6305ZM89.0469 23.7806C88.717 24.0991 88.2679 24.388 87.6716 24.6305L88.4249 26.4832C89.2074 26.165 89.8872 25.7493 90.4361 25.2194L89.0469 23.7806ZM89.8357 22.7573C89.6773 23.0741 89.4238 23.4167 89.0469 23.7806L90.4361 25.2194C90.938 24.7348 91.3435 24.2138 91.6245 23.6518L89.8357 22.7573ZM90.8665 22.2045H90.7301V24.2045H90.8665V22.2045ZM91.8665 25.5909V23.2045H89.8665V25.5909H91.8665ZM94.1847 24.5909H90.8665V26.5909H94.1847V24.5909ZM93.1847 14V25.5909H95.1847V14H93.1847ZM92.6502 11.3812C92.9816 11.9812 93.1847 12.8323 93.1847 14H95.1847C95.1847 12.6223 94.9483 11.4052 94.4009 10.4142L92.6502 11.3812ZM91.3015 9.89293C91.8285 10.223 92.2806 10.7057 92.6483 11.3777L94.4028 10.4177C93.8918 9.48372 93.2151 8.73155 92.3632 8.19798L91.3015 9.89293ZM89.4299 9.13931C90.0976 9.27413 90.7182 9.52352 91.2973 9.89027L92.3674 8.20064C91.5829 7.70375 90.7338 7.36224 89.8258 7.17888L89.4299 9.13931ZM87.4119 8.90909C88.0295 8.90909 88.6977 8.98297 89.419 9.13703L89.8367 7.18115C88.9974 7.00188 88.1883 6.90909 87.4119 6.90909V8.90909ZM84.7032 9.31676C85.5549 9.04636 86.4563 8.90909 87.4119 8.90909V6.90909C86.2615 6.90909 85.1553 7.07485 84.098 7.41051L84.7032 9.31676ZM82.5342 10.5399C83.1603 9.9783 83.8777 9.57228 84.6963 9.31892L84.1049 7.40835C83.0143 7.7459 82.0423 8.29443 81.1988 9.05102L82.5342 10.5399ZM81.1491 12.7C81.4805 11.772 81.9484 11.0646 82.5337 10.5403L81.1992 9.05062C80.33 9.82932 79.6918 10.834 79.2656 12.0273L81.1491 12.7ZM83.6226 12.1159L80.4295 11.3886L79.9853 13.3387L83.1785 14.0659L83.6226 12.1159ZM84.144 10.6271C83.3851 11.2095 82.8057 11.9005 82.4745 12.7136L84.3267 13.4682C84.4954 13.054 84.8175 12.6314 85.3617 12.2138L84.144 10.6271ZM87.4574 9.65909C86.1743 9.65909 85.0319 9.94342 84.1427 10.6282L85.363 12.2127C85.792 11.8823 86.4526 11.6591 87.4574 11.6591V9.65909ZM90.6369 10.7653C89.8309 9.97034 88.7089 9.65909 87.4574 9.65909V11.6591C88.4029 11.6591 88.9324 11.8933 89.2324 12.1892L90.6369 10.7653ZM91.7756 13.7841C91.7756 12.5983 91.4349 11.5417 90.632 10.7606L89.2373 12.194C89.5557 12.5037 89.7756 12.985 89.7756 13.7841H91.7756ZM91.7756 13.8636V13.7841H89.7756V13.8636H91.7756ZM90.8565 15.6017C91.5049 15.2026 91.7756 14.547 91.7756 13.8636H89.7756C89.7756 13.9492 89.7602 13.9651 89.7704 13.9448C89.7753 13.9349 89.7833 13.9229 89.7935 13.9119C89.8035 13.9011 89.8102 13.8972 89.8083 13.8983L90.8565 15.6017ZM89.0388 16.1396C89.7275 16.0516 90.3749 15.898 90.8565 15.6017L89.8083 13.8983C89.699 13.9656 89.3994 14.0772 88.7851 14.1558L89.0388 16.1396ZM86.4816 16.4365C87.5272 16.3153 88.3758 16.2168 89.0274 16.141L88.7964 14.1544C88.1451 14.2302 87.2967 14.3286 86.2513 14.4498L86.4816 16.4365ZM84.1663 16.8478C84.9238 16.6674 85.6966 16.5302 86.4849 16.4361L86.2481 14.4502C85.3849 14.5532 84.5364 14.7038 83.703 14.9022L84.1663 16.8478ZM82.275 17.5823C82.8274 17.2638 83.4555 17.0171 84.1663 16.8478L83.703 14.9022C82.823 15.1117 82.0117 15.4256 81.2761 15.8496L82.275 17.5823ZM81.1008 18.7388C81.3916 18.2501 81.7788 17.8683 82.275 17.5823L81.2761 15.8496C80.4844 16.306 79.8489 16.9317 79.3822 17.7158L81.1008 18.7388ZM80.6733 20.6591C80.6733 19.7967 80.8397 19.1774 81.1008 18.7388L79.3822 17.7158C78.8857 18.5498 78.6733 19.5518 78.6733 20.6591H80.6733ZM81.283 23.0096C80.8952 22.4164 80.6733 21.6509 80.6733 20.6591H78.6733C78.6733 21.9552 78.9666 23.1214 79.6091 24.1041L81.283 23.0096ZM82.9935 24.4573C82.2589 24.1149 81.6957 23.6317 81.2793 23.004L79.6127 24.1097C80.2418 25.0577 81.0953 25.7791 82.1486 26.27L82.9935 24.4573ZM86.3097 24.25C87.3804 24.25 88.3591 24.038 89.2052 23.5669L88.2323 21.8195C87.745 22.0908 87.1177 22.25 86.3097 22.25V24.25ZM83.3707 23.4394C84.199 24.0051 85.2023 24.25 86.3097 24.25V22.25C85.4928 22.25 84.9128 22.0707 84.4986 21.7878L83.3707 23.4394ZM82.0028 20.7045C82.0028 21.8303 82.4406 22.7929 83.3639 23.4347L84.5054 21.7925C84.1863 21.5707 84.0028 21.2606 84.0028 20.7045H82.0028ZM82.7275 18.5915C82.2124 19.1803 82.0028 19.92 82.0028 20.7045H84.0028C84.0028 20.277 84.1115 20.047 84.2327 19.9085L82.7275 18.5915ZM84.4317 17.4587C83.762 17.704 83.1811 18.0746 82.7285 18.5904L84.2317 19.9096C84.4306 19.683 84.7134 19.4854 85.1194 19.3367L84.4317 17.4587ZM86.4569 16.9852C85.7351 17.0764 85.0598 17.2319 84.4359 17.4572L85.1152 19.3383C85.5822 19.1696 86.1115 19.0448 86.7078 18.9694L86.4569 16.9852ZM87.5016 16.8489C87.0835 16.9021 86.7322 16.9479 86.4485 16.9863L86.7163 18.9683C86.9932 18.9309 87.3389 18.8858 87.7541 18.8329L87.5016 16.8489ZM88.7586 16.6596C88.3222 16.7273 87.8973 16.7912 87.4839 16.8513L87.7718 18.8305C88.1918 18.7694 88.6229 18.7045 89.0653 18.6359L88.7586 16.6596ZM89.8048 16.4257C89.5069 16.5117 89.1539 16.5913 88.742 16.6623L89.0818 18.6332C89.5488 18.5527 89.976 18.458 90.3599 18.3471L89.8048 16.4257ZM90.0798 16.3384C90.094 16.3242 90.1054 16.3145 90.1127 16.3087C90.1199 16.3029 90.1241 16.3002 90.1241 16.3002C90.1242 16.3001 90.1211 16.3021 90.1143 16.306C90.1074 16.3098 90.0976 16.315 90.0843 16.3214C90.0277 16.3488 89.9338 16.3863 89.7912 16.4297L90.3735 18.343C90.74 18.2315 91.1853 18.0613 91.4941 17.7526L90.0798 16.3384ZM91.7869 19.2955V17.0455H89.7869V19.2955H91.7869ZM91.115 21.7452C91.5595 20.9887 91.7869 20.1666 91.7869 19.2955H89.7869C89.7869 19.8031 89.6583 20.2764 89.3906 20.7321L91.115 21.7452ZM89.201 23.5692C90.0158 23.1206 90.6675 22.5139 91.117 21.7418L89.3887 20.7354C89.1412 21.1604 88.7701 21.5233 88.2365 21.8172L89.201 23.5692ZM97.7102 8.13636V25.5909H99.7102V8.13636H97.7102ZM101.994 7.13636H98.7102V9.13636H101.994V7.13636ZM102.994 10.9091V8.13636H100.994V10.9091H102.994ZM102.176 9.90909H101.994V11.9091H102.176V9.90909ZM103.301 7.86234C102.311 8.52605 101.616 9.44642 101.229 10.5883L103.123 11.2299C103.373 10.493 103.799 9.93608 104.414 9.52403L103.301 7.86234ZM106.608 6.875C105.396 6.875 104.283 7.20167 103.3 7.86352L104.416 9.52284C105.054 9.09378 105.774 8.875 106.608 8.875V6.875ZM107.411 6.89911C107.111 6.88334 106.843 6.875 106.608 6.875V8.875C106.798 8.875 107.029 8.88181 107.305 8.89635L107.411 6.89911ZM108.186 6.96372C107.979 6.93539 107.715 6.91473 107.409 6.89904L107.307 8.89642C107.592 8.91103 107.79 8.92825 107.916 8.94538L108.186 6.96372ZM109.051 11.2045V7.95455H107.051V11.2045H109.051ZM107.195 12.0711C107.545 12.1168 107.723 12.1513 107.783 12.1681L108.319 10.241C108.107 10.1821 107.8 10.1332 107.453 10.0879L107.195 12.0711ZM106.278 12C106.576 12 106.874 12.0226 107.173 12.0682L107.474 10.0909C107.077 10.0304 106.678 10 106.278 10V12ZM104.607 12.3905C105.073 12.1382 105.621 12 106.278 12V10C105.33 10 104.446 10.2027 103.654 10.6323L104.607 12.3905ZM103.508 13.4283C103.778 12.9835 104.138 12.6421 104.604 12.3925L103.658 10.6302C102.88 11.0473 102.256 11.6377 101.799 12.3898L103.508 13.4283ZM103.108 14.9318C103.108 14.3417 103.247 13.8521 103.505 13.4332L101.802 12.385C101.332 13.1479 101.108 14.0068 101.108 14.9318H103.108ZM103.108 25.5909V14.9318H101.108V25.5909H103.108ZM98.7102 26.5909H102.108V24.5909H98.7102V26.5909ZM123.048 18.3523V8.13636H121.048V18.3523H123.048ZM122.258 21.357C122.819 20.506 123.057 19.4788 123.048 18.3446L121.048 18.3599C121.055 19.2106 120.876 19.8198 120.588 20.2567L122.258 21.357ZM120.291 23.1444C121.1 22.7401 121.757 22.1319 122.263 21.3501L120.584 20.2636C120.256 20.7696 119.861 21.1235 119.397 21.3556L120.291 23.1444ZM117.946 23.7273C118.755 23.7273 119.542 23.5236 120.295 23.1423L119.392 21.3577C118.888 21.6128 118.409 21.7273 117.946 21.7273V23.7273ZM114.648 22.3536C115.514 23.28 116.644 23.7273 117.946 23.7273V21.7273C117.142 21.7273 116.56 21.47 116.108 20.9873L114.648 22.3536ZM113.389 18.8295C113.389 20.2106 113.777 21.423 114.648 22.3536L116.108 20.9873C115.661 20.5088 115.389 19.8273 115.389 18.8295H113.389ZM113.389 8.13636V18.8295H115.389V8.13636H113.389ZM110.991 9.13636H114.389V7.13636H110.991V9.13636ZM111.991 19.2386V8.13636H109.991V19.2386H111.991ZM112.615 22.4192C112.217 21.6169 111.991 20.5711 111.991 19.2386H109.991C109.991 20.785 110.251 22.1558 110.823 23.3081L112.615 22.4192ZM114.246 24.216C113.574 23.8234 113.027 23.237 112.612 22.4137L110.826 23.3136C111.396 24.4448 112.197 25.3356 113.237 25.943L114.246 24.216ZM116.719 24.8182C115.749 24.8182 114.931 24.6067 114.237 24.2108L113.246 25.9483C114.279 26.5373 115.446 26.8182 116.719 26.8182V24.8182ZM119.43 24.0778C118.754 24.5503 117.871 24.8182 116.719 24.8182V26.8182C118.188 26.8182 119.494 26.4725 120.575 25.7176L119.43 24.0778ZM121.016 22.1725C120.693 22.9225 120.174 23.5566 119.429 24.0788L120.577 25.7166C121.604 24.9964 122.373 24.0775 122.853 22.9639L121.016 22.1725ZM122.116 21.5682H121.935V23.5682H122.116V21.5682ZM123.116 25.5909V22.5682H121.116V25.5909H123.116ZM125.457 24.5909H122.116V26.5909H125.457V24.5909ZM124.457 8.13636V25.5909H126.457V8.13636H124.457ZM122.048 9.13636H125.457V7.13636H122.048V9.13636ZM132.48 25.6426C133.885 26.5239 135.531 26.9432 137.375 26.9432V24.9432C135.841 24.9432 134.577 24.5974 133.543 23.9483L132.48 25.6426ZM129.315 22.0353C130.043 23.5511 131.097 24.761 132.474 25.6387L133.549 23.9522C132.501 23.2844 131.692 22.3655 131.117 21.1692L129.315 22.0353ZM128.239 16.9432C128.239 18.8187 128.588 20.5238 129.315 22.0353L131.117 21.1692C130.54 19.9687 130.239 18.5676 130.239 16.9432H128.239ZM129.341 11.8088C128.596 13.324 128.239 15.0438 128.239 16.9432H130.239C130.239 15.2971 130.548 13.8881 131.136 12.6912L129.341 11.8088ZM132.523 8.21121C131.145 9.08131 130.083 10.2907 129.34 11.8108L131.137 12.6892C131.727 11.482 132.545 10.5626 133.591 9.90243L132.523 8.21121ZM137.341 6.90909C135.536 6.90909 133.917 7.33104 132.523 8.2112L133.591 9.90243C134.621 9.25229 135.858 8.90909 137.341 8.90909V6.90909ZM141.315 7.74426C140.124 7.17918 138.792 6.90909 137.341 6.90909V8.90909C138.541 8.90909 139.573 9.13143 140.458 9.5512L141.315 7.74426ZM144.208 10.1067C143.466 9.08252 142.493 8.29432 141.31 7.74171L140.463 9.55374C141.356 9.97083 142.057 10.5463 142.588 11.2797L144.208 10.1067ZM145.54 13.67C145.402 12.3344 144.962 11.136 144.204 10.1021L142.591 11.2843C143.121 12.008 143.446 12.8625 143.551 13.8754L145.54 13.67ZM141.239 14.7727H144.545V12.7727H141.239V14.7727ZM139.317 12.3998C139.823 12.8591 140.128 13.3837 140.262 13.9896L142.215 13.5558C141.986 12.5254 141.457 11.6409 140.66 10.9184L139.317 12.3998ZM137.398 11.7727C138.293 11.7727 138.895 12.0124 139.313 12.3959L140.665 10.9223C139.795 10.124 138.669 9.77273 137.398 9.77273V11.7727ZM135.484 12.3411C136.013 11.9698 136.637 11.7727 137.398 11.7727V9.77273C136.264 9.77273 135.23 10.0756 134.334 10.7043L135.484 12.3411ZM134.18 14.0312C134.513 13.2576 134.953 12.712 135.482 12.3424L134.336 10.7031C133.456 11.3184 132.798 12.1818 132.343 13.2415L134.18 14.0312ZM133.67 16.8636C133.67 15.7244 133.851 14.79 134.179 14.034L132.344 13.2387C131.884 14.3009 131.67 15.518 131.67 16.8636H133.67ZM134.173 19.7734C133.849 18.9995 133.67 18.0384 133.67 16.8636H131.67C131.67 18.2344 131.878 19.4702 132.327 20.5448L134.173 19.7734ZM135.471 21.4954C134.938 21.1116 134.499 20.5539 134.173 19.7734L132.327 20.5448C132.774 21.6127 133.426 22.4869 134.302 23.1182L135.471 21.4954ZM137.398 22.0682C136.622 22.0682 135.992 21.8672 135.467 21.4925L134.306 23.1211C135.204 23.7616 136.249 24.0682 137.398 24.0682V22.0682ZM138.738 21.8037C138.359 21.9739 137.918 22.0682 137.398 22.0682V24.0682C138.165 24.0682 138.891 23.9276 139.558 23.6281L138.738 21.8037ZM139.695 21.0587C139.439 21.3802 139.122 21.628 138.732 21.8064L139.563 23.6254C140.234 23.319 140.803 22.8774 141.259 22.3049L139.695 21.0587ZM140.264 19.845C140.15 20.3424 139.957 20.7362 139.702 21.0507L141.253 22.3129C141.724 21.7335 142.039 21.0515 142.213 20.2913L140.264 19.845ZM144.545 19.0682H141.239V21.0682H144.545V19.0682ZM144.265 23.6601C144.979 22.629 145.402 21.4607 145.54 20.175L143.551 19.9614C143.447 20.9332 143.134 21.78 142.621 22.5217L144.265 23.6601ZM141.419 26.0789C142.592 25.5012 143.549 24.6955 144.265 23.6601L142.621 22.5217C142.111 23.2591 141.423 23.8473 140.535 24.2848L141.419 26.0789ZM137.375 26.9432C138.876 26.9432 140.235 26.6665 141.422 26.0776L140.533 24.2861C139.674 24.7123 138.631 24.9432 137.375 24.9432V26.9432ZM155.531 24.9432C154.053 24.9432 152.812 24.6062 151.771 23.9663L150.723 25.67C152.122 26.5301 153.737 26.9432 155.531 26.9432V24.9432ZM159.292 23.9663C158.251 24.6062 157.01 24.9432 155.531 24.9432V26.9432C157.326 26.9432 158.94 26.5301 160.339 25.67L159.292 23.9663ZM161.762 21.2232C161.166 22.4142 160.344 23.3193 159.292 23.9663L160.339 25.67C161.726 24.8171 162.798 23.6237 163.551 22.1177L161.762 21.2232ZM162.668 16.9432C162.668 18.6211 162.354 20.0383 161.762 21.2232L163.551 22.1177C164.307 20.6057 164.668 18.8713 164.668 16.9432H162.668ZM161.761 12.6384C162.354 13.8316 162.668 15.2571 162.668 16.9432H164.668C164.668 15.008 164.307 13.2669 163.552 11.748L161.761 12.6384ZM159.292 9.88593C160.342 10.5321 161.165 11.4399 161.761 12.6384L163.552 11.748C162.799 10.2344 161.728 9.03608 160.339 8.18225L159.292 9.88593ZM155.531 8.90909C157.01 8.90909 158.251 9.24603 159.292 9.88593L160.339 8.18225C158.94 7.32215 157.326 6.90909 155.531 6.90909V8.90909ZM151.771 9.88593C152.812 9.24603 154.053 8.90909 155.531 8.90909V6.90909C153.737 6.90909 152.122 7.32215 150.723 8.18225L151.771 9.88593ZM149.302 12.6384C149.898 11.4399 150.72 10.5321 151.771 9.88593L150.723 8.18225C149.335 9.03608 148.263 10.2344 147.511 11.748L149.302 12.6384ZM148.395 16.9432C148.395 15.2571 148.708 13.8316 149.302 12.6384L147.511 11.748C146.756 13.2669 146.395 15.008 146.395 16.9432H148.395ZM149.301 21.2232C148.708 20.0383 148.395 18.6211 148.395 16.9432H146.395C146.395 18.8713 146.756 20.6057 147.512 22.1177L149.301 21.2232ZM151.771 23.9663C150.719 23.3193 149.896 22.4142 149.301 21.2232L147.512 22.1177C148.265 23.6237 149.336 24.8171 150.723 25.67L151.771 23.9663ZM155.543 24.0909C156.787 24.0909 157.9 23.7581 158.806 23.0292L157.552 21.4708C157.064 21.8631 156.419 22.0909 155.543 22.0909V24.0909ZM152.261 23.0325C153.174 23.759 154.292 24.0909 155.543 24.0909V22.0909C154.657 22.0909 154.002 21.8622 153.506 21.4675L152.261 23.0325ZM150.388 20.3549C150.784 21.4385 151.403 22.3424 152.257 23.0292L153.51 21.4708C152.97 21.0364 152.551 20.4479 152.266 19.6678L150.388 20.3549ZM149.827 16.9318C149.827 18.1527 150.008 19.2949 150.385 20.3482L152.268 19.6745C151.978 18.8642 151.827 17.9533 151.827 16.9318H149.827ZM150.385 13.5268C150.009 14.5794 149.827 15.7176 149.827 16.9318H151.827C151.827 15.9187 151.978 15.0115 152.268 14.2005L150.385 13.5268ZM152.252 10.8272C151.399 11.5219 150.782 12.4327 150.387 13.5225L152.267 14.2048C152.553 13.4158 152.974 12.819 153.515 12.3774L152.252 10.8272ZM155.543 9.75C154.289 9.75 153.169 10.0875 152.256 10.8239L153.511 12.3807C154.007 11.9807 154.66 11.75 155.543 11.75V9.75ZM158.811 10.8272C157.905 10.0884 156.79 9.75 155.543 9.75V11.75C156.416 11.75 157.059 11.9798 157.547 12.3774L158.811 10.8272ZM160.667 13.5292C160.279 12.4366 159.665 11.5233 158.811 10.8272L157.547 12.3774C158.087 12.8176 158.503 13.4119 158.782 14.1981L160.667 13.5292ZM161.236 16.9318C161.236 15.7152 161.049 14.5746 160.664 13.5201L158.785 14.2072C159.081 15.0163 159.236 15.9212 159.236 16.9318H161.236ZM160.664 20.3549C161.05 19.2997 161.236 18.1552 161.236 16.9318H159.236C159.236 17.9509 159.081 18.8594 158.785 19.6678L160.664 20.3549ZM158.806 23.0292C159.661 22.3409 160.277 21.4346 160.666 20.3482L158.783 19.6745C158.505 20.4517 158.09 21.0378 157.552 21.4708L158.806 23.0292Z" fill="white" mask="url(#path-1-outside-1_6594_3606)"/>
</g>
<defs>
<clipPath id="clip0_6594_3606">
<rect width="165" height="28" fill="white"/>
</clipPath>
</defs>
</svg>
