<svg fill="currentColor" xmlns="http://www.w3.org/2000/svg" viewBox="0 0 24 24">
    <path d="M15.6 13.288c-.192.08-.392.144-.576.152a1.202 1.202 0 0 1-.776-.248c-.264-.224-.456-.352-.536-.736a1.73 1.73 0 0 1 .016-.576c.072-.32-.008-.52-.232-.712-.184-.152-.416-.192-.672-.192-.256 0-.184-.04-.248-.08-.104-.056-.192-.184-.112-.352a.908.908 0 0 1 .184-.2c.344-.2.752-.136 1.12.016.344.136.6.4.976.76.384.44.448.56.672.888.168.256.328.528.432.832.064.192-.016.344-.248.44v.008Zm-3.032-1.552c0-.168.136-.296.304-.296.168 0 .072.008.104.016.04.016.08.04.112.072a.29.29 0 0 1 .088.208.304.304 0 0 1-.304.304.297.297 0 0 1-.296-.304h-.008Zm-.976 6.28c-2.04-1.6-3.024-2.128-3.432-2.104-.384.024-.312.456-.224.744.088.28.2.472.36.72.112.16.184.408-.112.584-.656.408-1.8-.136-1.848-.16-1.328-.784-2.44-1.816-3.216-3.224a9.784 9.784 0 0 1-1.264-4.368c-.016-.376.088-.512.464-.576.496-.088 1-.112 1.496-.04 2.08.304 3.848 1.232 5.336 2.704.848.84 1.488 1.84 2.144 2.816.704 1.04 1.456 2.032 2.416 2.84.344.288.608.504.872.656-.784.088-2.088.104-2.976-.6l-.016.008ZM23.456 4.832c-.248-.12-.352.112-.504.224-.048.04-.088.088-.136.136-.36.384-.784.64-1.344.608-.808-.048-1.496.208-2.112.832-.128-.76-.56-1.216-1.216-1.512-.344-.152-.688-.304-.928-.632-.168-.232-.216-.496-.296-.752-.056-.16-.104-.312-.288-.344-.192-.032-.272.136-.344.272-.304.56-.424 1.168-.416 1.792.024 1.4.616 2.52 1.792 3.312.136.088.168.184.128.312-.08.272-.176.536-.264.808-.056.176-.136.216-.32.136-.648-.272-1.2-.672-1.696-1.152-.832-.808-1.592-1.696-2.528-2.4a7.103 7.103 0 0 0-.672-.456c-.96-.936.128-1.704.376-1.792.264-.096.096-.424-.76-.416-.848 0-1.624.288-2.624.672a3.794 3.794 0 0 1-.456.136A9.372 9.372 0 0 0 6.04 4.52c-1.84.2-3.312 1.072-4.384 2.56C.376 8.856.072 10.88.448 12.992c.392 2.224 1.528 4.072 3.28 5.512 1.808 1.496 3.896 2.224 6.28 2.088 1.448-.08 3.056-.28 4.872-1.816.456.224.936.32 1.736.384.616.056 1.208-.032 1.664-.12.72-.152.672-.816.408-.936-2.104-.984-1.64-.584-2.056-.904 1.064-1.264 2.68-2.576 3.304-6.832.048-.336.008-.552 0-.824 0-.168.032-.232.224-.248a4.12 4.12 0 0 0 1.504-.464c1.36-.744 1.912-1.968 2.04-3.432.016-.224 0-.456-.24-.576l-.008.008Z" />
</svg>
