<svg fill="currentColor" xmlns="http://www.w3.org/2000/svg" viewBox="0 0 24 24">
    <path d="M22.41 9.867a5.878 5.878 0 0 0-.52-4.896c-1.327-2.273-3.992-3.442-6.596-2.892A6.1 6.1 0 0 0 10.727.075C8.066.069 5.705 1.755 4.886 4.248A6.052 6.052 0 0 0 .837 7.14a5.957 5.957 0 0 0 .753 7.069 5.878 5.878 0 0 0 .52 4.896c1.327 2.272 3.993 3.442 6.596 2.892a6.095 6.095 0 0 0 4.567 2.003c2.663.007 5.025-1.681 5.843-4.176a6.052 6.052 0 0 0 4.05-2.891 5.957 5.957 0 0 0-.756-7.067v.002Zm-9.136 12.569a4.583 4.583 0 0 1-2.915-1.038c.037-.02.101-.055.143-.08l4.84-2.751a.772.772 0 0 0 .398-.678v-6.717l2.045 1.163a.07.07 0 0 1 .04.055v5.562c-.003 2.473-2.038 4.479-4.55 4.484ZM3.49 18.322a4.405 4.405 0 0 1-.543-3.005c.036.021.099.06.144.085l4.84 2.751c.244.142.548.142.794 0l5.908-3.358v2.325a.074.074 0 0 1-.028.062l-4.892 2.78c-2.18 1.236-4.962.502-6.222-1.64Zm-1.274-10.4a4.522 4.522 0 0 1 2.37-1.965l-.001.164v5.504c-.002.28.15.539.397.677l5.908 3.358-2.045 1.162a.073.073 0 0 1-.07.006l-4.892-2.782c-2.175-1.24-2.92-3.979-1.667-6.123Zm16.805 3.85-5.908-3.359 2.045-1.161a.073.073 0 0 1 .07-.006l4.892 2.78c2.178 1.239 2.925 3.982 1.666 6.127a4.535 4.535 0 0 1-2.37 1.964V12.45a.771.771 0 0 0-.394-.677h-.001Zm2.035-3.016a6.639 6.639 0 0 0-.143-.085l-4.84-2.751a.799.799 0 0 0-.795 0L9.37 9.278V6.953a.074.074 0 0 1 .029-.062l4.892-2.778c2.179-1.238 4.965-.501 6.22 1.645.532.906.724 1.967.544 2.998h.002ZM8.257 12.9l-2.046-1.162a.07.07 0 0 1-.04-.056V6.12c.002-2.476 2.043-4.483 4.558-4.481 1.064 0 2.094.368 2.912 1.038-.037.02-.1.054-.143.08l-4.84 2.751a.771.771 0 0 0-.398.677L8.257 12.9v.001Zm1.111-2.358L12 9.046l2.632 1.495v2.992L12 15.028l-2.632-1.495v-2.991Z" />
</svg>
