<?xml version="1.0" standalone="no"?>
<!DOCTYPE svg PUBLIC "-//W3C//DTD SVG 20010904//EN"
 "http://www.w3.org/TR/2001/REC-SVG-20010904/DTD/svg10.dtd">
<svg version="1.0" xmlns="http://www.w3.org/2000/svg"
 width="418.000000pt" height="418.000000pt" viewBox="0 0 418.000000 418.000000"
 preserveAspectRatio="xMidYMid meet">
<metadata>
Created by potrace 1.14, written by Peter Selinger 2001-2017
</metadata>
<g transform="translate(0.000000,418.000000) scale(0.100000,-0.100000)"
fill="#000000" stroke="none">
<path d="M550 4003 c-173 -96 -341 -188 -373 -205 -31 -16 -57 -33 -57 -37 0
-8 17 -19 148 -92 20 -12 105 -60 187 -108 83 -48 210 -122 282 -165 l133 -77
297 172 c164 95 309 179 323 188 14 8 35 21 47 28 53 28 83 48 83 54 0 4 -33
24 -72 44 -40 21 -77 41 -83 45 -5 4 -35 21 -65 37 -30 17 -152 84 -270 149
-118 66 -226 124 -240 130 -23 10 -55 -5 -340 -163z"/>
<path d="M2984 3527 c-177 -106 -339 -202 -360 -214 -21 -12 -40 -26 -41 -30
-2 -5 45 -36 104 -70 60 -33 224 -127 366 -207 l257 -147 188 104 c103 58 219
122 258 143 229 126 304 169 304 175 0 4 -24 21 -52 36 -97 54 -153 86 -163
93 -5 4 -30 19 -55 32 -25 14 -143 82 -262 152 -119 69 -218 126 -220 126 -2
-1 -147 -87 -324 -193z"/>
<path d="M90 2290 l0 -1390 23 -13 c20 -13 570 -330 657 -379 19 -11 109 -63
200 -116 220 -127 487 -281 528 -304 17 -10 48 -27 68 -38 19 -11 46 -28 60
-36 l24 -16 -2 432 -3 433 -255 149 c-140 82 -322 189 -405 237 l-150 88 -5
953 -5 953 -60 36 c-33 20 -123 74 -200 120 -77 45 -147 87 -155 91 -46 28
-156 93 -232 138 l-88 52 0 -1390z"/>
<path d="M1320 3484 c-179 -106 -344 -205 -367 -219 l-43 -27 0 -899 0 -899
83 49 c378 224 625 371 640 383 17 12 17 61 15 909 l-3 897 -325 -194z"/>
<path d="M2532 2770 l3 -433 90 -54 c50 -30 104 -62 120 -72 49 -27 277 -162
315 -186 19 -13 74 -46 123 -74 l87 -51 -2 441 -3 441 -135 77 c-74 42 -225
128 -335 190 -110 63 -215 122 -233 133 l-32 20 2 -432z"/>
<path d="M3850 3065 c-129 -74 -235 -135 -236 -135 -1 0 -169 -95 -244 -139
-13 -7 -15 -70 -18 -450 l-2 -443 37 23 c21 12 54 32 73 44 35 23 465 278 504
299 12 7 45 27 74 45 l52 33 0 429 c0 236 -1 429 -2 429 -2 -1 -109 -62 -238
-135z"/>
<path d="M2210 2118 c-151 -89 -288 -169 -305 -178 -16 -9 -68 -40 -115 -67
-47 -28 -101 -60 -120 -70 -19 -11 -124 -73 -234 -137 -109 -64 -217 -127
-240 -140 -22 -13 -87 -51 -144 -85 -57 -33 -109 -61 -115 -61 -7 0 -7 -3 -1
-9 8 -8 319 -189 454 -264 30 -17 108 -61 173 -99 l119 -68 48 28 c72 40 200
114 435 249 116 66 229 131 251 144 399 228 804 465 804 470 0 4 -30 25 -67
47 -38 21 -185 110 -328 197 -143 87 -278 168 -300 181 l-41 22 -274 -160z"/>
<path d="M2986 1594 c-153 -90 -280 -164 -282 -164 -1 0 -39 -22 -84 -50 -45
-27 -83 -50 -85 -50 -3 0 -44 -24 -92 -53 -48 -29 -95 -56 -103 -60 -8 -4 -28
-16 -45 -26 -16 -10 -97 -58 -180 -106 -82 -48 -203 -119 -267 -157 l-118 -69
0 -430 0 -431 33 20 c41 26 302 179 344 203 18 10 167 97 333 194 166 97 315
184 333 194 134 77 483 283 490 290 4 4 6 199 5 433 l-3 426 -279 -164z"/>
</g>
</svg>
