<svg viewBox="0 0 93 12" fill="none" xmlns="http://www.w3.org/2000/svg"><path d="M56.499 1.181h2.62c.886 0 1.659.176 2.32.526a3.704 3.704 0 011.522 1.459c.354.623.53 1.338.531 2.146 0 .807-.177 1.523-.531 2.145a3.7 3.7 0 01-1.523 1.46c-.66.35-1.433.525-2.319.524H56.5v-8.26zm2.62 7.326c1.023 0 1.832-.28 2.428-.842.596-.562.894-1.346.894-2.353 0-1.008-.298-1.792-.894-2.354-.596-.56-1.405-.842-2.428-.842h-1.595v6.391h1.595zM65.968 9.228a2.839 2.839 0 01-1.093-1.096 3.107 3.107 0 01-.393-1.552 3.108 3.108 0 01.393-1.551c.251-.455.63-.834 1.093-1.096a3.15 3.15 0 011.582-.398 3.183 3.183 0 011.59.398c.465.26.846.64 1.099 1.096.264.477.4 1.01.392 1.551a3.11 3.11 0 01-.392 1.552 2.828 2.828 0 01-1.1 1.096 3.184 3.184 0 01-1.588.398 3.15 3.15 0 01-1.583-.398zm2.597-.756c.319-.181.58-.443.754-.755a2.23 2.23 0 00.284-1.137 2.23 2.23 0 00-.284-1.136 1.99 1.99 0 00-.754-.755 2.036 2.036 0 00-1.015-.266 2.013 2.013 0 00-1.757 1.021 2.23 2.23 0 00-.284 1.136c0 .43.095.81.284 1.137.175.312.436.574.754.755.303.174.65.266 1.003.266.357.001.708-.09 1.015-.266zM72.496 9.015c-.382-.408-.573-.973-.573-1.696v-3.6h1.026v3.436c0 1.054.495 1.58 1.486 1.58.318.005.629-.088.887-.265.262-.175.47-.414.606-.69.14-.281.212-.589.21-.9V3.72h1.015V9.44h-.966v-.853h-.05c-.177.292-.446.538-.805.738a2.33 2.33 0 01-1.153.3c-.74 0-1.3-.204-1.683-.611zM79.61 9.378a1.972 1.972 0 01-.821-.692 1.759 1.759 0 01-.296-.998c0-.608.24-1.081.719-1.419.479-.337 1.093-.506 1.842-.506.338-.004.675.035 1.002.115.247.058.486.143.713.254v-.3a1.295 1.295 0 00-.223-.744 1.48 1.48 0 00-.598-.508 1.857 1.857 0 00-.81-.179c-.684 0-1.207.266-1.57.796l-.858-.542c.249-.353.59-.638.989-.826.432-.2.908-.301 1.389-.294.822 0 1.47.212 1.944.635.475.423.713.992.713 1.707v3.565h-.978V8.6h-.05c-.2.298-.469.548-.785.732-.346.2-.744.302-1.148.294a2.726 2.726 0 01-1.174-.248zm2.18-.859c.289-.16.532-.386.707-.657.179-.27.273-.582.272-.9-.451-.278-.971-.416-1.559-.416-.507 0-.912.11-1.214.33-.303.218-.453.497-.453.835a.88.88 0 00.102.425c.07.132.171.245.296.331.266.196.595.3.93.294.324 0 .642-.084.92-.242zM85.39 1.181h1.026v8.261H85.39v-8.26zM88.862 9.378a1.97 1.97 0 01-.82-.692 1.757 1.757 0 01-.297-.998c0-.608.24-1.081.719-1.419.48-.337 1.093-.506 1.842-.506.338-.004.675.035 1.002.115.247.058.486.144.713.254v-.3a1.291 1.291 0 00-.224-.744 1.478 1.478 0 00-.598-.508 1.855 1.855 0 00-.809-.179c-.684 0-1.207.266-1.57.796l-.857-.542c.248-.353.589-.638.988-.826.433-.2.909-.301 1.39-.294.82 0 1.469.212 1.944.635.475.423.713.992.713 1.707v3.565h-.979V8.6h-.05c-.2.298-.468.548-.785.732-.346.2-.744.302-1.148.294a2.729 2.729 0 01-1.174-.248zm2.18-.859c.29-.16.532-.386.707-.657a1.61 1.61 0 00.272-.9c-.451-.278-.97-.416-1.559-.416-.507 0-.912.11-1.214.33-.302.218-.453.497-.452.835a.878.878 0 00.102.425c.07.132.171.245.297.331.266.196.594.3.93.294.323 0 .64-.084.918-.242z" fill="#7D7978"/><path d="M10.228 10.09c-.124.207-.29.389-.489.534a1.939 1.939 0 01-.665.314 1.99 1.99 0 01-1.444-.18L.95 7.072a1.878 1.878 0 01-.557-.468 1.785 1.785 0 01-.328-.635 1.738 1.738 0 01.19-1.379c.125-.206.29-.387.489-.532a1.94 1.94 0 01.666-.314 1.988 1.988 0 011.443.181l6.68 3.684c.216.119.405.278.557.467.152.189.264.405.328.635a1.736 1.736 0 01-.19 1.379z" fill="#2278BD"/><path d="M13.576.908A1.893 1.893 0 0114.73.062a1.98 1.98 0 011.443.18l6.679 3.684c.22.117.414.275.57.465.155.19.27.406.337.638a1.737 1.737 0 01-.186 1.392 1.845 1.845 0 01-.495.537c-.2.146-.43.252-.674.313a1.989 1.989 0 01-1.454-.198l-6.68-3.684a1.83 1.83 0 01-.885-1.103 1.745 1.745 0 01.191-1.378z" fill="#30A043"/><path d="M9.532 3.39l-3.36 1.852L3.086 3.54a2.456 2.456 0 00-.912-.288L7.63.243A1.981 1.981 0 019.067.072c.484.126.896.43 1.147.844.25.415.32.907.192 1.37-.128.464-.442.86-.874 1.104z" fill="#E43628"/><path d="M14.27 7.61l3.36-1.853 3.086 1.702c.28.154.591.252.913.288l-5.456 3.01a1.98 1.98 0 01-1.443.182 1.893 1.893 0 01-1.155-.847 1.746 1.746 0 01-.19-1.378c.13-.465.449-.862.886-1.103v-.002z" fill="#F9BD00"/><path d="M31.226 9.142c-.656-.36-1.2-.88-1.576-1.506a3.998 3.998 0 01-.583-2.118A3.998 3.998 0 0129.65 3.4a4.197 4.197 0 011.583-1.509 4.445 4.445 0 012.163-.542 4.787 4.787 0 011.734.312c.512.19.97.493 1.336.884l-.712.678a2.574 2.574 0 00-1.015-.72 3.507 3.507 0 00-1.33-.25 3.459 3.459 0 00-1.652.406 3.18 3.18 0 00-1.225 1.148c-.309.496-.463 1.066-.463 1.713 0 .646.154 1.216.461 1.71.294.483.72.88 1.231 1.149a3.47 3.47 0 001.646.406c.56 0 1.03-.083 1.408-.25.366-.16.697-.385.974-.664.21-.22.377-.475.49-.752.13-.312.208-.64.234-.975h-3.092v-.88h4.014c.037.19.057.384.058.579.001.487-.082.97-.245 1.432-.16.459-.427.876-.782 1.22-.77.796-1.793 1.194-3.067 1.193a4.425 4.425 0 01-2.173-.546zM38.718 1.529h2.52c.855 0 1.602.17 2.24.507a3.579 3.579 0 011.47 1.41c.343.602.514 1.293.514 2.074 0 .78-.171 1.471-.514 2.073a3.576 3.576 0 01-1.47 1.41c-.638.337-1.385.506-2.24.506h-2.52v-7.98zm2.52 7.078c.987 0 1.771-.271 2.35-.813.58-.543.87-1.3.87-2.274s-.29-1.732-.87-2.274c-.579-.543-1.363-.814-2.35-.814h-1.541v6.175h1.54zM48.438 9.142a4.162 4.162 0 01-1.574-1.506 3.994 3.994 0 01-.583-2.118 3.995 3.995 0 01.583-2.116 4.198 4.198 0 011.583-1.509 4.445 4.445 0 012.163-.542 4.787 4.787 0 011.733.312c.511.19.969.492 1.334.882l-.711.68a2.573 2.573 0 00-1.016-.72 3.507 3.507 0 00-1.33-.251 3.459 3.459 0 00-1.651.407 3.18 3.18 0 00-1.226 1.147c-.307.495-.461 1.066-.46 1.712 0 .646.153 1.216.46 1.71.295.483.72.88 1.233 1.149a3.47 3.47 0 001.646.406c.56 0 1.03-.083 1.408-.25.364-.16.693-.385.968-.663.21-.22.377-.476.49-.753.13-.312.208-.64.234-.975H50.63v-.88h4.014c.037.19.057.384.059.579 0 .487-.083.97-.246 1.432a3.14 3.14 0 01-.782 1.22c-.77.796-1.793 1.194-3.067 1.193a4.425 4.425 0 01-2.17-.546z" fill="#7D7978"/></svg>
