<svg viewBox=" 0 0 54 37" fill="none" xmlns="http://www.w3.org/2000/svg"><path d="M29.366 20.657l3.166.087c-.205 1.717-.771 3.043-1.699 3.98-.928.936-2.135 1.404-3.623 1.403-1.515 0-2.783-.53-3.802-1.593-1.02-1.062-1.53-2.383-1.533-3.962 0-1.588.52-2.922 1.56-4.004 1.04-1.082 2.323-1.621 3.848-1.619 1.498 0 2.75.53 3.756 1.59.692.735 1.183 1.758 1.472 3.07l-3.24.223c-.364-1.167-1.052-1.75-2.064-1.75a2.01 2.01 0 00-.872.17 2.095 2.095 0 00-.727.533c-.42.47-.63 1.066-.63 1.786 0 .697.207 1.274.619 1.727.199.225.442.403.712.522.27.12.561.177.854.168.64 0 1.151-.202 1.531-.601.38-.4.605-.975.672-1.726" fill="#CB9700"/><path d="M35.986 17.918a3.735 3.735 0 012.14.693 4.01 4.01 0 011.412 1.822c.289.74.361 1.553.208 2.336a4.103 4.103 0 01-1.066 2.064 3.84 3.84 0 01-2.762 1.19 3.84 3.84 0 01-2.763-1.19 3.902 3.902 0 01-.858-1.309 4.054 4.054 0 01-.286-1.56 4.005 4.005 0 01.281-1.563c.197-.495.491-.942.863-1.31.766-.782 1.705-1.168 2.831-1.168v-.005zm-.074 2.884a.965.965 0 00-.413.083c-.13.058-.248.144-.345.252-.203.224-.316.521-.316.83 0 .309.113.606.316.83.098.108.216.194.347.253a1.006 1.006 0 001.174-.253c.103-.11.184-.239.24-.381.054-.142.081-.294.08-.448a1.19 1.19 0 00-.076-.449 1.149 1.149 0 00-.586-.634.98.98 0 00-.418-.083" fill="#CB9700"/><path d="M43.711 18.004v3.121a1.044 1.044 0 00-.533-.17c-.507 0-.758.404-.758 1.217v3.69h-2.783V21.61c0-1.124.293-2.02.88-2.688.585-.669 1.367-1.003 2.344-1.005.283.007.566.035.846.086" fill="#CB9700"/><path d="M46.126 26.968H43.34V22.25c0-1.19.297-2.161.892-2.912.358-.44.804-.792 1.308-1.03.51-.25 1.064-.38 1.627-.383 1.112 0 2.043.39 2.803 1.173.37.37.66.816.856 1.31.196.494.291 1.025.28 1.56a4.099 4.099 0 01-.285 1.55 3.95 3.95 0 01-.844 1.308c-.753.802-1.646 1.202-2.68 1.2-.17 0-.418-.017-.745-.052v-3.217c.191.176.434.278.688.288a.944.944 0 00.404-.084.983.983 0 00.336-.25 1.151 1.151 0 00.312-.793 1.094 1.094 0 00-.081-.426 1.054 1.054 0 00-.239-.356c-.1-.105-.22-.187-.352-.243a1.023 1.023 0 00-.415-.08c-.716 0-1.074.517-1.074 1.553l-.005 4.602z" fill="#CB9700"/><path d="M52.224 22.368c.471.005.922.205 1.254.555.332.35.52.823.522 1.316.004.243-.04.484-.13.708a1.75 1.75 0 01-.39.593c-.338.34-.788.532-1.257.535a1.785 1.785 0 01-1.264-.52 1.905 1.905 0 01-.48-.957 1.958 1.958 0 01.105-1.075c.135-.34.363-.631.654-.837.292-.205.635-.316.986-.318zM43.638 4.711c.24.01.479-.03.704-.118a1.735 1.735 0 00.996-.988c.088-.225.13-.466.123-.71a1.803 1.803 0 00-.14-.706 1.73 1.73 0 00-.405-.585 1.775 1.775 0 00-.587-.408 1.708 1.708 0 00-.691-.137 1.727 1.727 0 00-.694.137c-.22.094-.422.232-.59.408a1.74 1.74 0 00-.397.587 1.81 1.81 0 00-.136.705 1.8 1.8 0 00.12.709c.087.225.219.428.386.596.355.345.827.529 1.312.51" fill="#951417"/><path d="M21.872 1.09h3.957v8.908c0 .647.099 1.078.294 1.292.195.214.591.322 1.172.322h.207v4.04H26.45c-1.441 0-2.564-.44-3.37-1.32-.804-.88-1.207-2.104-1.208-3.67V1.09z" fill="#CB9700"/><path d="M32.177 5.264a4.64 4.64 0 011.923.393 4.83 4.83 0 011.617 1.161c.474.485.85 1.066 1.103 1.707.253.642.38 1.33.37 2.025a5.32 5.32 0 01-.372 2.04 5.121 5.121 0 01-1.12 1.717 5.024 5.024 0 01-3.614 1.55 5.025 5.025 0 01-3.611-1.558 5.089 5.089 0 01-1.126-1.71 5.29 5.29 0 01-.378-2.04c0-1.488.5-2.741 1.5-3.759 1-1.017 2.235-1.526 3.705-1.526h.003zm-.093 3.767a1.278 1.278 0 00-.543.113c-.171.077-.325.19-.452.334-.264.294-.41.683-.41 1.086.001.404.15.792.415 1.085.128.141.281.254.452.331a1.31 1.31 0 001.081 0c.171-.077.325-.19.452-.332a1.62 1.62 0 00.413-1.085 1.62 1.62 0 00-.413-1.085 1.334 1.334 0 00-.452-.334 1.28 1.28 0 00-.543-.113zM53.995 15.806h-3.64V10.06c0-.586-.229-.878-.69-.878-.46 0-.683.292-.683.877v5.747h-3.643v-5.673c0-1.329.42-2.445 1.257-3.35.393-.44.87-.789 1.4-1.024a3.945 3.945 0 011.678-.338c1.386 0 2.503.526 3.34 1.581.656.824.983 1.97.981 3.438v5.366z" fill="#CB9700"/><path d="M40.396 2.89v2.732h1.641v4.031h-1.641c0 .808.126 1.367.368 1.675.241.308.39.458 1.036.458l-.576 4.01c-.19 0-.028.019-.116.01-.512-.04-1.107-.232-1.758-.601a4.922 4.922 0 01-1.759-1.633c-.558-.877-.837-2.04-.837-3.489V2.89h3.642zM23.608 15.25c-.502-2.425-2.082-4.362-4.223-5.534 2.063-.938 3.196-3.087 2.55-4.925-.678-1.92-3.038-2.775-5.275-1.908a5.046 5.046 0 00-1.745 1.13C14.276 1.348 12.103-.404 9.983.081 7.88.56 6.606 3.06 7.048 5.736A5.33 5.33 0 004.45 5.29C1.834 5.5-.155 7.486.009 9.73c.158 2.213 2.345 3.848 4.914 3.7-1.241 1.903-1.77 4.152-1.306 6.384 1.004 4.84 6.296 7.741 11.82 6.482 5.525-1.26 9.18-6.206 8.174-11.047h-.003zM17.22 4.476c1.213-.468 2.492 0 2.856 1.032.365 1.033-.32 2.263-1.527 2.733-1.207.47-2.488 0-2.856-1.033-.367-1.033.32-2.265 1.527-2.732zM10.44 2.269c1.227-.28 2.485.765 2.81 2.331.327 1.567-.404 3.069-1.63 3.35-1.225.282-2.488-.765-2.813-2.335-.325-1.57.404-3.065 1.633-3.35v.004zm-8.564 7.32C1.778 8.23 2.98 7.03 4.564 6.91c1.583-.119 2.944.877 3.042 2.234.098 1.356-1.107 2.551-2.695 2.68-1.587.128-2.942-.878-3.04-2.234h.004zm13.073 14.405c-4.067.927-7.963-1.21-8.705-4.772-.741-3.562 1.954-7.207 6.021-8.136 4.068-.93 7.963 1.211 8.705 4.776.742 3.566-1.955 7.204-6.02 8.132z" fill="#CB9700"/><path d="M44.916 6.195a1.766 1.766 0 00-.59-.426 1.696 1.696 0 00-.703-.144H41.81v10.18h3.647V7.553a1.947 1.947 0 00-.138-.737 1.874 1.874 0 00-.403-.62" fill="#CB9700"/><path d="M10.815 32.89a3.228 3.228 0 01-1.811.935c-.052 0-.107 0-.16.007-.051.007-.106.007-.158.007a2.054 2.054 0 01-1.248-.413 1.625 1.625 0 01-.592-.859 7.42 7.42 0 01-.197-1.034.633.633 0 01-.026-.175H4.486c-.093.134-.195.275-.305.423-.107.147-.23.297-.357.447a7.111 7.111 0 01-1.101 1.1c-.361.31-.812.485-1.279.495h-.09a.139.139 0 01-.044-.006.134.134 0 00-.045-.007 1.234 1.234 0 01-.52-.154 1.295 1.295 0 01-.415-.365A1.702 1.702 0 010 32.26v-.047a.048.048 0 01.013-.033v-.08h.025a.86.86 0 00.095-.006c.039-.005.083-.011.135-.02.05-.01.094-.016.133-.02a.832.832 0 01.096-.007.445.445 0 00.178.347c.11.08.236.136.368.16.036 0 .072.003.107.008a1.464 1.464 0 00.853-.188c.222-.128.43-.282.617-.461a17.659 17.659 0 001.737-1.979A86.513 86.513 0 006 27.676l.083-.12a.761.761 0 00-.178-.473.999.999 0 00-.421-.286 1.095 1.095 0 00-.213-.06.872.872 0 00-.242-.007c-.062 0-.123.004-.185.013l-.197.027a2.449 2.449 0 00-1.088.58 1.588 1.588 0 00-.567 1.034v.08a.046.046 0 00-.012.033v.034c.008.303.115.51.32.62.206.113.43.189.661.223l.152.026c.051.01.102.014.154.014a.04.04 0 00.03.013h.033a.899.899 0 00-.153.134 6.126 6.126 0 01-.639.514 1.422 1.422 0 01-.783.247c-.407.009-.715-.134-.923-.428a1.687 1.687 0 01-.312-1.005 1.813 1.813 0 01.102-.6 2.576 2.576 0 011.133-1.44 5.574 5.574 0 011.757-.707 6.48 6.48 0 01.801-.134 7.37 7.37 0 01.746-.04c.985 0 1.77.251 2.355.754.586.502.912 1.284.98 2.345.008.08.013.163.013.246 0 .083.004.166.012.248 0 .09 0 .183.007.28.006.098.01.197.019.295.017.295.042.589.076.884.035.293.09.583.166.868a.52.52 0 00.147.268c.06.053.135.081.213.08a.277.277 0 00.101-.02.895.895 0 01.107-.033l.088-.06a2.84 2.84 0 00.107-.074 1.8 1.8 0 00.381-.434c.125-.198.216-.418.268-.65l.65.095c-.067.685-.378 1.295-.934 1.83zm-4.404-2.903c-.021-.169-.04-.335-.057-.507-.016-.172-.046-.325-.064-.494l-.05-.507c-.161.294-.342.611-.542.954-.2.342-.41.696-.63 1.06h1.413c-.025-.17-.049-.34-.07-.509v.003z" fill="#951417"/><path d="M17.129 31.591c-.013.031-.024.06-.032.087-.18.394-.398.768-.649 1.117a2.778 2.778 0 01-1.019.82c-.279.13-.571.227-.872.288-.32.067-.646.1-.973.1h-.166a4.672 4.672 0 01-1.419-.3 2.473 2.473 0 01-1.451-1.454 1.953 1.953 0 01-.107-.634c.003-.418.127-.825.356-1.167.235-.366.55-.67.916-.887.287-.159.59-.282.904-.367a4.825 4.825 0 011.095-.18.808.808 0 01.14-.013h.128c.31-.002.617.039.916.12.276.075.532.216.746.414a1.455 1.455 0 01.383.84v.093c0 .118-.02.236-.058.347a.89.89 0 01-.171.306.828.828 0 01-.332.254c-.13.054-.267.081-.407.08H15a.205.205 0 01-.07-.013 1.143 1.143 0 01-.458-.172.907.907 0 01-.395-.628v-.066a.04.04 0 01-.013-.027v-.026a.804.804 0 01.19-.534.954.954 0 01.472-.307c-.05-.018-.107-.034-.153-.047a.427.427 0 00-.165-.007h-.07a.249.249 0 00-.07.014.17.17 0 00-.07.013l-.07.027c-.32.125-.59.358-.77.66a3.061 3.061 0 00-.478 1.327 2.67 2.67 0 00-.013.254c.001.321.095.635.268.9.169.253.45.38.84.38.654 0 1.184-.188 1.592-.567a4.48 4.48 0 001.005-1.407l.598.28a.578.578 0 00-.041.082z" fill="#951417"/><path d="M23.303 33.26c-.438.466-1.063.7-1.878.7h-.064a1.845 1.845 0 01-.77-.195 1.126 1.126 0 01-.54-.593 2.904 2.904 0 01-.783.54 2.65 2.65 0 01-.898.247.485.485 0 01-.106.014h-.12a2.381 2.381 0 01-.86-.188 1.805 1.805 0 01-.732-.586 2.044 2.044 0 01-.35-.64 2.181 2.181 0 01-.107-.68c.002-.418.11-.828.311-1.188.2-.373.472-.7.796-.96a3.39 3.39 0 01.853-.487c.318-.129.653-.204.993-.223a.43.43 0 01.107-.014h.106c.268 0 .534.042.79.127.251.083.484.217.687.394l.127-.401h2.483c-.05.16-.107.323-.159.487-.052.164-.107.327-.159.486-.106.32-.218.644-.325.969a43.563 43.563 0 00-.324 1.012.105.105 0 00-.012.06.462.462 0 00-.039.16.127.127 0 00-.013.054v.053c0 .039.006.076.02.112a.1.1 0 00.026.042c.012.012.027.02.043.024a.22.22 0 00.057.02.13.13 0 00.07-.007c.051 0 .1-.01.147-.033.047-.021.096-.046.147-.073.1-.07.194-.15.279-.24.092-.096.177-.198.255-.307.073-.092.139-.19.197-.294.045-.077.086-.157.121-.24l.026-.053.025-.053c0-.018.005-.037.013-.053a.45.45 0 01.026-.054l.662.307a6.334 6.334 0 01-1.128 1.753zm-2.954-3.33c-.03-.06-.106-.092-.223-.092a.691.691 0 00-.254.053c-.184.089-.349.216-.484.374-.16.177-.305.368-.433.572-.09.136-.172.277-.248.421a2.816 2.816 0 00-.261.7l-.05.194c-.017.067-.03.136-.038.206a.741.741 0 00-.032.174c0 .062-.007.12-.007.174a.766.766 0 00.064.334.24.24 0 00.095.105c.04.023.088.034.134.03a.843.843 0 00.36-.087.883.883 0 00.296-.234c.19-.213.355-.45.49-.707.071-.124.135-.253.19-.386l.14-.335a6.72 6.72 0 00.23-.72c.045-.17.071-.345.076-.52a.598.598 0 00-.045-.255z" fill="#951417"/><path d="M30.616 33.26c-.433.466-1.053.7-1.859.7a1.87 1.87 0 01-.796-.175 1.084 1.084 0 01-.553-.6 2.283 2.283 0 01-.834.6 2.313 2.313 0 01-1.885 0 2.017 2.017 0 01-.769-.586 1.932 1.932 0 01-.331-.54 2.365 2.365 0 01-.153-.58 1.21 1.21 0 00-.006-.127 1.066 1.066 0 01-.006-.112c.002-.41.108-.813.305-1.167.204-.378.482-.707.815-.966.26-.204.547-.365.852-.48a3.54 3.54 0 01.993-.224h.23c.273-.001.546.04.808.12.26.081.5.217.707.4l.979-3.014h2.419c-.306.926-.612 1.85-.916 2.774l-.917 2.774a.15.15 0 01-.013.047.205.205 0 00-.012.074.44.44 0 00-.026.133.127.127 0 00-.013.053v.054c0 .038.006.076.02.111a.101.101 0 00.057.066c.018.01.037.016.057.02a.128.128 0 00.07-.007c.046 0 .091-.01.134-.026.05-.02.098-.041.146-.066.104-.072.2-.154.287-.247.097-.103.188-.208.273-.314a2.476 2.476 0 00.318-.533l.051-.107.051-.111.65.307a6.65 6.65 0 01-1.133 1.749zm-3.139-1.882c.021-.067.045-.144.07-.233.026-.07.05-.144.07-.224.022-.076.037-.154.046-.233a1.04 1.04 0 00.032-.18c0-.058.006-.111.006-.167a.73.73 0 00-.077-.353.313.313 0 00-.127-.114.296.296 0 00-.166-.027.333.333 0 00-.07.008c-.021 0-.044.011-.07.019-.193.06-.366.179-.496.34a4.527 4.527 0 00-.445.595 8.567 8.567 0 00-.236.44 3.86 3.86 0 00-.16.346l-.037.111c-.017.05-.034.105-.051.167a1.701 1.701 0 00-.064.233 36.79 36.79 0 00-.051.26c0 .045-.002.09-.007.134a1.403 1.403 0 00-.006.133c-.003.12.024.24.077.347.023.05.06.09.105.117.045.028.097.04.15.037.13.002.259-.025.378-.079a.924.924 0 00.315-.234c.188-.206.349-.437.477-.687.06-.106.112-.211.16-.314a5.365 5.365 0 00.177-.442z" fill="#951417"/><path d="M36.739 32.719c-.291.386-.667.693-1.096.893-.282.135-.58.233-.885.294-.312.062-.63.093-.948.094h-.152a.782.782 0 01-.14-.014c-.202-.009-.401-.033-.599-.073a4.943 4.943 0 01-.573-.154 2.865 2.865 0 01-1.215-.813 1.903 1.903 0 01-.477-1.294 2.652 2.652 0 01.127-.774c.175-.541.545-.989 1.031-1.247a4.506 4.506 0 011.66-.567 5.643 5.643 0 01.737-.053c.174 0 .348.009.522.027a2.559 2.559 0 01.541.112l.07.02c.253.076.489.203.694.374.106.085.19.194.25.32a.94.94 0 01.087.4c.014.227-.033.452-.134.652-.1.2-.252.367-.438.482-.402.277-.846.48-1.312.6-.25.069-.506.118-.763.147a4.103 4.103 0 01-.64.027c.026.284.15.547.351.74.214.182.483.274.758.26.58.02 1.15-.177 1.604-.558.439-.382.787-.866 1.017-1.414l.64.307a8.013 8.013 0 01-.718 1.212zm-1.732-3.046a.577.577 0 00-.332-.112.994.994 0 00-.447.09c-.14.065-.266.162-.367.283a2.769 2.769 0 00-.623 1.174 8.805 8.805 0 00-.064.293c.107-.009.213-.022.32-.04.111-.018.222-.044.33-.08.319-.086.619-.236.885-.44.13-.097.235-.225.307-.373.072-.149.108-.314.106-.48a.4.4 0 00-.115-.315z" fill="#951417"/><path d="M47.01 33.246c-.441.476-1.06.713-1.858.713-.059 0-.12 0-.185-.006-.064-.007-.129-.011-.197-.02a2.268 2.268 0 01-.566-.154 1.013 1.013 0 01-.452-.367 1.235 1.235 0 01-.179-.38 1.58 1.58 0 01-.05-.407c0-.062 0-.121.006-.18.006-.058.01-.118.019-.18.025-.15.06-.3.106-.446.047-.146.096-.286.146-.42l.052-.146c.025-.072.055-.152.089-.24a.972.972 0 01.037-.12.778.778 0 00.039-.134c.017-.071.032-.14.044-.206a.972.972 0 00.02-.181.347.347 0 00-.045-.18.16.16 0 00-.064-.058.152.152 0 00-.082-.016.577.577 0 00-.433.224 2.84 2.84 0 00-.357.473 5.817 5.817 0 00-.14.286c-.042.093-.076.176-.106.247l-.203.62-.204.62c-.068.205-.148.426-.213.634-.065.21-.137.416-.204.62h-2.517c.093-.266.185-.533.274-.8l.273-.813c.093-.276.173-.534.261-.8.089-.268.176-.535.261-.801a1.115 1.115 0 00.051-.28.252.252 0 00-.057-.187.23.23 0 00-.159-.054.489.489 0 00-.267.08.745.745 0 00-.146.101 1.02 1.02 0 00-.135.14 3.81 3.81 0 00-.413.647c-.184.364-.344.74-.478 1.127-.106.335-.199.608-.267.814-.051.178-.101.346-.152.506l-.107.32h-2.376l1.54-4.682h2.381l-.106.294c.206-.13.426-.235.655-.314.237-.083.483-.134.732-.153h.152c.122 0 .243.01.364.027.12.017.237.049.35.094.177.06.341.158.483.286.146.132.253.306.306.5a2.74 2.74 0 01.859-.653 2.279 2.279 0 011.75-.09c.295.087.554.275.736.534.181.258.276.573.27.893a1.864 1.864 0 01-.114.654 6.607 6.607 0 01-.077.224c-.034.095-.068.2-.107.307l-.025.08-.026.08-.096.354c-.026.088-.04.18-.044.272v.034a.11.11 0 00.012.047.06.06 0 00.045.013h.083a.415.415 0 00.127-.02.55.55 0 00.128-.06c.132-.083.252-.186.356-.306.116-.13.223-.268.32-.415.084-.123.158-.242.222-.352.054-.093.103-.189.146-.287l.64.32a6.634 6.634 0 01-1.128 1.723z" fill="#951417"/><path d="M53.311 30.532l-.458 1.413c-.154.471-.31.942-.471 1.413l-.459 1.407c-.194.605-.582 1.103-1.164 1.493a4.304 4.304 0 01-1.836.715 4.996 4.996 0 01-.484.027c-.259 0-.517-.03-.77-.093a2.405 2.405 0 01-.694-.293 1.596 1.596 0 01-.477-.467 1.843 1.843 0 01-.248-.641.215.215 0 00-.006-.053.237.237 0 01-.007-.053.124.124 0 01-.012-.054v-.053a.926.926 0 01.254-.62c.157-.172.362-.286.585-.327a1.382 1.382 0 01.228-.027.976.976 0 01.4.081c.128.055.243.136.339.24a1.003 1.003 0 01.28.68v.04a.935.935 0 01-.16.513.932.932 0 01-.502.367.689.689 0 00.057.026.18.18 0 00.07.014.12.12 0 00.058.013h.057c.207.013.414-.03.6-.125.187-.094.347-.237.466-.415.264-.379.476-.794.63-1.234.076-.223.147-.441.213-.653l.172-.574a3.176 3.176 0 01-1.438.64 1.764 1.764 0 01-.16.02c-.054 0-.107.008-.172.008-.207 0-.413-.043-.604-.128a1.125 1.125 0 01-.49-.447 1.323 1.323 0 01-.165-.406 1.917 1.917 0 01-.051-.434c0-.141.012-.282.038-.42a2.77 2.77 0 01.101-.393c.077-.214.151-.43.223-.648.072-.218.143-.438.213-.66a77.823 77.823 0 01.426-1.306h2.415c-.085.249-.167.498-.248.746-.081.248-.163.499-.248.747a46.654 46.654 0 00-.484 1.494.407.407 0 00-.038.16.042.042 0 00-.013.032v.048c0 .035.01.07.026.1a.17.17 0 00.076.074.483.483 0 00.153.026c.245 0 .478-.186.7-.559.226-.379.418-.78.572-1.197.135-.356.247-.691.337-1.005.09-.313.156-.533.198-.66h2.43l-.458 1.408z" fill="#951417"/></svg>
