<svg version="1.1" id="Layer_1" xmlns="http://www.w3.org/2000/svg" x="0" y="0" viewBox="0 0 512 512"
     style="enable-background:new 0 0 512 512" xml:space="preserve">
    <style>
        .st0{fill:#b19177}
        .st1{fill:#72594b}
        .st2{fill:#eae9e8}
    </style>
    <path class="st0"
          d="M388.7 264c-19.2-22.1-31.3-57.2-31.6-58.1-6.7-17.7-14-25.3-28.8-19.8-16.1 6-18.5 23.1-13.5 39 .1.4.6 2.3 1.5 5.1-8.8-12-78.9-106.7-76.2-103.1-8-10.8-23.1-14-34.4-6.8-12.6 8-15.6 24.9-6.9 36.7-.5-.6-13.5-18.2-13-17.6-8.3-11.2-24-14.2-35.4-6.2-11.8 8.3-14.4 24.5-5.9 36 6.1 8.3 9 12.2 13.3 18-8.7-11.8-25.8-13.9-37.1-4.2-10.2 8.7-11.5 24.1-3.6 34.9l24.6 33.3c-8.7-11.8-25.8-13.9-37.1-4.2-10.2 9-11.6 24.3-3.6 35.1 12.9 17.5 107.1 144.8 121 163.7 12.7 17.1 30 28.8 49 34.5 17.9 5.4 25 19.4 27.2 21.7l.9 1.2c7.1 9.6 20.7 11.7 30.3 4.5l96.4-71.2c9.6-7.1 11.6-20.5 4.5-30.1L417.4 389l3.4-50.4c1.3-19.4-4.4-38.7-16.3-54.1-12.8-16.6-13.9-18.3-15.8-20.5z"/>
    <path class="st1"
          d="M220.5 144.3c-6.2-8.4-6.5-19.3-1.6-27.8-4.5 0-9.1 1.3-13.2 3.8-.4.3-.9.6-1.3.9h-.1l-1.2.9c-10.5 8.5-12.5 23.9-4.4 34.9l73.8 99.8c4 5.4 11.7 6.5 17 2.3 5.6-4.4 6.6-12.4 2.4-18.1l-71.4-96.7zm-.9-1.1zM174.2 167.6c-.3-.4-1.6-2.1-1.8-2.4-1.8-2.4-3.8-5.1-6.3-8.5-6.2-8.4-6.5-19.3-1.6-27.8-4.9 0-9.9 1.5-14.2 4.5-11.7 8.2-14.3 24.2-6.1 35.7.1.2 86.9 117.6 86.8 117.5 4.2 5.7 12.4 6.5 17.7 1.7 5.3-4.8 6.1-12.9 1.8-18.7-6.2-8.3-70.1-93.7-76.3-102zM320.8 490.5l-.9-1.2c-2.1-2.3-9.2-16.3-27.2-21.7-19-5.7-36.3-17.3-49-34.5-14-18.9-108.1-146.3-121-163.7-6.2-8.4-6.8-19.6-1.8-28.3-5.7.1-11.5 2.1-16.3 6.2-10.2 8.7-11.6 24-3.6 34.8 12.9 17.5 107.1 144.8 121 163.7 12.7 17.1 30 28.8 49 34.5 17.9 5.4 25 19.4 27.2 21.7l.9 1.2c7.1 9.6 20.7 11.7 30.3 4.5l11.8-8.7c-7.6 1.1-15.5-1.9-20.4-8.5zM189.4 316c4.5 6 13.2 6.7 18.5 1.4 4.4-4.3 4.9-11.2 1.2-16.2-1-1.4 9.8 13.4-70.4-95.8-6.2-8.4-6.8-19.6-1.8-28.3-5.7.1-11.5 2.1-16.3 6.2-10.2 8.7-11.5 24.1-3.6 34.9 32.9 44.3 38.1 51.4 72.4 97.8zM316.3 230.3l13.8 18.5c3.5 4.7 10.3 5.5 14.8 1.7 4.1-3.4 5.2-9.2 2.8-13.9-5.8-11.7-8.7-15.8-11.3-24.2-.1-.6-5.6-15.8.8-28.1h-1.1c-.7 0-1.5.1-2.2.2-.8.1-1.6.3-2.5.5-1.1.3-2.2.6-3.2 1-16.1 6.5-18.5 22.9-13.5 39 .2.6.7 2.5 1.6 5.3z"/>
    <path class="st0"
          d="M430.3 233.3c-19.2-22.1-31.3-57.2-31.6-58.1-6.7-17.7-14-25.3-28.8-19.8-16.1 6-18.5 23.1-13.5 39 .1.4.6 2.3 1.5 5.1-8.8-12-78.9-106.7-76.2-103.1-8-10.8-23.1-14-34.4-6.8-12.6 8-15.6 24.9-6.9 36.7-.5-.6-13.5-18.2-13-17.6-8.3-11.2-24-14.2-35.4-6.2-11.8 8.3-14.4 24.5-5.9 36 6.1 8.3 9 12.2 13.3 18-8.7-11.8-25.8-13.9-37.1-4.2-10.2 8.7-11.5 24.1-3.6 34.9l24.6 33.3c-8.7-11.8-25.8-13.9-37.1-4.2-10.2 8.7-11.6 24.1-3.6 34.9 12.9 17.5 107.1 144.8 121 163.7 12.7 17.1 30 28.8 49 34.5 17.9 5.4 25 19.4 27.2 21.7l.9 1.2c7.1 9.6 20.7 11.7 30.3 4.5l96.4-71.2c9.6-7.1 11.6-20.5 4.5-30.1L459 358.4l3.4-50.4c1.3-19.4-4.4-38.7-16.3-54.1-12.9-16.7-14-18.4-15.8-20.6z"/>
    <path class="st1"
          d="M262 113.7c-6.2-8.4-6.5-19.3-1.6-27.8-9.8.1-15.3 5.5-15.7 5.7-10.5 8.5-12.5 23.9-4.4 34.9l73.8 99.8c4 5.4 11.7 6.5 17 2.3 5.6-4.4 6.6-12.4 2.4-18.1L262 113.7zm-.9-1.2zM215.8 136.9c-.3-.4-1.6-2.1-1.8-2.4-1.8-2.4-3.8-5.1-6.3-8.5-6.2-8.4-6.5-19.3-1.6-27.8-4.9 0-9.9 1.5-14.2 4.5-11.7 8.2-14.3 24.2-6.1 35.7l13.6 18.4 73.3 99.1c4.2 5.7 12.4 6.5 17.7 1.7 5.3-4.8 6.1-12.9 1.8-18.7-6.4-8.3-70.2-93.7-76.4-102zM362.3 459.8l-.9-1.2c-2.1-2.3-9.2-16.3-27.2-21.7-19-5.7-36.3-17.3-49-34.5-14-18.9-108.1-146.3-121-163.7-6.2-8.4-6.8-19.6-1.8-28.3-20.8.2-32.4 24.1-19.9 41.1 12.9 17.5 107.1 144.8 121 163.7 12.7 17.1 30 28.8 49 34.5 17.9 5.4 25 19.4 27.2 21.7l.9 1.2c7.1 9.6 20.7 11.7 30.3 4.5l11.8-8.7c-7.6 1-15.5-2-20.4-8.6zM231 285.3c4.5 6 13.2 6.7 18.5 1.4 4.4-4.3 4.9-11.2 1.2-16.2-1-1.4 9.8 13.4-70.4-95.8-6.2-8.4-6.8-19.6-1.8-28.3-20.8.2-32.4 24.1-19.9 41.1.1.1 38.1 51.4 72.4 97.8z"/>
    <path class="st2"
          d="m163.2 61.3-27.3-41c-4.7-7-1.6-16.6 6.3-19.5 7.4-2.8 15.5 2.1 16.5 10l6.4 49.8c.1 1-1.3 1.6-1.9.7zM124.3 87.1 97 46.1c-4.7-7-14.7-7.9-20.5-1.7-5.4 5.8-4 15.1 2.8 19l43.5 25.1c1.1.7 2.2-.5 1.5-1.4zM99.9 121.9l-47.8-14c-7.8-2.3-15.7 3.3-16.1 11.4-.4 8.2 6.9 14.7 15 13.3l48.8-8.7c1.1-.1 1.2-1.6.1-2zM315.7 61.3l27.4-41.2c4.6-6.9 1.5-16.3-6.2-19.2-7.6-2.8-15.8 2.1-16.8 10.1l-6.3 49.5c-.2 1.1 1.3 1.7 1.9.8zM354.5 87.1l28-42c4.3-6.5 13.6-7.3 18.9-1.5 5.8 6.3 4.3 16.3-3.1 20.6l-42.4 24.5c-1 .5-2-.7-1.4-1.6zM378.9 121.9l46.8-13.7c8.3-2.4 16.7 3.5 17.2 12.2.4 7.7-6.5 13.7-14 12.4L379 124c-1.1-.2-1.2-1.7-.1-2.1z"/>
    <path class="st1"
          d="m357.8 199.6 13.8 18.5c3.5 4.7 10.3 5.5 14.8 1.7 4.1-3.4 5.2-9.2 2.8-13.9l-7-13.6c-1.7-3.4-3.2-7-4.3-10.6-3.1-9.8-3.3-20.2.8-28-.4 0-1.1 0-1.9.1h-.3c-.3 0-.5.1-.8.1-.1 0-.2 0-.4.1-.2 0-.5.1-.7.1-.2 0-.3.1-.5.1s-.5.1-.7.1c-.2 0-.4.1-.6.1-.2.1-.4.1-.6.2-.2.1-.5.1-.8.2-.2.1-.3.1-.5.1-17 5.6-20 22.8-14.8 39.5.4.5.8 2.4 1.7 5.2z"/>
</svg>
