<?xml version="1.0" encoding="utf-8"?>
<!-- Generator: Adobe Illustrator 23.0.1, SVG Export Plug-In . SVG Version: 6.00 Build 0)  -->
<svg version="1.1" id="Layer_1" xmlns:svgjs="http://svgjs.com/svgjs"
	 xmlns="http://www.w3.org/2000/svg" xmlns:xlink="http://www.w3.org/1999/xlink" x="0px" y="0px" viewBox="0 0 512 512"
	 style="enable-background:new 0 0 512 512;" xml:space="preserve">
<style type="text/css">
	.st0{fill:#B19177;}
	.st1{fill:#72594B;}
	.st2{fill:#EAE9E8;}
</style>
<g>
	<path class="st0" d="M388.7,264c-19.2-22.1-31.3-57.2-31.6-58.1c-6.7-17.7-14-25.3-28.8-19.8c-16.1,6-18.5,23.1-13.5,39
		c0.1,0.4,0.6,2.3,1.5,5.1c-8.8-12-78.9-106.7-76.2-103.1c-8-10.8-23.1-14-34.4-6.8c-12.6,8-15.6,24.9-6.9,36.7
		c-0.5-0.6-13.5-18.2-13-17.6c-8.3-11.2-24-14.2-35.4-6.2c-11.8,8.3-14.4,24.5-5.9,36c6.1,8.3,9,12.2,13.3,18
		c-8.7-11.8-25.8-13.9-37.1-4.2c-10.2,8.7-11.5,24.1-3.6,34.9l24.6,33.3c-8.7-11.8-25.8-13.9-37.1-4.2C94.4,256,93,271.3,101,282.1
		c12.9,17.5,107.1,144.8,121,163.7c12.7,17.1,30,28.8,49,34.5c17.9,5.4,25,19.4,27.2,21.7l0.9,1.2c7.1,9.6,20.7,11.7,30.3,4.5
		l96.4-71.2c9.6-7.1,11.6-20.5,4.5-30.1L417.4,389l3.4-50.4c1.3-19.4-4.4-38.7-16.3-54.1C391.7,267.9,390.6,266.2,388.7,264z"/>
	<path class="st1" d="M220.5,144.3c-6.2-8.4-6.5-19.3-1.6-27.8c-4.5,0-9.1,1.3-13.2,3.8c0,0,0,0,0,0c-0.4,0.3-0.9,0.6-1.3,0.9
		c0,0,0,0-0.1,0c-0.4,0.3-0.8,0.6-1.2,0.9l0,0l0,0c-10.5,8.5-12.5,23.9-4.4,34.9l0,0l73.8,99.8c4,5.4,11.7,6.5,17,2.3l0,0
		c5.6-4.4,6.6-12.4,2.4-18.1L220.5,144.3z M219.6,143.2L219.6,143.2L219.6,143.2L219.6,143.2z"/>
	<g>
		<path class="st1" d="M174.2,167.6c-0.3-0.4-1.6-2.1-1.8-2.4c-1.8-2.4-3.8-5.1-6.3-8.5c-6.2-8.4-6.5-19.3-1.6-27.8
			c-4.9,0-9.9,1.5-14.2,4.5c-11.7,8.2-14.3,24.2-6.1,35.7c0.1,0.2,86.9,117.6,86.8,117.5c4.2,5.7,12.4,6.5,17.7,1.7l0,0
			c5.3-4.8,6.1-12.9,1.8-18.7C244.3,261.3,180.4,175.9,174.2,167.6z"/>
		<path class="st1" d="M320.8,490.5l-0.9-1.2c-2.1-2.3-9.2-16.3-27.2-21.7c-19-5.7-36.3-17.3-49-34.5
			c-14-18.9-108.1-146.3-121-163.7c-6.2-8.4-6.8-19.6-1.8-28.3c-5.7,0.1-11.5,2.1-16.3,6.2C94.4,256,93,271.3,101,282.1
			c12.9,17.5,107.1,144.8,121,163.7c12.7,17.1,30,28.8,49,34.5c17.9,5.4,25,19.4,27.2,21.7l0.9,1.2c7.1,9.6,20.7,11.7,30.3,4.5
			l11.8-8.7C333.6,500.1,325.7,497.1,320.8,490.5z"/>
		<path class="st1" d="M189.4,316c4.5,6,13.2,6.7,18.5,1.4l0,0c4.4-4.3,4.9-11.2,1.2-16.2c-1-1.4,9.8,13.4-70.4-95.8
			c-6.2-8.4-6.8-19.6-1.8-28.3c-5.7,0.1-11.5,2.1-16.3,6.2c-10.2,8.7-11.5,24.1-3.6,34.9C149.9,262.5,155.1,269.6,189.4,316z"/>
	</g>
	<path class="st1" d="M316.3,230.3l13.8,18.5c3.5,4.7,10.3,5.5,14.8,1.7l0,0c4.1-3.4,5.2-9.2,2.8-13.9c-5.8-11.7-8.7-15.8-11.3-24.2
		c-0.1-0.6-5.6-15.8,0.8-28.1c-0.4,0-0.9,0-1.1,0c-0.7,0-1.5,0.1-2.2,0.2c-0.8,0.1-1.6,0.3-2.5,0.5c-1.1,0.3-2.2,0.6-3.2,1
		c-16.1,6.5-18.5,22.9-13.5,39C314.9,225.6,315.4,227.5,316.3,230.3L316.3,230.3L316.3,230.3z"/>
	<path class="st0" d="M430.3,233.3c-19.2-22.1-31.3-57.2-31.6-58.1c-6.7-17.7-14-25.3-28.8-19.8c-16.1,6-18.5,23.1-13.5,39
		c0.1,0.4,0.6,2.3,1.5,5.1c-8.8-12-78.9-106.7-76.2-103.1c-8-10.8-23.1-14-34.4-6.8c-12.6,8-15.6,24.9-6.9,36.7
		c-0.5-0.6-13.5-18.2-13-17.6c-8.3-11.2-24-14.2-35.4-6.2c-11.8,8.3-14.4,24.5-5.9,36c6.1,8.3,9,12.2,13.3,18
		c-8.7-11.8-25.8-13.9-37.1-4.2c-10.2,8.7-11.5,24.1-3.6,34.9l24.6,33.3c-8.7-11.8-25.8-13.9-37.1-4.2c-10.2,8.7-11.6,24.1-3.6,34.9
		c12.9,17.5,107.1,144.8,121,163.7c12.7,17.1,30,28.8,49,34.5c17.9,5.4,25,19.4,27.2,21.7l0.9,1.2c7.1,9.6,20.7,11.7,30.3,4.5
		l96.4-71.2c9.6-7.1,11.6-20.5,4.5-30.1L459,358.4l3.4-50.4c1.3-19.4-4.4-38.7-16.3-54.1C433.2,237.2,432.1,235.5,430.3,233.3z"/>
	<g>
		<path class="st1" d="M262,113.7c-6.2-8.4-6.5-19.3-1.6-27.8c-9.8,0.1-15.3,5.5-15.7,5.7l0,0c-10.5,8.5-12.5,23.9-4.4,34.9l0,0
			l73.8,99.8c4,5.4,11.7,6.5,17,2.3l0,0c5.6-4.4,6.6-12.4,2.4-18.1L262,113.7z M261.1,112.5L261.1,112.5L261.1,112.5L261.1,112.5z"
			/>
		<path class="st1" d="M215.8,136.9c-0.3-0.4-1.6-2.1-1.8-2.4c-1.8-2.4-3.8-5.1-6.3-8.5c-6.2-8.4-6.5-19.3-1.6-27.8
			c-4.9,0-9.9,1.5-14.2,4.5c-11.7,8.2-14.3,24.2-6.1,35.7l13.6,18.4l73.3,99.1c4.2,5.7,12.4,6.5,17.7,1.7l0,0
			c5.3-4.8,6.1-12.9,1.8-18.7C285.8,230.6,222,145.2,215.8,136.9z"/>
		<path class="st1" d="M362.3,459.8l-0.9-1.2c-2.1-2.3-9.2-16.3-27.2-21.7c-19-5.7-36.3-17.3-49-34.5
			c-14-18.9-108.1-146.3-121-163.7c-6.2-8.4-6.8-19.6-1.8-28.3c-20.8,0.2-32.4,24.1-19.9,41.1c12.9,17.5,107.1,144.8,121,163.7
			c12.7,17.1,30,28.8,49,34.5c17.9,5.4,25,19.4,27.2,21.7l0.9,1.2c7.1,9.6,20.7,11.7,30.3,4.5l11.8-8.7
			C375.1,469.4,367.2,466.4,362.3,459.8z"/>
		<path class="st1" d="M231,285.3c4.5,6,13.2,6.7,18.5,1.4l0,0c4.4-4.3,4.9-11.2,1.2-16.2c-1-1.4,9.8,13.4-70.4-95.8
			c-6.2-8.4-6.8-19.6-1.8-28.3c-20.8,0.2-32.4,24.1-19.9,41.1C158.7,187.6,196.7,238.9,231,285.3z"/>
	</g>
	<g>
		<path class="st2" d="M163.2,61.3l-27.3-41c-4.7-7-1.6-16.6,6.3-19.5l0,0c7.4-2.8,15.5,2.1,16.5,10l6.4,49.8
			C165.2,61.6,163.8,62.2,163.2,61.3z"/>
		<path class="st2" d="M124.3,87.1l-27.3-41c-4.7-7-14.7-7.9-20.5-1.7l0,0c-5.4,5.8-4,15.1,2.8,19l43.5,25.1
			C123.9,89.2,125,88,124.3,87.1z"/>
		<path class="st2" d="M99.9,121.9l-47.8-14c-7.8-2.3-15.7,3.3-16.1,11.4l0,0c-0.4,8.2,6.9,14.7,15,13.3l48.8-8.7
			C100.9,123.8,101,122.3,99.9,121.9z"/>
		<path class="st2" d="M315.7,61.3l27.4-41.2c4.6-6.9,1.5-16.3-6.2-19.2l0,0C329.3-1.9,321.1,3,320.1,11l-6.3,49.5
			C313.6,61.6,315.1,62.2,315.7,61.3z"/>
		<path class="st2" d="M354.5,87.1l28-42c4.3-6.5,13.6-7.3,18.9-1.5l0,0c5.8,6.3,4.3,16.3-3.1,20.6l-42.4,24.5
			C354.9,89.2,353.9,88,354.5,87.1z"/>
		<path class="st2" d="M378.9,121.9l46.8-13.7c8.3-2.4,16.7,3.5,17.2,12.2l0,0c0.4,7.7-6.5,13.7-14,12.4L379,124
			C377.9,123.8,377.8,122.3,378.9,121.9z"/>
	</g>
	<path class="st1" d="M357.8,199.6l13.8,18.5c3.5,4.7,10.3,5.5,14.8,1.7l0,0c4.1-3.4,5.2-9.2,2.8-13.9l-7-13.6
		c-1.7-3.4-3.2-7-4.3-10.6l0,0c-3.1-9.8-3.3-20.2,0.8-28c-0.4,0-1.1,0-1.9,0.1c-0.1,0-0.2,0-0.3,0c-0.3,0-0.5,0.1-0.8,0.1
		c-0.1,0-0.2,0-0.4,0.1c-0.2,0-0.5,0.1-0.7,0.1c-0.2,0-0.3,0.1-0.5,0.1c-0.2,0-0.5,0.1-0.7,0.1c-0.2,0-0.4,0.1-0.6,0.1
		c-0.2,0.1-0.4,0.1-0.6,0.2c-0.2,0.1-0.5,0.1-0.8,0.2c-0.2,0.1-0.3,0.1-0.5,0.1c-17,5.6-20,22.8-14.8,39.5
		C356.5,194.9,356.9,196.8,357.8,199.6C357.8,199.6,357.8,199.6,357.8,199.6L357.8,199.6z"/>
</g>
</svg>
