<?xml version="1.0" encoding="utf-8"?>
<!-- Generator: Adobe Illustrator 23.0.1, SVG Export Plug-In . SVG Version: 6.00 Build 0)  -->
<svg version="1.1" id="Capa_1" xmlns="http://www.w3.org/2000/svg" xmlns:xlink="http://www.w3.org/1999/xlink" x="0px" y="0px"
	 viewBox="0 0 512 512" style="enable-background:new 0 0 512 512;" xml:space="preserve">
<style type="text/css">
	.st0{fill:#B19177;}
	.st1{fill:#72594B;}
	.st2{fill:#F9C295;}
	.st3{fill:#E59F6A;}
	.st4{fill:#5C9CEE;}
	.st5{fill:#3580D3;}
	.st6{fill:#ED5575;}
	.st7{fill:#CC3A60;}
	.st8{fill:#EBEEF2;}
</style>
<path class="st0" d="M418.3,249.1l-13-105.7l-24.4,3l0,0l-47.2-26.6c-5-2.8-10.8-4.1-16.6-3.5l-74.6,6.9c-9.2,0.8-17.4,6.1-22,14
	l-52.6,90.5c-3.9,6.7-0.8,15.3,6.4,18l2.2,0.8c4.1,1.6,8.4,2.5,12.6,2.8l-6.7,5.8l-13.3,11.6l-37.9,32.3c-6.7,5.9-7.4,16.1-1.6,22.9
	l3.8,4.4c7.6,8.7,20.7,9.6,29.4,2l14.5,16.6c4.7,5.4,11.6,7.8,18.2,7c4-0.5,7.9-2.1,11.1-5l14.5,16.6c4.7,5.4,11.6,7.8,18.3,7
	c4-0.5,7.9-2.1,11.1-5l7.9,6.8c7.6,8.7,20.7,9.6,29.4,2l10.7-9.3l89.9-70l0.1-0.1l35.5,0L418.3,249.1z"/>
<path class="st1" d="M379.7,267.8L379.7,267.8l-90,70.1l-10.7,9.3c-8.7,7.6-21.8,6.7-29.4-2l-7.9-6.8c-3.2,2.8-7.1,4.5-11.1,5
	c-6.6,0.8-13.5-1.6-18.3-7l-14.5-16.6c-3.2,2.8-7.1,4.5-11.1,5c-6.6,0.8-13.5-1.6-18.2-7l-14.5-16.6c-7.4,6.5-18.1,6.7-25.8,1.2
	c-3.9,5.9-3.6,14,1.3,19.6l3.8,4.4c7.6,8.7,20.7,9.6,29.4,2l14.5,16.6c4.7,5.4,11.6,7.8,18.2,7c4-0.5,7.9-2.1,11.1-5l14.5,16.6
	c4.7,5.4,11.6,7.8,18.3,7c4-0.5,7.9-2.1,11.1-5l7.9,6.8c7.6,8.7,20.7,9.6,29.4,2l10.7-9.3l89.9-70l0.1-0.1l35.5,0l-3.9-31.9
	L379.7,267.8z"/>
<path class="st2" d="M396.1,313.5L347.9,272l-13.4-11.5l-9.6-8.3l-41.2-35.5l4.8-40.5c1.6-13.7-7-26.5-20.3-30.2l-89.8-24.9
	c-9.5-2.6-19.5,1.8-24,10.6L143,153.7l-48.5-3.3L82.1,256.2l-5.4,45.9l47.2,3.1l0.1,0.1l98.6,85l10.7,9.3c8.7,7.5,21.9,6.5,29.4-2.2
	l14.4-16.7c3.3,2.8,7.2,4.4,11.1,4.9c6.6,0.8,13.5-1.6,18.2-7.1l14.4-16.7c3.3,2.8,7.2,4.5,11.1,4.9c6.6,0.8,13.5-1.7,18.2-7.1
	l14.4-16.7c8.7,7.5,21.9,6.5,29.4-2.2l3.8-4.4C403.6,329.6,402.9,319.4,396.1,313.5z"/>
<g>
	<path class="st3" d="M396.1,313.5l-14.7-12.6c4.8,6.3,4.7,15.3-0.7,21.6l-4.1,4.7c-8,9.2-21.9,10.3-31.2,2.3l-15.3,17.7
		c-5,5.8-12.3,8.4-19.3,7.5c-4.2-0.5-8.4-2.2-11.8-5.2l-15.3,17.7c-5,5.8-12.3,8.3-19.3,7.5c-4.2-0.5-8.4-2.2-11.8-5.2l-15.3,17.7
		c-2.9,3.3-6.5,5.6-10.5,6.8l6.5,5.6c8.7,7.5,21.9,6.5,29.4-2.2l14.4-16.7c3.3,2.8,7.2,4.4,11.1,4.9c6.6,0.8,13.5-1.6,18.2-7.1
		l14.4-16.7c3.3,2.8,7.2,4.5,11.1,4.9c6.6,0.8,13.5-1.7,18.2-7.1l14.4-16.7c8.7,7.5,21.9,6.5,29.4-2.2l3.8-4.4
		C403.6,329.6,402.9,319.4,396.1,313.5z"/>
	<path class="st3" d="M369.5,337.4l-26.4-22.8c-3.1-2.7-7.9-2.4-10.6,0.8c-2.7,3.1-2.4,7.9,0.8,10.6l26.3,22.7l5-5.8
		c2,1.7,4.2,3,6.5,3.8C372.9,343.7,372.2,339.8,369.5,337.4z"/>
	<path class="st3" d="M327.3,365.6c1.8-3.1,1.2-7.1-1.6-9.5L302,335.7c-3.1-2.7-7.9-2.4-10.6,0.8c-2.7,3.1-2.4,7.9,0.8,10.6
		l23.7,20.4c0,0,0,0,0,0l4.9-5.7C322.8,363.5,325,364.8,327.3,365.6z"/>
</g>
<g>
	<path class="st0" d="M126.4,305.1l-5.7,7.5c-6.2,8.2-4.6,19.9,3.6,26.1l0,0c8.2,6.2,19.9,4.6,26.1-3.6l5.7-7.5
		c6.2-8.2,4.6-19.9-3.6-26.1l0,0C144.3,295.3,132.6,296.9,126.4,305.1z"/>
	<path class="st0" d="M161.2,321l-10.8,14.2c-6.2,8.2-4.6,19.9,3.6,26.1l0,0c8.2,6.2,19.9,4.6,26.1-3.6l10.8-14.2
		c6.2-8.2,4.6-19.9-3.6-26.1l0,0C179.1,311.2,167.4,312.8,161.2,321z"/>
	<path class="st0" d="M194.8,338.4l-14.7,19.4c-6.2,8.2-4.6,19.9,3.6,26.1l0,0c8.2,6.2,19.9,4.6,26.1-3.6l14.7-19.4
		c6.2-8.2,4.6-19.9-3.6-26.1l0,0C212.8,328.5,201.1,330.2,194.8,338.4z"/>
	<path class="st0" d="M225.4,359.8l-15.5,20.5c-6.2,8.2-4.6,19.9,3.6,26.1l0,0c8.2,6.2,19.9,4.6,26.1-3.6l15.5-20.5
		c6.2-8.2,4.6-19.9-3.6-26.1l0,0C243.4,350,231.7,351.6,225.4,359.8z"/>
	<path class="st0" d="M380.9,146.4l-47.2-26.6c-5-2.8-10.8-4.1-16.6-3.5l-74.6,6.9c-9.2,0.8-17.4,6.1-22,14l-52.6,90.5
		c-3.9,6.7-0.8,15.3,6.4,18l2.2,0.8c19.3,7.3,41,1.1,53.6-15.3l20.1-26.2c0,0,48.4,56.1,101.7-9.4"/>
</g>
<path class="st4" d="M511.9,309.1l-24.7-200.8c-0.2-2-1.3-3.8-2.8-5c-1.6-1.2-3.6-1.8-5.5-1.5l-57.8,7.1
	c-15,1.8-25.7,15.6-23.9,30.6l19.8,161.2c1.7,13.9,13.6,24.1,27.2,24.1c1.1,0,2.2-0.1,3.4-0.2l57.8-7.1
	C509.5,317,512.5,313.3,511.9,309.1z"/>
<path class="st5" d="M511.9,309.1l-2.7-22c-1.2,1.8-3.2,3.1-5.5,3.4l-60.6,7.5c-1.2,0.1-2.4,0.2-3.5,0.2c-10.2,0-19.4-5.4-24.6-13.8
	l2,16.4c1.7,13.9,13.6,24.1,27.2,24.1c1.1,0,2.2-0.1,3.4-0.2l57.8-7.1C509.5,317,512.5,313.3,511.9,309.1z"/>
<path class="st6" d="M90.9,109l-57.8-7.1c-2-0.2-4,0.3-5.5,1.5c-1.6,1.2-2.6,3-2.8,5L0.1,309.1c-0.5,4.1,2.4,7.9,6.5,8.4l57.8,7.1
	c1.1,0.1,2.3,0.2,3.4,0.2c13.6,0,25.5-10.2,27.2-24.1l19.8-161.2C116.6,124.5,105.9,110.8,90.9,109z"/>
<path class="st7" d="M0.1,309.1l2.7-22c1.2,1.8,3.2,3.1,5.5,3.4l60.6,7.5c1.2,0.1,2.4,0.2,3.5,0.2c10.2,0,19.4-5.4,24.6-13.8
	l-2,16.4c-1.7,13.9-13.6,24.1-27.2,24.1c-1.1,0-2.2-0.1-3.4-0.2l-57.8-7.1C2.5,317-0.4,313.3,0.1,309.1z"/>
<g>
	<circle class="st8" cx="464" cy="277" r="14.5"/>
	<circle class="st8" cx="47.2" cy="277" r="14.5"/>
</g>
</svg>
