<svg xmlns="http://www.w3.org/2000/svg" viewBox="0 0 512.003 512.003" style="enable-background:new 0 0 512.003 512.003"
     xml:space="preserve">
    <circle style="fill:#fddf6d" cx="256.001" cy="256.001" r="256.001"/>
    <path style="fill:#fcc56b"
          d="M310.859 474.208c-141.385 0-256-114.615-256-256 0-75.537 32.722-143.422 84.757-190.281C56.738 70.303 0 156.525 0 256c0 141.385 114.615 256 256 256 65.849 0 125.883-24.87 171.243-65.718-34.918 17.853-74.473 27.926-116.384 27.926z"/>
    <path style="fill:#7f184c"
          d="M422.988 229.321a10.406 10.406 0 0 1-9.108-5.349c-6.682-11.995-19.35-19.446-33.064-19.446-13.374 0-26.214 7.561-33.512 19.733-2.958 4.932-9.355 6.533-14.287 3.577-4.934-2.958-6.535-9.354-3.577-14.287 11.039-18.414 30.725-29.852 51.377-29.852 21.264 0 40.905 11.548 51.26 30.139 2.799 5.024.994 11.367-4.03 14.165a10.357 10.357 0 0 1-5.059 1.32zM245.315 229.321a10.406 10.406 0 0 1-9.108-5.349c-6.682-11.995-19.35-19.446-33.064-19.446-13.372 0-26.214 7.561-33.512 19.733-2.956 4.932-9.352 6.533-14.287 3.577-4.932-2.958-6.535-9.355-3.576-14.287 11.039-18.414 30.725-29.852 51.377-29.852 21.264 0 40.905 11.548 51.26 30.139 2.799 5.024.994 11.367-4.03 14.165a10.363 10.363 0 0 1-5.06 1.32zM294.45 445.098c-73.869 0-133.751-59.882-133.751-133.751h267.5c.001 73.869-59.881 133.751-133.749 133.751z"/>
    <path style="fill:#f2f2f2"
          d="M193.334 311.347v20.878c0 8.804 7.136 15.94 15.94 15.94h170.353c8.802 0 15.94-7.136 15.94-15.94v-20.878H193.334z"/>
    <path style="fill:#fc4c59"
          d="M297.258 389.609c-36.153-16.796-76.276-14.357-108.808 3.065 24.448 31.863 62.891 52.424 106.157 52.424 19.065 0 37.185-4.016 53.598-11.205-12.043-18.632-29.31-34.23-50.947-44.284z"/>
    <path style="fill:#3fa9f5"
          d="M146.23 338.778c-15.627 17.091-42.149 18.279-59.242 2.652s-18.279-42.149-2.652-59.242c15.627-17.092 87.325-33.368 87.325-33.368s-9.804 72.868-25.431 89.958zM434.029 329.436c15.627 17.091 42.149 18.279 59.242 2.652 17.091-15.627 18.279-42.149 2.652-59.242-15.627-17.091-87.325-33.368-87.325-33.368s9.805 72.866 25.431 89.958z"/>
    <ellipse transform="rotate(-74.199 288.632 78.29)" style="fill:#fceb88" cx="288.63" cy="78.287" rx="29.854"
             ry="53.46"/>
</svg>
