<?xml version="1.0" encoding="iso-8859-1"?>
<!-- Generator: Adobe Illustrator 19.0.0, SVG Export Plug-In . SVG Version: 6.00 Build 0)  -->
<svg version="1.1" id="Layer_1" xmlns="http://www.w3.org/2000/svg" xmlns:xlink="http://www.w3.org/1999/xlink" x="0px" y="0px"
	 viewBox="0 0 512.003 512.003" style="enable-background:new 0 0 512.003 512.003;" xml:space="preserve">
<circle style="fill:#FDDF6D;" cx="256.001" cy="256.001" r="256.001"/>
<path style="fill:#FCC56B;" d="M310.859,474.208c-141.385,0-256-114.615-256-256c0-75.537,32.722-143.422,84.757-190.281
	C56.738,70.303,0,156.525,0,256c0,141.385,114.615,256,256,256c65.849,0,125.883-24.87,171.243-65.718
	C392.325,464.135,352.77,474.208,310.859,474.208z"/>
<g>
	<path style="fill:#7F184C;" d="M422.988,229.321c-3.656,0.001-7.203-1.927-9.108-5.349c-6.682-11.995-19.35-19.446-33.064-19.446
		c-13.374,0-26.214,7.561-33.512,19.733c-2.958,4.932-9.355,6.533-14.287,3.577c-4.934-2.958-6.535-9.354-3.577-14.287
		c11.039-18.414,30.725-29.852,51.377-29.852c21.264,0,40.905,11.548,51.26,30.139c2.799,5.024,0.994,11.367-4.03,14.165
		C426.443,228.896,424.703,229.321,422.988,229.321z"/>
	<path style="fill:#7F184C;" d="M245.315,229.321c-3.656,0.001-7.203-1.927-9.108-5.349c-6.682-11.995-19.35-19.446-33.064-19.446
		c-13.372,0-26.214,7.561-33.512,19.733c-2.956,4.932-9.352,6.533-14.287,3.577c-4.932-2.958-6.535-9.355-3.576-14.287
		c11.039-18.414,30.725-29.852,51.377-29.852c21.264,0,40.905,11.548,51.26,30.139c2.799,5.024,0.994,11.367-4.03,14.165
		C248.77,228.896,247.03,229.321,245.315,229.321z"/>
	<path style="fill:#7F184C;" d="M294.45,445.098L294.45,445.098c-73.869,0-133.751-59.882-133.751-133.751l0,0h267.5l0,0
		C428.2,385.216,368.318,445.098,294.45,445.098z"/>
</g>
<path style="fill:#F2F2F2;" d="M193.334,311.347v20.878c0,8.804,7.136,15.94,15.94,15.94h170.353c8.802,0,15.94-7.136,15.94-15.94
	v-20.878H193.334z"/>
<path style="fill:#FC4C59;" d="M297.258,389.609c-36.153-16.796-76.276-14.357-108.808,3.065
	c24.448,31.863,62.891,52.424,106.157,52.424l0,0c19.065,0,37.185-4.016,53.598-11.205
	C336.162,415.261,318.895,399.663,297.258,389.609z"/>
<g>
	<path style="fill:#3FA9F5;" d="M146.23,338.778c-15.627,17.091-42.149,18.279-59.242,2.652s-18.279-42.149-2.652-59.242
		c15.627-17.092,87.325-33.368,87.325-33.368S161.857,321.688,146.23,338.778z"/>
	<path style="fill:#3FA9F5;" d="M434.029,329.436c15.627,17.091,42.149,18.279,59.242,2.652
		c17.091-15.627,18.279-42.149,2.652-59.242c-15.627-17.091-87.325-33.368-87.325-33.368S418.403,312.344,434.029,329.436z"/>
</g>
<ellipse transform="matrix(0.2723 -0.9622 0.9622 0.2723 134.7066 334.6929)" style="fill:#FCEB88;" cx="288.63" cy="78.287" rx="29.854" ry="53.46"/>
<g>
</g>
<g>
</g>
<g>
</g>
<g>
</g>
<g>
</g>
<g>
</g>
<g>
</g>
<g>
</g>
<g>
</g>
<g>
</g>
<g>
</g>
<g>
</g>
<g>
</g>
<g>
</g>
<g>
</g>
</svg>
