<svg version="1.1" id="Capa_1" xmlns="http://www.w3.org/2000/svg" x="0" y="0" viewBox="0 0 512 512"
     style="enable-background:new 0 0 512 512" xml:space="preserve">
    <style>
        .st0{fill:#ffd064}
        .st6{fill:#8c715d}
    </style>
    <path class="st0"
          d="M230.1 94.2c-2.4 0-4.7-1.1-6.2-3.1-7-9.5-19.5-20.5-39.2-18.4-23.2 2.5-40.4-4.9-50.7-11.5-3.6-2.3-4.6-7.1-2.3-10.7 2.3-3.6 7.1-4.6 10.7-2.3 8.3 5.3 22.1 11.2 40.8 9.2 28.4-3 45.6 14.1 53.3 24.6 2.5 3.4 1.8 8.3-1.6 10.8-1.6.9-3.2 1.4-4.8 1.4z"/>
    <path class="st0"
          d="M149.2 135.2c-1.4 0-2.8-.4-4-1.1-3.6-2.2-4.8-7-2.5-10.6 9.9-16.1 28.1-27.2 52.5-32.1 17.8-3.5 32.8-2.6 33.4-2.5 4.3.3 7.5 4 7.2 8.2-.3 4.3-4 7.4-8.2 7.2-.5 0-53-3.1-71.7 27.3-1.6 2.3-4.1 3.6-6.7 3.6z"/>
    <path
        d="M265.7 431.3c126.9 0 197-186.1-3.3-329.9-5-3.6-7.9-9.3-7.9-15.5.1-5.1 1.7-10 4.6-14.1 9.4-13.4 22.9-36.3 31-54.8 1.9-4.4-.8-9.2-6-9.2-12 0-12-7.9-24.1-7.9s-12 7.9-24.1 7.9c-10.3 0-14.5-8.8-19.4-2.4C201.9 24.2 251.7 90 251.7 90c-220 144.6-149 341.3-19.2 341.3h33.2z"
        style="fill:#eabc6b"/>
    <path
        d="M315.5 90s50.5-65.6 36-84.4c-5-6.4-9.2 2.3-19.4 2.3-12 0-12-7.9-24.1-7.9-12 0-12 7.9-24.1 7.9-.6 0-1.1 0-1.7-.1-4.8 20.7-26.6 53-39.1 70.3 4.9 7.2 8.4 11.9 8.4 11.9-2.9 1.9-5.8 3.9-8.6 5.8 210.2 144.5 139.8 335.5 11.3 335.5h81.2c130.4 0 200.8-196.2-19.9-341.3z"
        style="fill:#e8ae4d"/>
    <path
        d="M324.9 113.3c-29.4 7.4-58.4 7.4-87.8 0-10.2-2.6-16-14.1-12.3-24.5 0-.1.1-.2.1-.4 3.1-8.8 11.8-13.7 20.4-11.5 24.1 6 47.3 6 71.4 0 8.6-2.2 17.3 2.8 20.4 11.5 0 .1.1.2.1.4 3.8 10.5-2 22-12.3 24.5z"
        style="fill:#ffe07d"/>
    <path
        d="m48.8 465 111.9 41.6c9.5 3.5 19.6 5.3 29.7 5.3h115.3c16.1 0 31.9-4.6 45.6-13.2l144.3-91.5c9.5-8.5 11.3-22.7 4.1-33.2-7.8-11.5-20.8-13.5-35.1-6.8l-140.6 62 .2-22.8c-1.9-18.7-16.3-33.7-34.9-36.4l-85.6-9.9c-19.7-2.8-29.6-9.4-46.8-19.5-23.5-13.7-50.2-21-77.4-21H48.8V465z"
        style="fill:#ffddce"/>
    <path
        d="M153.8 484.5c10 3.7 20.6 5.6 31.2 5.6h121.2c12.9 0 25.6-2.8 37.2-8.1l84.7-53.7c7.9-5 12.9-13.7 12.6-23-.1-4.9-1.6-9.9-4.6-14.2 0 0-2.6-4.4-5.2-8.9l-107 47.1.2-22.8c-1.9-18.7-16.3-33.7-34.9-36.4l-85.6-9.9c-19.7-2.8-29.6-9.4-46.8-19.5-23.5-13.7-50.2-21-77.4-21H48.8v125.6l105 39.2z"
        style="fill:#b19177"/>
    <path class="st6"
          d="M499.6 374.1c-7.8-11.5-20.8-13.5-35.1-6.8l-38.7 17c1.9 3 3.4 5.3 3.4 5.3 7.2 10.5 5.4 24.7-4.1 33.2L341 476.2c-11.1 5.1-23.2 7.7-35.4 7.7H190.3c-10.1 0-20.2-1.8-29.7-5.3L48.8 436.9V465l111.9 41.6c9.5 3.5 19.6 5.3 29.7 5.3H305.7c16.1 0 31.9-4.6 45.6-13.2l144.3-91.5c9.4-8.3 11.2-22.5 4-33.1z"/>
    <path d="M313.7 382.9v.5l.4-.2c-.2 0-.3-.1-.4-.3z" style="fill:#f5dbcc"/>
    <path class="st6" d="M324 429.2h-87.4c-4.3 0-7.7-3.5-7.7-7.7s3.5-7.7 7.7-7.7h87.5l-.1 15.4z"/>
    <path
        d="M72.8 487.3c0 8.1-6.6 14.7-14.7 14.7H22.7C14.6 502 8 495.4 8 487.3V307.4c0-8.1 6.6-14.7 14.7-14.7h35.5c8.1 0 14.7 6.6 14.7 14.7v179.9z"
        style="fill:#407093"/>
    <text transform="translate(190.592 300.217)" style="font-size:110px;font-family:'SFRounded-Ultralight';fill:#fff">XAF</text>
</svg>
