<?xml version="1.0" encoding="utf-8"?>
<!-- Generator: Adobe Illustrator 23.0.1, SVG Export Plug-In . SVG Version: 6.00 Build 0)  -->
<svg version="1.1" id="Capa_1" xmlns="http://www.w3.org/2000/svg" xmlns:xlink="http://www.w3.org/1999/xlink" x="0px" y="0px"
	 viewBox="0 0 512 512" style="enable-background:new 0 0 512 512;" xml:space="preserve">
<style type="text/css">
	.st0{fill:#FFD064;}
	.st1{fill:#EABC6B;}
	.st2{fill:#E8AE4D;}
	.st3{fill:#FFE07D;}
	.st4{fill:#FFDDCE;}
	.st5{fill:#B19177;}
	.st6{fill:#8C715D;}
	.st7{fill:#F5DBCC;}
	.st8{fill:#407093;}
	.st9{fill:#FFFFFF;}
	.st10{font-family:'SFRounded-Ultralight';}
	.st11{font-size:110px;}
</style>
<g>
	<g>
		<g>
			<g>
				<g>
					<path class="st0" d="M230.1,94.2c-2.4,0-4.7-1.1-6.2-3.1c-7-9.5-19.5-20.5-39.2-18.4c-23.2,2.5-40.4-4.9-50.7-11.5
						c-3.6-2.3-4.6-7.1-2.3-10.7c2.3-3.6,7.1-4.6,10.7-2.3c8.3,5.3,22.1,11.2,40.8,9.2c28.4-3,45.6,14.1,53.3,24.6
						c2.5,3.4,1.8,8.3-1.6,10.8C233.3,93.7,231.7,94.2,230.1,94.2L230.1,94.2z"/>
				</g>
				<g>
					<path class="st0" d="M149.2,135.2c-1.4,0-2.8-0.4-4-1.1c-3.6-2.2-4.8-7-2.5-10.6c9.9-16.1,28.1-27.2,52.5-32.1
						c17.8-3.5,32.8-2.6,33.4-2.5c4.3,0.3,7.5,4,7.2,8.2c-0.3,4.3-4,7.4-8.2,7.2c-0.5,0-53-3.1-71.7,27.3
						C154.3,133.9,151.8,135.2,149.2,135.2L149.2,135.2z"/>
				</g>
			</g>
			<g>
				<g>
					<path class="st1" d="M265.7,431.3c126.9,0,197-186.1-3.3-329.9c-5-3.6-7.9-9.3-7.9-15.5c0.1-5.1,1.7-10,4.6-14.1
						c9.4-13.4,22.9-36.3,31-54.8c1.9-4.4-0.8-9.2-6-9.2c-12,0-12-7.9-24.1-7.9s-12,7.9-24.1,7.9c-10.3,0-14.5-8.8-19.4-2.4
						C201.9,24.2,251.7,90,251.7,90c-220,144.6-149,341.3-19.2,341.3L265.7,431.3L265.7,431.3z"/>
					<g>
						<path class="st2" d="M315.5,90c0,0,50.5-65.6,36-84.4c-5-6.4-9.2,2.3-19.4,2.3c-12,0-12-7.9-24.1-7.9c-12,0-12,7.9-24.1,7.9
							c-0.6,0-1.1,0-1.7-0.1c-4.8,20.7-26.6,53-39.1,70.3c4.9,7.2,8.4,11.9,8.4,11.9c-2.9,1.9-5.8,3.9-8.6,5.8
							c210.2,144.5,139.8,335.5,11.3,335.5h81.2C465.8,431.3,536.2,235.1,315.5,90L315.5,90z"/>
					</g>
					<g>
						<path class="st3" d="M324.9,113.3c-29.4,7.4-58.4,7.4-87.8,0c-10.2-2.6-16-14.1-12.3-24.5c0-0.1,0.1-0.2,0.1-0.4
							c3.1-8.8,11.8-13.7,20.4-11.5c24.1,6,47.3,6,71.4,0c8.6-2.2,17.3,2.8,20.4,11.5c0,0.1,0.1,0.2,0.1,0.4
							C341,99.3,335.2,110.8,324.9,113.3L324.9,113.3z"/>
					</g>
				</g>
			</g>
		</g>
		<g>
			<g>
				<g>
					<g>
						<g>
							<g>
								<g>
									<g>
										<g>
											<g>
												<path class="st4" d="M48.8,465l111.9,41.6c9.5,3.5,19.6,5.3,29.7,5.3h115.3c16.1,0,31.9-4.6,45.6-13.2l144.3-91.5
													c9.5-8.5,11.3-22.7,4.1-33.2c-7.8-11.5-20.8-13.5-35.1-6.8L324,429.2l0.2-22.8c-1.9-18.7-16.3-33.7-34.9-36.4l-85.6-9.9
													c-19.7-2.8-29.6-9.4-46.8-19.5c-23.5-13.7-50.2-21-77.4-21H48.8L48.8,465z"/>
											</g>
											<path class="st5" d="M153.8,484.5c10,3.7,20.6,5.6,31.2,5.6h121.2c12.9,0,25.6-2.8,37.2-8.1l84.7-53.7
												c7.9-5,12.9-13.7,12.6-23c-0.1-4.9-1.6-9.9-4.6-14.2c0,0-2.6-4.4-5.2-8.9l-107,47.1l0.2-22.8
												c-1.9-18.7-16.3-33.7-34.9-36.4l-85.6-9.9c-19.7-2.8-29.6-9.4-46.8-19.5c-23.5-13.7-50.2-21-77.4-21H48.8v125.6
												L153.8,484.5z"/>
											<path class="st6" d="M499.6,374.1c-7.8-11.5-20.8-13.5-35.1-6.8l-38.7,17c1.9,3,3.4,5.3,3.4,5.3
												c7.2,10.5,5.4,24.7-4.1,33.2L341,476.2c-11.1,5.1-23.2,7.7-35.4,7.7H190.3c-10.1,0-20.2-1.8-29.7-5.3L48.8,436.9V465
												l111.9,41.6c9.5,3.5,19.6,5.3,29.7,5.3h94.2h21.1c16.1,0,31.9-4.6,45.6-13.2l144.3-91.5
												C505,398.9,506.8,384.7,499.6,374.1L499.6,374.1z"/>
											<g>
												<path class="st7" d="M313.7,382.9l0,0.5l0.4-0.2C313.9,383.2,313.8,383.1,313.7,382.9L313.7,382.9z"/>
											</g>
											<g>
												<g>
													<g>
														<path class="st6" d="M324,429.2h-87.4c-4.3,0-7.7-3.5-7.7-7.7s3.5-7.7,7.7-7.7h87.5L324,429.2z"/>
													</g>
												</g>
											</g>
											<path class="st8" d="M72.8,487.3c0,8.1-6.6,14.7-14.7,14.7H22.7C14.6,502,8,495.4,8,487.3V307.4
												c0-8.1,6.6-14.7,14.7-14.7h35.5c8.1,0,14.7,6.6,14.7,14.7V487.3z"/>
										</g>
									</g>
								</g>
							</g>
						</g>
					</g>
				</g>
			</g>
		</g>
	</g>
	<text transform="matrix(1 0 0 1 190.5921 300.217)" class="st9 st10 st11">XAF</text>
</g>
</svg>
