<svg xmlns="http://www.w3.org/2000/svg" viewBox="0 0 480.187 480.187" style="enable-background:new 0 0 480.187 480.187"
     xml:space="preserve">
    <path style="fill:#dd1c4b" d="M243.421 199.48c-62.008-62-130-94.536-151.872-72.672a21.865 21.865 0 0 0-5.152 8.896l-.352-.352-20.888 85.6-20.8 85.344-24.656 101.056-15.608 64 92.408-34.968 117.536-44.472 93.768-35.48-.112-.112a21.826 21.826 0 0 0 8.4-4.968c21.872-21.872-10.664-89.864-72.672-151.872z"/>
    <ellipse transform="rotate(-134.999 203.824 239.05)" style="fill:#d1e3ee" cx="203.823" cy="239.049" rx="158.777"
             ry="56"/>
    <path style="fill:#b21d48"
          d="M299.293 359.2a78.408 78.408 0 0 1-32.576-6.464l-76.64 29-117.576 44.432-63.048 23.856L4.093 472l92.408-34.968 117.536-44.472L300.093 360l-.8-.8z"/>
    <path style="fill:#ffbf41"
          d="M396.093 296a8.231 8.231 0 0 1-2.808-.504 247.258 247.258 0 0 0-127.296-12.368l-28.576 4.76a8 8 0 0 1-2.64-15.776l28.584-4.8a263.445 263.445 0 0 1 135.544 13.16A8 8 0 0 1 396.093 296zM252.093 248a8 8 0 0 1-3.44-15.2l168-80a8 8 0 0 1 10.664 3.784 8 8 0 0 1-3.784 10.664l-168 80a7.995 7.995 0 0 1-3.44.752zM158.541 232a8 8 0 0 1-7.376-11.079v-.001l11.632-27.912a223.782 223.782 0 0 0 11.944-135.272 8 8 0 1 1 15.616-3.472 239.682 239.682 0 0 1-12.8 144.904l-11.64 27.912a8 8 0 0 1-7.376 4.92z"/>
    <circle style="fill:#d5557e" cx="436.093" cy="312" r="16"/>
    <circle style="fill:#dd95c1" cx="244.093" cy="88" r="16"/>
    <path style="fill:#7fcccb" d="M172.093 32c-8.837 0-16-7.163-16-16s7.163-16 16-16 16 7.163 16 16-7.163 16-16 16z"/>
    <path style="fill:#2276bb"
          d="M396.093 64a8 8 0 0 1-8-8v-8a8 8 0 0 1 16 0v8a8 8 0 0 1-8 8zM396.093 24a8 8 0 0 1-8-8V8a8 8 0 0 1 16 0v8a8 8 0 0 1-8 8zM420.093 40h-8a8 8 0 0 1 0-16h8a8 8 0 0 1 0 16zM380.093 40h-8a8 8 0 0 1 0-16h8a8 8 0 0 1 0 16z"/>
    <path style="fill:#fff"
          d="M67.597 232a223.9 223.9 0 0 1-2.44-10.4l-20.8 85.344 1.6 19.512a179.6 179.6 0 0 0 50.536 110.536l117.544-44.432c-.64-.2-1.304-.344-1.944-.56-71.275-26.725-125.148-86.379-144.496-160z"/>
    <path style="fill:#f6f6e7"
          d="M214.037 392.56c-.64-.2-1.304-.344-1.944-.56a233.971 233.971 0 0 1-22.592-9.944L83.629 422.112a179.12 179.12 0 0 0 12.872 14.92l117.536-44.472z"/>
    <path style="fill:#c9da53" d="M340.093 95.832V136h-40.168V95.832h40.168z"/>
    <path style="fill:#ffbf41"
          d="M196.093 240a8 8 0 0 1-5.352-13.944l80-72a8 8 0 0 1 10.704 11.888l-80 72a8 8 0 0 1-5.352 2.056z"/>
    <path style="fill:#ffdb43"
          d="M428.093 208a8 8 0 0 1-8-8v-8a8 8 0 0 1 16 0v8a8 8 0 0 1-8 8zM456.381 196.28a7.94 7.94 0 0 1-5.656-2.344l-5.656-5.656a8 8 0 0 1 11.312-11.312l5.656 5.656a8 8 0 0 1-5.656 13.656zM468.093 168h-8a8 8 0 0 1 0-16h8a8 8 0 0 1 0 16zM450.725 145.376a8 8 0 0 1-5.656-13.656l5.656-5.656a8 8 0 0 1 11.312 11.312l-5.656 5.656a8 8 0 0 1-5.656 2.344zM428.093 136a8 8 0 0 1-8-8v-8a8 8 0 0 1 16 0v8a8 8 0 0 1-8 8zM405.461 145.376a8 8 0 0 1-5.656-2.344l-5.656-5.656a8 8 0 0 1 11.312-11.312l5.656 5.656a8 8 0 0 1-5.656 13.656zM44.093 8l12.36 25.048 27.64 4.016-20 19.496 4.72 27.528-24.72-13-24.72 13 4.72-27.528-20-19.496 27.64-4.016L44.093 8z"/>
    <path style="fill:#2bb3ce"
          d="M473.565 433.328A55.528 55.528 0 0 0 449.037 401l-3.296-4.944a120.724 120.724 0 0 0-80.328-51.944 8 8 0 0 0-2.64 15.776 104.667 104.667 0 0 1 61.048 34.032 47.198 47.198 0 0 0-32 21.976c-8.616 15.431-3.091 34.924 12.34 43.54s34.924 3.091 43.54-12.34a46.396 46.396 0 0 0 5.192-20.536 39.088 39.088 0 0 1 1.752 41.544 8 8 0 1 0 13.968 7.792 55.641 55.641 0 0 0 4.952-42.568zm-39.816 5.96c-4.27 7.737-14.003 10.547-21.739 6.277-7.737-4.27-10.547-14.003-6.277-21.739l.072-.13a29.977 29.977 0 0 1 21.664-14.096 8.135 8.135 0 0 1 4 .928c6.752 3.768 7.112 20.104 2.28 28.76z"/>
</svg>
