<?xml version="1.0" encoding="utf-8"?>
<!-- Generator: Adobe Illustrator 23.0.1, SVG Export Plug-In . SVG Version: 6.00 Build 0)  -->
<svg version="1.1" id="Capa_1" xmlns="http://www.w3.org/2000/svg" xmlns:xlink="http://www.w3.org/1999/xlink" x="0px" y="0px"
	 viewBox="0 0 512 512" style="enable-background:new 0 0 512 512;" xml:space="preserve">
<style type="text/css">
	.st0{fill:#C0A58D;}
	.st1{fill:#B19177;}
	.st2{fill:#8C715D;}
	.st3{fill:#1C96F9;}
	.st4{fill:#1785F8;}
	.st5{fill:#EAF6FF;}
</style>
<g>
	<g>
		<g>
			<path class="st0" d="M426.1,367.5l-53.6-53.6c-8.2-8.2-13.3-18.9-14.5-30.4l-17.7-170.3c-0.6-6-2-11.8-4.2-17.4l-32.7-85.4
				C301.1,4.2,295,0,288.2,0c-22.3,0-37.9,22.2-30.2,43.2l21.3,57.9c1.9,5.3,2.8,10.9,2.7,16.5l-2,68.9c0,1.7-0.9,3.2-2.3,4.2
				c-13.1,8.7-21.7,23.6-21.7,40.4v104c0,14.9,5.9,29.1,16.4,39.6l80.6,80.6L426.1,367.5z"/>
			<path class="st1" d="M426.1,367.5L405.8,392l-55.6-55.6c-8.2-8.2-13.3-18.9-14.5-30.4L318,135.7c-0.6-6-2-11.8-4.2-17.4L281.1,33
				c-2.4-6.4-8.5-10.6-15.3-10.6c-3,0-5.9,0.4-8.5,1.1C260.9,10.3,273,0,288.2,0c6.8,0,12.9,4.2,15.3,10.5l32.7,85.4
				c2.1,5.6,3.5,11.4,4.2,17.4l17.7,170.3c1.2,11.5,6.3,22.2,14.5,30.4L426.1,367.5z"/>
			<g>
				<g>
					<path class="st2" d="M329.4,191.3v102.6c0,4.3-3.5,7.8-7.8,7.8c-4.3,0-7.8-3.5-7.8-7.8V191.3c0-5.1-4.2-9.3-9.3-9.3
						c-9,0-18.2,3-26,7.9c0.9-0.9,1.4-2.1,1.4-3.4l0.4-15c7.8-3.3,16-5.1,24.1-5.1C318.3,166.5,329.4,177.6,329.4,191.3L329.4,191.3
						z"/>
				</g>
				<g>
					<path class="st3" d="M500.9,406.1L398.1,509c-4.1,4.1-10.6,4.1-14.7,0l-42.1-42.1c-8.2-8.2-8.2-21.4,0-29.6l87.9-87.9
						c8.2-8.2,21.4-8.2,29.6,0l42.1,42.1C505,395.5,505,402.1,500.9,406.1L500.9,406.1z"/>
					<path class="st4" d="M458.8,349.3l42.1,42.1c4.1,4.1,4.1,10.6,0,14.7l-19.2,19.2l-49.5-49.5c-8.2-8.2-21.4-8.2-29.6,0
						l26.6-26.6C437.4,341.1,450.6,341.1,458.8,349.3L458.8,349.3z"/>
				</g>
			</g>
		</g>
		<g>
			<path class="st0" d="M85.9,367.5l53.6-53.6c8.2-8.2,13.3-18.9,14.5-30.4l17.7-170.3c0.6-6,2-11.8,4.2-17.4l32.7-85.4
				C210.9,4.2,217,0,223.8,0c22.3,0,37.9,22.2,30.2,43.2l-21.3,57.9c-1.9,5.3-2.8,10.9-2.7,16.5l2,68.9c0.1,1.7,0.9,3.2,2.3,4.2
				c13.1,8.7,21.7,23.6,21.7,40.4v104c0,14.9-5.9,29.1-16.4,39.6L159,455.4L85.9,367.5z"/>
			<path class="st1" d="M256,231.1v104c0,14.9-5.9,29.1-16.4,39.6L159,455.4l-17.5-21l63-63c10.5-10.5,16.4-24.8,16.4-39.6v-104
				c0-16.9-8.6-31.7-21.7-40.4c-1.4-0.9-2.3-2.5-2.3-4.2l-2-68.9c-0.2-5.6,0.7-11.2,2.7-16.5l21.3-57.9c1.4-3.7,2-7.5,2-11.1
				c0-8.7-3.6-16.9-9.6-22.9c3-3.6,7.6-5.8,12.5-5.8c18.4,0,32.2,15.1,32.2,32.1c0,3.7-0.6,7.4-2,11.1l-21.3,57.9
				c-1.9,5.3-2.8,10.9-2.7,16.5l2,69c0.1,1.7,0.9,3.2,2.3,4.2C247.4,199.4,256,214.2,256,231.1L256,231.1z"/>
			<g>
				<g>
					<path class="st1" d="M232,186.5c0,1.3,0.6,2.5,1.4,3.4c-7.8-4.9-17-7.9-26-7.9c-5.1,0-9.3,4.2-9.3,9.3v102.6
						c0,4.3-3.5,7.8-7.8,7.8c-4.3,0-7.8-3.5-7.8-7.8V191.3c0-13.7,11.2-24.9,24.9-24.9c8.1,0,16.3,1.8,24.1,5.1L232,186.5z"/>
				</g>
				<g>
					<path class="st2" d="M233.4,189.9c-7.8-4.9-17-7.9-26-7.9c-3.6,0-6.7,2.1-8.3,5.1c-1.3-0.9-2.1-2.4-2.2-4.1l-0.4-14.1
						c3.3-1.6,7-2.5,10.9-2.5c8.1,0,16.3,1.8,24.1,5.1l0.4,15C232,187.8,232.6,189,233.4,189.9L233.4,189.9z"/>
				</g>
				<g>
					<path class="st3" d="M11.1,406.1L113.9,509c4.1,4.1,10.6,4.1,14.7,0l42.1-42.1c8.2-8.2,8.2-21.4,0-29.6l-87.9-87.9
						c-8.2-8.2-21.4-8.2-29.6,0l-42.1,42.1C7,395.5,7,402.1,11.1,406.1L11.1,406.1z"/>
					<path class="st4" d="M170.7,466.8L128.6,509c-4.1,4.1-10.6,4.1-14.7,0l-17.3-17.3l49.5-49.5c8.2-8.2,8.2-21.4,0-29.6l24.7,24.7
						C178.9,445.4,178.9,458.7,170.7,466.8L170.7,466.8z"/>
				</g>
			</g>
		</g>
	</g>
	<g>
		<g>
			<circle class="st5" cx="68.9" cy="398.5" r="14"/>
		</g>
		<g>
			<circle class="st5" cx="393.7" cy="449.2" r="14"/>
		</g>
	</g>
</g>
</svg>
